<svg xmlns="http://www.w3.org/2000/svg" viewBox="0 0 496 409.67"><defs><style>.cls-1{fill:none;stroke:#000;stroke-miterlimit:10;}</style></defs><title>computer_ikon_1</title><g id="Layer_2" data-name="Layer 2"><g id="Layer_2-2" data-name="Layer 2"><path d="M344.17,379.17a3,3,0,0,1,0,1.55Z"/><path d="M344.17,380.72v6.45a7.06,7.06,0,0,0-1.55-3.86A6.33,6.33,0,0,0,344.17,380.72Z"/><path d="M301.42,357.66c.31,0,38.26,5.57,42.75,21.51l-5.49-.11C330,371.44,313,363.17,301.5,363.17Z"/><path d="M344.17,387.17l-6.44-.13a20.84,20.84,0,0,0,4.89-3.73A7.06,7.06,0,0,1,344.17,387.17Z"/><path d="M342.62,383.31a20.84,20.84,0,0,1-4.89,3.73L177.33,384a23.13,23.13,0,0,1-4.55-4,25.38,25.38,0,0,1,5.83-3.94l160.07,3.08A24.65,24.65,0,0,1,342.62,383.31Z"/><path d="M344.17,379.17v1.55a6.33,6.33,0,0,1-1.55,2.59,24.65,24.65,0,0,0-3.94-4.25Z"/><polygon points="301.34 352.37 301.41 357 301.4 357 301.34 352.37"/><polygon points="301.41 357 301.42 357.66 301.41 357.66 301.4 357 301.41 357"/><polygon points="301.34 352.37 301.4 357 210.83 357 210.83 317.17 300.83 317.17 301.34 352.37"/><polygon points="300.83 309.17 300.93 317.17 300.83 317.17 210.83 317.17 210.83 309.17 300.83 309.17"/><polygon points="300.93 317.17 301.34 352.37 300.83 317.17 300.93 317.17"/><path d="M177.33,384c11.9,8.37,39.88,17.21,81.5,17.21,39.72,0,67.1-7.2,78.9-14.13l6.44.13c0,8-29.34,22-85.34,22s-87.33-16-88-25.34Z"/><path d="M178.61,376c11.63-6.09,32.22-10.81,32.22-10.81V357H301.4v.66h0l.08,5.51c11.5,0,28.52,8.27,37.18,15.89Z"/><path d="M258.83,401.17c-41.62,0-69.6-8.84-81.5-17.21L337.73,387C325.93,394,298.55,401.17,258.83,401.17Z"/><path d="M178.61,376a25.38,25.38,0,0,0-5.83,3.94,7.6,7.6,0,0,1-1.95-4.09Z"/><path d="M172.78,379.92a23.13,23.13,0,0,0,4.55,4l-6.5-.13v-.44A5.61,5.61,0,0,1,172.78,379.92Z"/><path d="M170.83,375.83a7.6,7.6,0,0,0,1.95,4.09,5.61,5.61,0,0,0-1.95,3.47Z"/><path d="M170.83,375.83c-.66-9.33,40-18.66,40-18.66v8s-20.59,4.72-32.22,10.81Z"/><path d="M170.83,383.39v.44A3.23,3.23,0,0,1,170.83,383.39Z"/><path d="M19.89,302.13H476.48a4.38,4.38,0,0,0,4-4.45c0-4.07,1.06-268.34,1.06-268.34S481,15.53,467.14,15.53H27.74s-11.42.23-11.42,10.75-.82,271.88-.82,271.88A4,4,0,0,0,19.89,302.13ZM495.5,15.75s-1.12,292-1.12,296.5a4.75,4.75,0,0,1-4.21,4.92H300.93l-.1-8h-90v8H5.17A4.39,4.39,0,0,1,.5,312.78S1.38,24,1.38,12.38,13.5.5,13.5.5H480.25C495,.5,495.5,15.75,495.5,15.75Z"/><path class="cls-1" d="M300.93,317.17H490.17a4.75,4.75,0,0,0,4.21-4.92c0-4.5,1.12-296.5,1.12-296.5S495,.5,480.25.5H13.5S1.38.75,1.38,12.38.5,312.78.5,312.78a4.39,4.39,0,0,0,4.67,4.39H210.83"/><path class="cls-1" d="M19.89,302.13a4,4,0,0,1-4.39-4s.82-261.36.82-271.88S27.74,15.53,27.74,15.53h439.4c13.89,0,14.36,13.81,14.36,13.81s-1.06,264.27-1.06,268.34a4.38,4.38,0,0,1-4,4.45Z"/><line class="cls-1" x1="301.34" y1="352.37" x2="300.93" y2="317.17"/><path class="cls-1" d="M210.83,357.17s-40.66,9.33-40,18.66"/><path class="cls-1" d="M344.17,380.72a3,3,0,0,0,0-1.55"/><path class="cls-1" d="M344.17,379.17c-4.49-15.94-42.44-21.46-42.75-21.51"/><polyline class="cls-1" points="300.83 317.17 300.93 317.17 300.83 309.17 210.83 309.17 210.83 317.17"/><path class="cls-1" d="M170.83,383.39a3.23,3.23,0,0,0,0,.44"/><path class="cls-1" d="M170.83,383.83c.67,9.34,32,25.34,88,25.34s85.34-14,85.34-22"/><line class="cls-1" x1="301.41" y1="357" x2="301.34" y2="352.37"/><polyline class="cls-1" points="301.42 357.66 301.41 357 301.4 357"/><path class="cls-1" d="M177.33,384c11.9,8.37,39.88,17.21,81.5,17.21,39.72,0,67.1-7.2,78.9-14.13"/><polyline class="cls-1" points="301.4 357 301.34 352.37 300.83 317.17 210.83 317.17 210.83 357"/><path class="cls-1" d="M338.68,379.06C330,371.44,313,363.17,301.5,363.17l-.08-5.51h0V357H210.83v8.17s-20.59,4.72-32.22,10.81"/><line class="cls-1" x1="170.83" y1="375.83" x2="170.83" y2="383.39"/><line class="cls-1" x1="344.17" y1="387.17" x2="344.17" y2="380.72"/><path class="cls-1" d="M342.62,383.31a6.33,6.33,0,0,0,1.55-2.59v-1.55l-5.49-.11"/><path class="cls-1" d="M178.61,376l-7.78-.15a7.6,7.6,0,0,0,1.95,4.09"/><path class="cls-1" d="M337.73,387l6.44.13a7.06,7.06,0,0,0-1.55-3.86"/><path class="cls-1" d="M172.78,379.92a5.61,5.61,0,0,0-1.95,3.47v.44l6.5.13"/><path class="cls-1" d="M172.78,379.92a23.13,23.13,0,0,0,4.55,4L337.73,387a20.84,20.84,0,0,0,4.89-3.73,24.65,24.65,0,0,0-3.94-4.25L178.61,376A25.38,25.38,0,0,0,172.78,379.92Z"/></g></g></svg>