<svg xmlns="http://www.w3.org/2000/svg" viewBox="0 0 33.36 68.78"><defs><style>.cls-1{fill:#fff;}.cls-2,.cls-3{fill:none;stroke:#1d1d1b;stroke-miterlimit:10;}.cls-2{stroke-width:0.2px;}.cls-3{stroke-width:0.1px;}</style></defs><title>mobil_ikon</title><g id="Layer_2" data-name="Layer 2"><g id="Layer_2-2" data-name="Layer 2"><path d="M33.41,59.26v5.66c0,2.91-4.08,3.91-4.08,3.91H16.91V67.54a3.22,3.22,0,1,0,0-6.43V59.79H31a.53.53,0,0,0,.53-.53Z" transform="translate(-0.15 -0.15)"/><path d="M33.41,4V59.26H31.52V9A.53.53,0,0,0,31,8.5H19.72V6.13c.3,0,.38-.13.38-.33V5.38a.29.29,0,0,0-.33-.33H16.93V3.79a.8.8,0,0,0,0-1.6V.25H29.08C32.58.25,33.41,4,33.41,4Z" transform="translate(-0.15 -0.15)"/><path class="cls-1" d="M20.1,5.38V5.8c0,.2-.08.33-.38.33H14.09c-.36,0-.36-.28-.36-.28V5.36c0-.3.32-.31.36-.31h5.68A.29.29,0,0,1,20.1,5.38Z" transform="translate(-0.15 -0.15)"/><path d="M19.72,6.13V8.5H2.8A.53.53,0,0,0,2.27,9V59.26h-2V4.83c0-4.16,5-4.58,5-4.58H16.93V2.19a.8.8,0,0,0,0,1.6V5.05H14.09s-.36,0-.36.31v.49s0,.28.36.28Z" transform="translate(-0.15 -0.15)"/><path class="cls-1" d="M16.91,61.11a3.22,3.22,0,1,1,0,6.43,3.22,3.22,0,1,1,0-6.43Z" transform="translate(-0.15 -0.15)"/><circle class="cls-1" cx="16.78" cy="2.84" r="0.8"/><path d="M16.91,67.54v1.29H4.66C.25,68.83.25,63.75.25,63.75V59.26h2a.53.53,0,0,0,.53.53H16.91v1.32a3.22,3.22,0,1,0,0,6.43Z" transform="translate(-0.15 -0.15)"/><path class="cls-2" d="M33.41,59.26V4S32.58.25,29.08.25H5.25s-5,.42-5,4.58V63.75s0,5.08,4.41,5.08H29.33s4.08-1,4.08-3.91Z" transform="translate(-0.15 -0.15)"/><path class="cls-3" d="M31.52,59.26a.53.53,0,0,1-.53.53H2.8a.53.53,0,0,1-.53-.53V9A.53.53,0,0,1,2.8,8.5H31a.53.53,0,0,1,.53.53Z" transform="translate(-0.15 -0.15)"/><path class="cls-3" d="M16.93,5.05H14.09s-.36,0-.36.31v.49s0,.28.36.28h5.63c.3,0,.38-.13.38-.33V5.38a.29.29,0,0,0-.33-.33Z" transform="translate(-0.15 -0.15)"/><circle class="cls-3" cx="16.78" cy="2.84" r="0.8"/><path class="cls-3" d="M16.91,61.11a3.22,3.22,0,1,0,0,6.43,3.22,3.22,0,1,0,0-6.43Z" transform="translate(-0.15 -0.15)"/></g></g></svg>