<?xml version="1.0" encoding="iso-8859-1"?>
<!-- Generator: Adobe Illustrator 16.0.0, SVG Export Plug-In . SVG Version: 6.00 Build 0)  -->
<!DOCTYPE svg PUBLIC "-//W3C//DTD SVG 1.1//EN" "http://www.w3.org/Graphics/SVG/1.1/DTD/svg11.dtd">
<svg version="1.1" id="flatmountainproduction_x5F_logo_xA0_Image_1_"
	 xmlns="http://www.w3.org/2000/svg" xmlns:xlink="http://www.w3.org/1999/xlink" x="0px" y="0px" width="615.96px"
	 height="264.6px" viewBox="0 0 615.96 264.6" style="enable-background:new 0 0 615.96 264.6;" xml:space="preserve">
<g>
	<path style="fill:#FFFFFF;" d="M4.195,275.21c0-88.2,0-176.4,0-264.6c205.44,0,410.879,0,616.319,0c0,88.2,0,176.4,0,264.6
		C415.074,275.21,209.635,275.21,4.195,275.21z M251.349,114.354c-4.756-1.268-9.989-2.679-15.231-4.053
		c-2.418-0.634-4.75-0.662-7.13,0.486c-5.58,2.691-11.289,5.117-16.863,7.818c-7.245,3.511-14.357,7.299-21.635,10.739
		c-3.641,1.721-7.2,3.407-11.716,2.565c-6.018-1.122-12.232-1.154-18.348-1.794c-8.869-0.928-17.742-1.849-26.572-3.071
		c-2.306-0.319-4.113-0.014-6.021,1.128c-3.612,2.162-7.258,4.273-10.964,6.27c-2.768,1.492-5.686,2.704-8.474,4.162
		c-4.428,2.315-8.786,4.764-13.208,7.092c-2.2,1.159-4.53,2.074-6.702,3.28c-4.514,2.506-8.935,5.181-13.443,7.697
		c-7.065,3.945-14.231,7.713-21.231,11.771c-2.76,1.599-5.203,3.752-7.745,5.712c-0.334,0.258-0.658,0.993-0.519,1.287
		c0.179,0.381,0.812,0.701,1.28,0.75c0.554,0.058,1.19-0.099,1.706-0.342c2.494-1.175,4.972-2.386,7.431-3.631
		c6.513-3.296,13.056-6.536,19.5-9.961c3.183-1.691,6.083-3.914,9.276-5.582c4.416-2.308,8.989-4.312,13.488-6.459
		c3.221-1.538,6.414-3.136,9.649-4.643c4.983-2.323,10.013-4.543,14.981-6.897c3.922-1.859,7.739-3.945,11.689-5.739
		c1.385-0.629,3.057-1.059,4.549-0.942c5.762,0.45,11.517,1.054,17.25,1.796c6.486,0.839,13.067,1.072,19.401,2.962
		c1.244,0.371,2.585,0.486,3.891,0.559c1.071,0.061,2.223,0.09,3.22-0.234c2.229-0.726,4.363-1.737,6.574-2.525
		c2.092-0.745,4.307-1.184,6.338-2.058c5.247-2.257,10.423-4.681,15.628-7.036c0.972-0.44,1.926-0.932,2.927-1.292
		c2.961-1.067,5.928-2.122,8.918-3.103c3.348-1.098,6.231-3.364,9.94-3.635c1.358-0.1,2.646-1.16,4.397-1.986
		c3.304,1,7.152,2.251,11.055,3.292c1.147,0.306,2.558,0.315,3.665-0.069c2.021-0.701,4.048-1.527,5.52-3.281
		c0.601-0.715,1.441-1.245,2.22-1.791c5.008-3.506,10.058-6.953,15.037-10.5c3.731-2.658,7.356-5.466,11.064-8.156
		c5.923-4.297,12.041-8.278,18.676-11.42c1.109-0.525,2.042-1.422,3.153-1.941c3.38-1.579,6.907-2.869,10.19-4.622
		c4.081-2.18,8.106-3.9,12.803-2.148c0.543,0.203,1.205,0.079,1.758,0.267c2.549,0.865,5.291,1.429,7.562,2.778
		c2.822,1.678,5.232,4.043,7.853,6.07c1.733,1.341,3.646,2.476,5.261,3.941c3.418,3.103,6.652,6.407,10.043,9.54
		c2.179,2.012,4.435,3.956,6.78,5.767c2.38,1.837,4.804,3.671,7.42,5.127c1.597,0.888,3.725,0.791,5.378,1.61
		c2.976,1.475,5.701,0.909,8.557-0.182c0.538-0.206,1.584,0.076,1.981,0.511c0.871,0.953,1.451,2.167,2.198,3.241
		c1.039,1.494,1.92,3.182,3.24,4.375c1.686,1.523,3.849,2.506,5.613,3.957c2.498,2.054,4.814,4.329,7.226,6.49
		c0.273,0.245,0.663,0.531,0.989,0.52c4.384-0.158,8.765-0.388,13.148-0.554c4.154-0.158,8.31-0.269,12.465-0.379
		c0.591-0.016,1.349-0.133,1.747,0.169c1.9,1.441,3.787,2.922,5.519,4.558c1.855,1.753,3.364,3.901,5.327,5.506
		c2.997,2.447,6.448,4.355,9.347,6.901c2.949,2.591,6.252,2.923,9.818,2.688c4.694-0.311,9.391-0.609,14.074-1.046
		c4.151-0.387,8.289-0.93,12.428-1.449c3.306-0.414,6.593-1.151,9.906-1.293c5.796-0.246,11.617-0.372,17.406-0.103
		c3.223,0.15,6.416,1.149,9.6,1.868c2.026,0.457,4.037,1.021,6.008,1.679c3.431,1.146,6.828,2.395,10.231,3.626
		c0.322,0.116,0.613,0.382,0.859,0.636c3.361,3.479,7.797,5.198,12.017,7.229c3.742,1.801,7.678,3.201,11.401,5.035
		c4.193,2.065,7.98,4.676,10.338,8.972c1.305,2.38,2.143,2.577,4.84,1.74c0.482-0.15,1.172-0.642,1.197-1.014
		c0.037-0.541-0.349-1.193-0.725-1.661c-0.511-0.635-1.423-1.027-1.745-1.718c-1.774-3.801-4.511-6.715-8.056-8.837
		c-1.875-1.122-3.944-1.918-5.921-2.872c-6.269-3.025-11.558-7.493-17.075-11.621c-0.369-0.275-0.592-0.738-0.938-1.053
		c-0.653-0.593-1.267-1.315-2.04-1.677c-2.748-1.284-5.507-2.571-8.355-3.597c-2.103-0.758-4.325-1.352-6.54-1.58
		c-2.703-0.278-5.459,0.016-8.182-0.135c-9.306-0.513-18.616-0.823-27.894,0.227c-5.268,0.597-10.47,1.766-15.733,2.404
		c-5.798,0.705-11.63,1.139-17.454,1.608c-2.824,0.229-5.39-0.464-7.703-2.278c-3.193-2.504-6.654-4.676-9.767-7.27
		c-1.799-1.499-3.353-3.408-4.637-5.379c-2.267-3.48-4.622-6.488-9.416-5.837c-1.939,0.263-3.913,0.261-5.866,0.435
		c-5.228,0.466-10.447,1.037-15.683,1.39c-1.277,0.086-2.864-0.147-3.849-0.865c-1.908-1.395-3.508-3.219-5.205-4.897
		c-4.212-4.165-8.925-7.868-11.973-13.111c-0.348-0.597-1.154-0.953-1.792-1.351c-1.777-1.111-3.617-0.506-5.314,0.097
		c-3.493,1.242-6.859,1.378-10.121-0.563c-0.575-0.342-0.935-1.029-1.481-1.439c-3.491-2.61-7.034-5.152-10.51-7.783
		c-5.356-4.057-9.47-9.493-15.061-13.34c-5.236-3.604-9.367-8.81-15.981-10.384c-3.11-0.74-6.032-2.36-9.157-2.931
		c-4.036-0.736-8.129-0.024-11.822,1.782c-4.965,2.427-9.933,4.918-14.61,7.843c-4.719,2.951-9.14,6.395-13.591,9.756
		c-4.048,3.056-7.93,6.332-11.945,9.434c-3.016,2.331-6.117,4.553-9.197,6.8c-3.177,2.316-6.434,4.528-9.54,6.935
		C254.152,111.26,252.95,112.747,251.349,114.354z M572.141,217.427c-3.114-1.97-4.667-4.751-6.451-7.298
		c-1.852-2.644-4.144-4.742-6.929-6.34c-1.486-0.853-2.877-0.004-4.283,0.251c-0.255,0.047-0.551,0.755-0.554,1.159
		c-0.02,2.44,0.045,4.882,0.073,7.323c0.025,2.187-0.041,4.377,0.089,6.557c0.089,1.508,0.156,3.141,0.793,4.442
		c0.343,0.701,1.866,0.824,2.856,1.208c0.096-0.779,0.233-1.558,0.274-2.34c0.049-0.937,0.021-1.877,0.014-2.815
		c-0.015-1.719,0.018-3.44-0.074-5.156c-0.122-2.285-0.343-4.566-0.522-6.849c0.162-0.071,0.324-0.142,0.486-0.213
		c0.502,0.366,1.101,0.65,1.489,1.112c3.257,3.872,6.46,7.789,9.71,11.667c1.717,2.05,3.292,4.299,6.076,5.069
		c1.488,0.411,2.231-0.116,2.126-1.636c-0.063-0.917-0.552-1.801-0.637-2.719c-0.397-4.288-0.736-8.581-1.061-12.875
		c-0.067-0.89,0.112-1.801,0.013-2.684c-0.146-1.289-0.844-2.224-2.208-2.433c-1.29-0.198-1.678,0.727-1.805,1.72
		c-0.14,1.091-0.204,2.209-0.144,3.307C571.646,210.961,571.898,214.032,572.141,217.427z M164.893,211.04
		c0.273,0.064,0.546,0.128,0.819,0.19c0,2.318-0.044,4.638,0.018,6.954c0.033,1.245,0.102,2.529,0.455,3.706
		c0.129,0.434,1.365,1.012,1.674,0.825c0.926-0.561,1.691-1.32,1.529-2.729c-0.333-2.895-0.564-5.813-0.613-8.727
		c-0.048-2.859,0.174-5.725,0.295-8.587c0.057-1.359-0.501-2.396-1.808-2.72c-1.451-0.357-1.742,0.799-2.067,1.89
		c-0.268,0.901-0.728,1.743-1.073,2.623c-1.535,3.915-3.059,7.835-4.685,12.005c-0.471-0.521-0.825-0.769-0.979-1.106
		c-1.696-3.724-3.346-7.468-5.043-11.189c-0.469-1.028-1.012-2.028-1.597-2.996c-0.549-0.909-1.276-1.201-2.417-0.844
		c-1.749,0.547-1.604,1.879-1.6,3.184c0.012,4.775,0.035,9.551,0.101,14.326c0.01,0.763,0.093,1.623,0.46,2.251
		c0.296,0.506,1.099,1.03,1.631,0.987c0.486-0.039,1.268-0.804,1.303-1.293c0.169-2.375,0.139-4.764,0.164-7.148
		c0.016-1.546,0.003-3.093,0.003-4.64c0.178-0.025,0.357-0.05,0.536-0.074c0.305,0.687,0.686,1.351,0.903,2.063
		c1.153,3.786,2.82,7.325,5.173,10.501c0.416,0.562,1.382,0.954,2.097,0.959c0.391,0.002,0.953-0.915,1.151-1.513
		c0.465-1.401,0.606-2.92,1.157-4.277C163.131,214.059,164.076,212.575,164.893,211.04z M332.962,216.761
		c-1.145-0.939-2.034-1.512-2.725-2.266c-2.068-2.259-4.071-4.577-6.065-6.902c-0.255-0.297-0.302-0.77-0.452-1.157
		c-0.736-1.893-1.74-3.583-3.766-4.31c-0.768-0.275-1.951-0.685-2.372-0.337c-0.665,0.548-1.055,1.654-1.179,2.576
		c-0.131,0.97,0.275,1.999,0.294,3.005c0.075,3.934,0.104,7.868,0.119,11.803c0.006,1.581,0.872,2.245,2.321,2.304
		c1.538,0.062,1.52-1.076,1.477-2.107c-0.066-1.604-0.277-3.202-0.329-4.807c-0.06-1.852-0.014-3.706-0.014-5.559
		c0.165-0.029,0.33-0.059,0.496-0.088c1.222,1.43,2.364,2.938,3.683,4.273c2.698,2.731,5.424,5.446,8.299,7.984
		c0.629,0.555,2.281,0.799,2.843,0.371c0.735-0.561,1.147-1.919,1.182-2.951c0.07-2.195-0.161-4.404-0.326-6.603
		c-0.192-2.547-0.423-5.092-0.683-7.633c-0.14-1.368-1.545-2.701-2.629-2.394c-1.315,0.374-1.556,1.489-1.401,2.721
		c0.045,0.355,0.074,0.712,0.11,1.067C332.204,209.278,332.561,212.805,332.962,216.761z M230.145,205.448
		c0.188-0.035,0.376-0.069,0.564-0.104c0.168,0.15,0.354,0.286,0.501,0.455c1.404,1.6,2.799,3.207,4.202,4.808
		c0.581,0.662,1.18,1.308,1.759,1.972c2.452,2.81,4.825,5.693,7.38,8.405c1.175,1.248,3.447,0.924,3.562-0.308
		c0.141-1.501,0.155-3.031,0.04-4.535c-0.321-4.19-0.689-8.379-1.144-12.556c-0.126-1.16-0.429-2.458-2.019-2.547
		c-1.32-0.075-1.646,1.024-1.653,1.903c-0.013,1.534,0.305,3.07,0.482,4.606c0.322,2.798,0.642,5.597,1.016,8.854
		c-3.271-3.052-4.804-6.857-8.109-9.241c-1.808-1.303-2.917-3.538-4.585-5.091c-0.722-0.672-2.083-0.992-3.111-0.914
		c-1.341,0.101-1.958,1.286-1.927,2.619c0.021,0.887,0.295,1.767,0.324,2.654c0.14,4.177,0.26,8.355,0.328,12.534
		c0.021,1.253,0.689,1.787,1.773,1.757c1.146-0.031,1.183-0.926,1.128-1.834c-0.187-3.07-0.367-6.141-0.501-9.213
		C230.094,208.268,230.145,206.857,230.145,205.448z M426.634,213.105c-0.049,0.003-0.098,0.007-0.146,0.01
		c0,1.257-0.142,2.534,0.035,3.766c0.218,1.513,0.067,3.27,1.953,4.049c2.781,1.148,5.529,2.344,8.316,0.008
		c0.252-0.211,0.694-0.174,1.021-0.316c2.469-1.07,4.678-2.617,4.593-5.534c-0.103-3.547-0.658-7.124-3.481-9.766
		c-1.717-1.606-3.348-3.403-5.327-4.602c-1.593-0.965-3.622-1.367-5.512-1.622c-1.241-0.168-1.831,0.827-1.547,2.19
		c0.149,0.721,0.121,1.494,0.065,2.236c-0.094,1.231-0.408,2.459-0.387,3.685C426.252,209.177,426.485,211.141,426.634,213.105z
		 M401.847,211.882c0.472,5.807,1.505,7.944,6.906,9.393c2.907,0.779,5.869-0.162,8.605-1.53c2.957-1.479,4.547-4.835,4.207-8.126
		c-0.354-3.414-2.354-5.801-4.762-7.663c-1.609-1.244-4.07-2.292-5.986-2.062C405.527,202.529,402.085,205.86,401.847,211.882z
		 M549.426,212.688c-0.118-2.657-0.354-5.496-2.689-7.044c-2.125-1.408-4.66-2.544-7.156-2.968c-4.501-0.764-8.34,2.488-8.794,7.346
		c-0.462,4.938,0.494,7.857,4.203,9.784c0.686,0.356,1.41,0.662,2.035,1.107c1.648,1.172,3.361,1.06,5.124,0.382
		c0.668-0.257,1.3-0.613,1.979-0.835C547.19,219.458,549.636,215.893,549.426,212.688z M281.22,214.861
		c1.765,0,3.367,0.075,4.958-0.021c1.651-0.099,3.289-0.438,4.939-0.501c0.413-0.016,1.044,0.534,1.244,0.975
		c0.881,1.935,1.571,3.96,2.491,5.874c0.255,0.531,1.039,1.038,1.629,1.103c0.436,0.047,1.141-0.54,1.398-1.021
		c0.939-1.748,0.169-3.393-0.744-4.837c-1.253-1.979-2.082-4.261-4.082-5.758c-0.613-0.459-0.857-1.397-1.302-2.096
		c-0.575-0.9-1.194-1.771-1.77-2.672c-0.623-0.972-1.311-1.917-1.8-2.953c-0.742-1.573-3.246-2.214-4.361-0.944
		c-0.82,0.935-1.602,1.959-2.147,3.068c-2.306,4.688-4.497,9.434-6.776,14.136c-0.572,1.181-0.305,1.885,0.849,2.439
		c1.093,0.527,1.875,0.512,2.458-0.735C279.152,218.886,280.199,216.898,281.22,214.861z M392.394,211.822
		c0.641-1.339,1.457-2.585,1.824-3.952c0.298-1.111,0.371-2.481-0.008-3.538c-0.95-2.649-3.294-3.597-5.816-4.51
		c-3.713-1.344-6.38,0.078-6.488,3.976c-0.062,2.259,0.089,4.523,0.15,6.786c0.076,2.745,0.131,5.492,0.25,8.235
		c0.062,1.422,1.204,2.398,2.576,2.324c1.729-0.093,1.304-1.296,1.231-2.348c-0.13-1.879-0.226-3.759-0.325-5.477
		c1.699-0.825,2.784,0.014,3.788,0.991c0.721,0.702,1.379,1.469,2.051,2.22c1.031,1.152,1.909,2.51,3.13,3.398
		c0.695,0.505,1.941,0.251,2.939,0.339c-0.124-0.8,0.006-1.784-0.418-2.365C395.711,215.757,393.962,213.746,392.394,211.822z
		 M187.816,219.405c2.871-0.321,6.297-0.583,8.556-3.896c1.203-1.764,0.98-3.555,0.888-5.465c-0.17-3.541-1.971-6.105-4.597-8.226
		c-4.214-3.402-12.883,1.414-13.866,5.61c-0.472,2.016-0.374,4.042,0.349,6.077C180.429,217.119,183.39,219.38,187.816,219.405z
		 M365.567,214.771c2.169-0.751,4.469-1.291,6.525-2.317c3.434-1.714,4.822-5.557,2.734-8.968c-1.182-1.93-3.108-2.573-4.911-3.366
		c-2.086-0.916-4.162-2.097-6.658-1.596c-1.201,0.241-1.846,0.842-1.897,1.982c-0.321,7.021,0.227,14.011,0.931,20.987
		c0.146,1.447,1.413,1.597,2.61,1.579c1.213-0.018,1.265-0.861,1.196-1.751C365.924,219.081,365.735,216.841,365.567,214.771z
		 M447.371,203.299c-0.264,0.715-0.837,1.492-0.767,2.207c0.388,3.955,1.006,7.888,1.403,11.843
		c0.377,3.747,2.659,5.418,6.066,6.146c3.221,0.688,6.877-0.335,8.192-2.625c2.899-5.051,2.342-10.272,0.397-15.448
		c-0.263-0.698-1.302-1.105-1.98-1.647c-0.471,0.804-1.317,1.6-1.336,2.413c-0.044,2.007,0.038,4.088,0.539,6.018
		c0.656,2.526-0.019,4.763-1.437,6.543c-0.733,0.92-2.621,1.119-4.023,1.247c-1.187,0.109-2.143-0.71-2.364-2.016
		c-0.633-3.722-1.36-7.434-1.797-11.18C450.051,204.966,449.487,203.751,447.371,203.299z M85.107,221.464
		c0.341,0.668,0.625,1.223,0.91,1.779c0.604-0.434,1.434-0.738,1.771-1.325c1.093-1.897,2.055-3.877,2.964-5.872
		c0.389-0.853,0.83-1.199,1.774-1.002c0.915,0.19,1.862,0.222,2.789,0.359c2.813,0.416,2.753,0.438,3.47,3.269
		c0.392,1.549,0.831,3.151,1.637,4.497c0.339,0.566,1.768,0.876,2.547,0.682c0.947-0.236,0.733-1.229,0.37-2.084
		c-1.268-2.991-2.574-5.975-3.666-9.031c-1.154-3.23-2.061-6.549-3.118-9.815c-0.344-1.063-0.678-2.52-2.096-2.214
		c-0.821,0.177-1.734,1.204-2.09,2.062c-1.901,4.592-3.642,9.25-5.433,13.888C86.33,218.228,85.738,219.806,85.107,221.464z
		 M501.208,223.541c-0.214-6.145-0.425-12.186-0.629-18.031c2.559-0.188,4.687-0.252,6.781-0.548c0.69-0.098,1.296-0.794,1.94-1.217
		c-0.55-0.702-0.995-1.544-1.686-2.059c-0.457-0.342-1.268-0.302-1.914-0.278c-1.553,0.057-3.106,0.333-4.652,0.288
		c-3.642-0.105-7.279-0.348-10.918-0.533c-1.382-0.07-2.474,0.581-2.547,1.895c-0.029,0.517,1.157,1.475,1.892,1.592
		c2.216,0.351,4.48,0.387,7.102,0.572c0.077,4.967,0.259,9.896,0.195,14.822C496.732,223.266,498.087,224.518,501.208,223.541z
		 M467.295,213.375c0.112,2.575-0.034,5.28,1.943,7.239c3.749,3.713,8.748,4.523,13.656,2.105c1.416-0.698,1.653-1.697,1.069-2.907
		c-0.591-1.225-1.896-1.272-3.234-0.68c-1.334,0.591-2.793,1.098-4.229,1.21c-2.27,0.176-4.908-1.81-5.224-3.592
		c-0.725-4.09,0.658-6.945,4.371-9.054c1.826-1.037,3.594-1.906,5.85-1.033c1.369,0.529,2.409-0.683,1.834-2.056
		c-0.282-0.675-1.023-1.357-1.716-1.627c-2.812-1.093-5.484-0.419-7.963,1.08C470.133,206.19,467.074,208.673,467.295,213.375z
		 M203.908,206.265c0.289,2.141,0.228,4.209,0.888,6.014c1.109,3.033,1.661,6.374,5.853,7.473c3.541,0.929,9.809-0.62,10.928-5.92
		c0.131-0.623,0.263-1.269,0.243-1.899c-0.089-2.83-0.133-5.667-0.399-8.482c-0.128-1.357-1.301-2.15-2.59-1.9
		c-1.474,0.287-1.386,1.76-1.128,2.8c0.665,2.686,0.08,5.298-0.045,7.955c-0.156,3.339-4.662,4.831-7.089,4.139
		c-0.26-0.074-0.568-0.318-0.668-0.56c-0.743-1.793-1.604-3.561-2.105-5.423c-0.585-2.174-0.797-4.444-1.28-6.649
		c-0.104-0.476-0.671-0.849-1.024-1.27c-0.399,0.365-1.009,0.661-1.155,1.108C204.049,204.528,204.021,205.491,203.908,206.265z
		 M53.574,203.928c0.653-0.055,1.181-0.126,1.709-0.138c2.303-0.051,4.617,0.026,6.904-0.186c0.776-0.072,1.963-0.73,2.128-1.345
		c0.358-1.333-0.951-1.231-1.798-1.245c-2.308-0.036-4.625,0.132-6.923-0.011c-3.702-0.229-5.027,0.848-4.908,4.564
		c0.154,4.821,0.372,9.645,0.729,14.454c0.109,1.48,0.636,2.976,1.236,4.35c0.218,0.498,1.206,0.66,1.842,0.976
		c0.189-0.626,0.526-1.248,0.541-1.878c0.06-2.745,0.026-5.493,0.026-8.253c1.834-0.138,3.788-0.197,5.707-0.485
		c0.544-0.082,1.239-0.762,1.386-1.299c0.095-0.345-0.6-1.086-1.1-1.359c-0.471-0.259-1.16-0.235-1.734-0.168
		c-1.646,0.191-3.282,0.467-4.983,0.72C54.081,209.713,53.833,206.878,53.574,203.928z M263.877,205.326
		c0.79,0,1.421,0.006,2.053-0.002c1.953-0.023,3.915,0.056,5.851-0.138c0.683-0.067,1.299-0.806,1.946-1.238
		c-0.571-0.638-1.072-1.368-1.742-1.875c-0.37-0.279-1.024-0.241-1.551-0.243c-3.131-0.009-6.263,0.059-9.393,0.008
		c-2.008-0.032-4.016-0.327-6.019-0.282c-0.661,0.016-1.862,0.76-1.843,1.118c0.04,0.729,0.662,1.494,1.204,2.103
		c0.26,0.293,0.875,0.331,1.34,0.37c1.523,0.129,3.052,0.206,4.698,0.31c0.115,1.606,0.275,3.138,0.323,4.674
		c0.091,2.918,0.047,5.843,0.207,8.756c0.059,1.075,0.278,2.27,1.92,2.237c1.7-0.034,1.718-1.096,1.644-2.31
		c-0.216-3.528-0.438-7.057-0.633-10.587C263.835,207.343,263.877,206.452,263.877,205.326z M113.419,203.152
		c-0.054,0.992-0.156,1.866-0.14,2.737c0.098,5.285,0.218,10.569,0.348,15.854c0.01,0.41,0.021,1.005,0.269,1.186
		c0.515,0.375,1.194,0.717,1.798,0.706c0.405-0.008,1.089-0.605,1.146-1.01c0.196-1.41,0.308-2.86,0.211-4.278
		c-0.342-5.017-0.784-10.026-1.204-15.229c1.048,0.078,2.455,0.244,3.863,0.268c1.111,0.018,2.248-0.037,3.326-0.273
		c0.398-0.087,0.905-0.777,0.92-1.208c0.015-0.437-0.422-1.054-0.835-1.297c-0.534-0.313-1.238-0.452-1.873-0.462
		c-4.42-0.071-8.842-0.09-13.263-0.122c-0.119,0-0.27-0.01-0.351,0.054c-0.63,0.491-1.247,1-1.868,1.504
		c0.551,0.524,1.064,1.444,1.66,1.5C109.427,203.271,111.457,203.152,113.419,203.152z M72.586,222.27
		c-0.325-3.798-0.601-7.345-0.939-10.885c-0.231-2.407-0.493-4.815-0.877-7.201c-0.078-0.485-0.767-0.871-1.175-1.302
		c-0.335,0.538-0.948,1.069-0.96,1.615c-0.076,3.229-0.056,6.462,0.018,9.692c0.066,2.863,0.22,5.727,0.385,8.587
		c0.082,1.407,0.646,2.268,2.312,2.333c2.507,0.1,5.002,0.618,7.506,0.647c0.92,0.011,2.533-0.741,2.642-1.355
		c0.269-1.521-1.081-2.019-2.46-2.084c-0.539-0.026-1.079-0.044-1.619-0.046C75.868,222.266,74.317,222.27,72.586,222.27z
		 M517.554,215.121c0.438,2.79,0.722,5.309,1.262,7.771c0.316,1.438,1.728,1.839,2.827,1.253c0.585-0.312,0.75-1.655,0.849-2.561
		c0.079-0.73-0.352-1.504-0.34-2.255c0.078-4.955-1.207-9.889-0.196-14.864c0.206-1.016-1.747-2.746-2.897-2.557
		c-1.251,0.207-1.55,1.157-1.527,2.382C517.596,207.98,517.554,211.672,517.554,215.121z M310.977,209.402
		c-0.066-0.015-0.134-0.03-0.2-0.045c-0.281-1.562-0.604-3.119-0.832-4.688c-0.212-1.456-1.032-2.5-2.437-2.247
		c-1.491,0.268-1.258,1.762-1.197,2.932c0.206,3.896,0.415,7.79,0.66,11.684c0.059,0.933,0.021,2.001,0.467,2.743
		c0.45,0.749,1.427,1.595,2.208,1.631c1.058,0.048,1.356-1.066,1.345-2.136C310.955,215.984,310.977,212.693,310.977,209.402z"/>
	<path style="fill-rule:evenodd;clip-rule:evenodd;" d="M251.349,114.354c1.601-1.608,2.803-3.095,4.273-4.234
		c3.106-2.407,6.362-4.619,9.54-6.935c3.081-2.247,6.181-4.469,9.197-6.8c4.015-3.102,7.897-6.377,11.945-9.434
		c4.451-3.361,8.872-6.805,13.591-9.756c4.678-2.925,9.646-5.416,14.61-7.843c3.693-1.806,7.786-2.518,11.822-1.782
		c3.125,0.57,6.047,2.19,9.157,2.931c6.614,1.574,10.745,6.781,15.981,10.384c5.591,3.847,9.704,9.283,15.061,13.34
		c3.476,2.631,7.019,5.173,10.51,7.783c0.547,0.41,0.906,1.097,1.481,1.439c3.262,1.941,6.628,1.805,10.121,0.563
		c1.697-0.604,3.537-1.208,5.314-0.097c0.638,0.398,1.444,0.754,1.792,1.351c3.048,5.243,7.761,8.946,11.973,13.111
		c1.697,1.678,3.297,3.502,5.205,4.897c0.984,0.718,2.571,0.951,3.849,0.865c5.235-0.353,10.455-0.924,15.683-1.39
		c1.953-0.174,3.927-0.172,5.866-0.435c4.794-0.651,7.149,2.357,9.416,5.837c1.284,1.972,2.838,3.881,4.637,5.379
		c3.112,2.594,6.573,4.766,9.767,7.27c2.313,1.814,4.879,2.507,7.703,2.278c5.824-0.47,11.656-0.903,17.454-1.608
		c5.264-0.639,10.466-1.808,15.733-2.404c9.277-1.05,18.588-0.739,27.894-0.227c2.723,0.15,5.479-0.144,8.182,0.135
		c2.215,0.229,4.438,0.822,6.54,1.58c2.849,1.025,5.607,2.312,8.355,3.597c0.773,0.361,1.387,1.084,2.04,1.677
		c0.347,0.314,0.569,0.777,0.938,1.053c5.518,4.128,10.807,8.596,17.075,11.621c1.977,0.954,4.046,1.75,5.921,2.872
		c3.545,2.122,6.281,5.036,8.056,8.837c0.322,0.69,1.234,1.083,1.745,1.718c0.376,0.468,0.762,1.12,0.725,1.661
		c-0.025,0.372-0.715,0.863-1.197,1.014c-2.697,0.837-3.535,0.64-4.84-1.74c-2.357-4.296-6.145-6.906-10.338-8.972
		c-3.724-1.834-7.659-3.234-11.401-5.035c-4.22-2.03-6.538-4.235-12.017-7.229s-7.66-3.116-11.091-4.262
		c-1.971-0.658-3.981-1.222-6.008-1.679c-3.184-0.719-6.377-1.718-9.6-1.868c-5.789-0.27-11.61-0.144-17.406,0.103
		c-3.313,0.142-6.601,0.879-9.906,1.293c-4.139,0.52-8.276,1.062-12.428,1.449c-4.684,0.437-9.38,0.735-14.074,1.046
		c-3.566,0.235-6.869-0.097-9.818-2.688c-2.898-2.546-6.35-4.454-9.347-6.901c-1.963-1.604-3.472-3.753-5.327-5.506
		c-1.731-1.636-3.618-3.117-5.519-4.558c-0.398-0.302-1.156-0.185-1.747-0.169c-4.155,0.11-8.311,0.222-12.465,0.379
		c-4.384,0.166-8.765,0.396-13.148,0.554c-0.326,0.011-0.716-0.275-0.989-0.52c-2.411-2.161-4.728-4.436-7.226-6.49
		c-1.765-1.45-3.928-2.433-5.613-3.957c-1.32-1.193-2.201-2.881-3.24-4.375c-0.747-1.074-1.327-2.288-2.198-3.241
		c-0.397-0.435-1.443-0.716-1.981-0.511c-2.855,1.091-5.581,1.657-8.557,0.182c-1.653-0.82-3.781-0.723-5.378-1.61
		c-2.616-1.456-5.04-3.29-7.42-5.127c-2.346-1.812-4.602-3.755-6.78-5.767c-3.391-3.133-6.625-6.437-10.043-9.54
		c-1.615-1.466-3.527-2.6-5.261-3.941c-2.62-2.027-5.03-4.393-7.853-6.07c-2.271-1.349-5.013-1.914-7.562-2.778
		c-0.553-0.188-1.215-0.064-1.758-0.267c-4.696-1.752-8.722-0.032-12.803,2.148c-3.283,1.753-6.811,3.043-10.19,4.622
		c-1.111,0.519-2.044,1.416-3.153,1.941c-6.635,3.143-12.753,7.124-18.676,11.42c-3.708,2.69-7.333,5.498-11.064,8.156
		c-4.979,3.547-10.029,6.994-15.037,10.5c-0.779,0.545-1.62,1.076-2.22,1.791c-1.472,1.753-3.499,2.58-5.52,3.281
		c-1.107,0.384-2.518,0.375-3.665,0.069c-3.903-1.041-7.751-2.292-11.055-3.292c-1.752,0.826-3.04,1.887-4.397,1.986
		c-3.709,0.271-6.593,2.538-9.94,3.635c-2.991,0.98-5.958,2.036-8.918,3.103c-1.001,0.36-1.955,0.853-2.927,1.292
		c-5.205,2.355-10.381,4.779-15.628,7.036c-2.032,0.874-4.246,1.312-6.338,2.058c-2.21,0.788-4.345,1.8-6.574,2.525
		c-0.997,0.324-2.149,0.295-3.22,0.234c-1.306-0.072-2.647-0.188-3.891-0.559c-6.334-1.89-12.915-2.123-19.401-2.962
		c-5.733-0.742-11.488-1.347-17.25-1.796c-1.492-0.117-3.164,0.313-4.549,0.942c-3.95,1.794-7.767,3.88-11.689,5.739
		c-4.968,2.354-9.998,4.574-14.981,6.897c-3.235,1.507-6.428,3.104-9.649,4.643c-4.499,2.147-9.073,4.151-13.488,6.459
		c-3.193,1.668-6.094,3.891-9.276,5.582c-6.445,3.425-12.988,6.665-19.5,9.961c-2.459,1.245-4.938,2.456-7.431,3.631
		c-0.516,0.243-1.152,0.399-1.706,0.342c-0.468-0.049-1.101-0.369-1.28-0.75c-0.139-0.294,0.184-1.029,0.519-1.287
		c2.542-1.96,4.985-4.113,7.745-5.712c7-4.058,14.166-7.825,21.231-11.771c4.508-2.517,8.929-5.191,13.443-7.697
		c2.171-1.206,4.502-2.121,6.702-3.28c4.421-2.328,8.78-4.776,13.208-7.092c2.788-1.458,5.706-2.67,8.474-4.162
		c3.706-1.997,7.352-4.108,10.964-6.27c1.908-1.142,3.716-1.447,6.021-1.128c8.83,1.222,17.704,2.143,26.572,3.071
		c6.116,0.64,12.331,0.672,18.348,1.794c4.516,0.842,8.076-0.844,11.716-2.565c7.277-3.44,14.39-7.229,21.635-10.739
		c5.575-2.701,11.283-5.127,16.863-7.818c2.38-1.148,4.711-1.12,7.13-0.486C241.36,111.675,246.593,113.086,251.349,114.354z"/>
	<path style="fill-rule:evenodd;clip-rule:evenodd;" d="M572.141,217.427c-0.243-3.395-0.495-6.466-0.667-9.541
		c-0.061-1.098,0.004-2.216,0.144-3.307c0.127-0.993,0.515-1.918,1.805-1.72c1.364,0.209,2.062,1.144,2.208,2.433
		c0.1,0.883-0.08,1.794-0.013,2.684c0.324,4.294,0.663,8.587,1.061,12.875c0.085,0.918,0.573,1.802,0.637,2.719
		c0.105,1.52-0.638,2.047-2.126,1.636c-2.784-0.771-4.359-3.02-6.076-5.069c-3.25-3.878-6.453-7.795-9.71-11.667
		c-0.389-0.462-0.987-0.746-1.489-1.112c-0.162,0.071-0.324,0.142-0.486,0.213c0.18,2.282,0.4,4.563,0.522,6.849
		c0.092,1.716,0.06,3.438,0.074,5.156c0.008,0.938,0.035,1.879-0.014,2.815c-0.041,0.782-0.179,1.561-0.274,2.34
		c-0.99-0.384-2.514-0.507-2.856-1.208c-0.637-1.302-0.704-2.935-0.793-4.442c-0.13-2.18-0.063-4.37-0.089-6.557
		c-0.028-2.441-0.093-4.883-0.073-7.323c0.003-0.404,0.299-1.112,0.554-1.159c1.406-0.255,2.797-1.104,4.283-0.251
		c2.785,1.598,5.077,3.696,6.929,6.34C567.474,212.676,569.027,215.457,572.141,217.427z"/>
	<path style="fill-rule:evenodd;clip-rule:evenodd;" d="M164.893,211.04c-0.817,1.535-1.762,3.019-2.413,4.621
		c-0.551,1.357-0.692,2.876-1.157,4.277c-0.198,0.598-0.76,1.515-1.151,1.513c-0.715-0.005-1.681-0.397-2.097-0.959
		c-2.353-3.176-4.02-6.715-5.173-10.501c-0.217-0.713-0.598-1.377-0.903-2.063c-0.179,0.024-0.357,0.049-0.536,0.074
		c0,1.547,0.013,3.094-0.003,4.64c-0.024,2.385,0.006,4.773-0.164,7.148c-0.035,0.489-0.817,1.254-1.303,1.293
		c-0.533,0.043-1.335-0.481-1.631-0.987c-0.368-0.628-0.45-1.488-0.46-2.251c-0.066-4.775-0.089-9.551-0.101-14.326
		c-0.003-1.305-0.148-2.637,1.6-3.184c1.141-0.357,1.868-0.065,2.417,0.844c0.584,0.968,1.128,1.968,1.597,2.996
		c1.698,3.722,3.348,7.466,5.043,11.189c0.154,0.338,0.507,0.585,0.979,1.106c1.626-4.17,3.15-8.09,4.685-12.005
		c0.345-0.88,0.805-1.722,1.073-2.623c0.325-1.091,0.616-2.247,2.067-1.89c1.307,0.323,1.865,1.36,1.808,2.72
		c-0.121,2.862-0.343,5.728-0.295,8.587c0.048,2.913,0.279,5.832,0.613,8.727c0.162,1.409-0.603,2.169-1.529,2.729
		c-0.309,0.187-1.545-0.392-1.674-0.825c-0.353-1.177-0.422-2.461-0.455-3.706c-0.062-2.316-0.018-4.636-0.018-6.954
		C165.439,211.168,165.166,211.104,164.893,211.04z"/>
	<path style="fill-rule:evenodd;clip-rule:evenodd;" d="M332.962,216.761c-0.401-3.956-0.759-7.482-1.117-11.008
		c-0.036-0.355-0.065-0.712-0.11-1.067c-0.154-1.231,0.086-2.347,1.401-2.721c1.084-0.308,2.489,1.025,2.629,2.394
		c0.26,2.541,0.49,5.086,0.683,7.633c0.165,2.198,0.396,4.407,0.326,6.603c-0.034,1.032-0.446,2.391-1.182,2.951
		c-0.562,0.428-2.214,0.184-2.843-0.371c-2.875-2.538-5.601-5.253-8.299-7.984c-1.318-1.335-2.461-2.844-3.683-4.273
		c-0.166,0.029-0.331,0.059-0.496,0.088c0,1.853-0.046,3.707,0.014,5.559c0.052,1.604,0.263,3.203,0.329,4.807
		c0.043,1.031,0.062,2.17-1.477,2.107c-1.449-0.059-2.315-0.723-2.321-2.304c-0.015-3.935-0.044-7.869-0.119-11.803
		c-0.019-1.006-0.425-2.035-0.294-3.005c0.124-0.922,0.514-2.028,1.179-2.576c0.421-0.348,1.604,0.062,2.372,0.337
		c2.025,0.727,3.029,2.417,3.766,4.31c0.15,0.388,0.197,0.86,0.452,1.157c1.994,2.325,3.997,4.644,6.065,6.902
		C330.928,215.249,331.818,215.821,332.962,216.761z"/>
	<path style="fill-rule:evenodd;clip-rule:evenodd;" d="M230.145,205.448c0,1.409-0.051,2.819,0.011,4.226
		c0.134,3.072,0.314,6.143,0.501,9.213c0.055,0.908,0.019,1.803-1.128,1.834c-1.084,0.03-1.753-0.504-1.773-1.757
		c-0.068-4.179-0.188-8.357-0.328-12.534c-0.029-0.888-0.304-1.768-0.324-2.654c-0.03-1.333,0.586-2.519,1.927-2.619
		c1.029-0.078,2.39,0.242,3.111,0.914c1.668,1.553,2.777,3.788,4.585,5.091c3.305,2.384,4.838,6.189,8.109,9.241
		c-0.374-3.258-0.693-6.057-1.016-8.854c-0.177-1.536-0.495-3.072-0.482-4.606c0.007-0.879,0.333-1.979,1.653-1.903
		c1.59,0.089,1.893,1.387,2.019,2.547c0.455,4.177,0.823,8.365,1.144,12.556c0.115,1.504,0.101,3.034-0.04,4.535
		c-0.115,1.231-2.388,1.556-3.562,0.308c-2.556-2.712-4.929-5.596-7.38-8.405c-0.579-0.664-1.179-1.31-1.759-1.972
		c-1.403-1.601-2.798-3.208-4.202-4.808c-0.148-0.169-0.333-0.305-0.501-0.455C230.521,205.379,230.333,205.413,230.145,205.448z"/>
	<path style="fill-rule:evenodd;clip-rule:evenodd;" d="M426.634,213.105c-0.149-1.965-0.382-3.929-0.416-5.896
		c-0.021-1.226,0.293-2.453,0.387-3.685c0.056-0.742,0.084-1.516-0.065-2.236c-0.284-1.363,0.306-2.358,1.547-2.19
		c1.89,0.255,3.919,0.657,5.512,1.622c1.979,1.198,3.61,2.995,5.327,4.602c2.823,2.642,3.379,6.219,3.481,9.766
		c0.085,2.917-2.124,4.464-4.593,5.534c-0.327,0.143-0.77,0.105-1.021,0.316c-2.787,2.336-5.535,1.141-8.316-0.008
		c-1.886-0.779-1.735-2.536-1.953-4.049c-0.177-1.231-0.035-2.509-0.035-3.766C426.537,213.112,426.585,213.108,426.634,213.105z
		 M430.36,202.756c0,5.006-0.05,9.761,0.074,14.511c0.014,0.489,1.287,1.473,1.598,1.341c1.978-0.846,3.892-1.872,5.726-3.003
		c0.422-0.26,0.723-1.215,0.613-1.755c-0.624-3.083-1.112-6.264-4.051-8.234C433.092,204.792,431.92,203.887,430.36,202.756z"/>
	<path style="fill-rule:evenodd;clip-rule:evenodd;" d="M401.847,211.882c0.238-6.021,3.68-9.353,8.971-9.988
		c1.916-0.23,4.377,0.817,5.986,2.062c2.408,1.862,4.408,4.249,4.762,7.663c0.34,3.291-1.25,6.646-4.207,8.126
		c-2.736,1.368-5.698,2.31-8.605,1.53C403.352,219.826,402.319,217.688,401.847,211.882z M409.959,217.86
		c0.058,0.144,0.114,0.287,0.172,0.431c1.952-0.781,4.038-1.338,5.822-2.402c2.059-1.228,2.16-5.062,0.52-7.041
		c-1.175-1.417-2.663-2.107-4.367-2.798c-1.612-0.653-2.847-0.436-3.677,0.576c-1.166,1.421-2.515,3.155-2.661,4.853
		C405.448,215.183,406.313,217.925,409.959,217.86z"/>
	<path style="fill-rule:evenodd;clip-rule:evenodd;" d="M549.427,212.688c0.209,3.205-2.237,6.771-5.3,7.772
		c-0.679,0.222-1.311,0.578-1.979,0.835c-1.763,0.678-3.476,0.79-5.124-0.382c-0.625-0.445-1.35-0.751-2.035-1.107
		c-3.709-1.927-4.665-4.847-4.203-9.784c0.454-4.857,4.293-8.109,8.794-7.346c2.496,0.424,5.031,1.56,7.156,2.968
		C549.073,207.191,549.308,210.03,549.427,212.688z M545.301,211.884c-0.037-3.607-2.027-5.332-6.482-5.11
		c-2.237,0.11-4.468,1.769-4.362,5.1c0.103,3.258,2.125,5.974,4.703,6.065C542.662,218.064,545.338,215.427,545.301,211.884z"/>
	<path style="fill-rule:evenodd;clip-rule:evenodd;" d="M281.22,214.861c-1.021,2.037-2.067,4.024-3.016,6.058
		c-0.583,1.247-1.364,1.263-2.458,0.735c-1.154-0.555-1.421-1.259-0.849-2.439c2.279-4.702,4.471-9.447,6.776-14.136
		c0.545-1.109,1.327-2.134,2.147-3.068c1.115-1.27,3.619-0.629,4.361,0.944c0.489,1.036,1.177,1.981,1.8,2.953
		c0.576,0.9,1.195,1.771,1.77,2.672c0.445,0.698,0.689,1.637,1.302,2.096c2,1.497,2.828,3.778,4.082,5.758
		c0.914,1.444,1.684,3.089,0.744,4.837c-0.258,0.48-0.963,1.067-1.398,1.021c-0.59-0.064-1.374-0.571-1.629-1.103
		c-0.92-1.914-1.61-3.939-2.491-5.874c-0.2-0.44-0.831-0.99-1.244-0.975c-1.65,0.063-3.288,0.402-4.939,0.501
		C284.586,214.937,282.985,214.861,281.22,214.861z M282.613,211.799c2.278-0.397,4.289-0.749,6.656-1.162
		c-1.342-1.705-2.513-3.191-3.885-4.936C284.366,207.941,283.575,209.684,282.613,211.799z"/>
	<path style="fill-rule:evenodd;clip-rule:evenodd;" d="M392.394,211.822c1.568,1.924,3.317,3.935,4.885,6.08
		c0.424,0.581,0.294,1.565,0.418,2.365c-0.998-0.088-2.244,0.166-2.939-0.339c-1.221-0.889-2.099-2.246-3.13-3.398
		c-0.672-0.751-1.33-1.518-2.051-2.22c-1.004-0.978-2.089-1.816-3.788-0.991c0.1,1.718,0.195,3.598,0.325,5.477
		c0.072,1.052,0.498,2.255-1.231,2.348c-1.372,0.074-2.515-0.902-2.576-2.324c-0.119-2.743-0.174-5.49-0.25-8.235
		c-0.062-2.263-0.213-4.527-0.15-6.786c0.108-3.897,2.775-5.319,6.488-3.976c2.522,0.913,4.866,1.86,5.816,4.51
		c0.379,1.057,0.306,2.427,0.008,3.538C393.851,209.237,393.035,210.483,392.394,211.822z M385.326,202.865
		c0.172,2.541,0.334,4.953,0.499,7.387c3.491-1.305,5.454-3.225,5-4.849C390.338,203.663,387.374,202.285,385.326,202.865z"/>
	<path style="fill-rule:evenodd;clip-rule:evenodd;" d="M187.816,219.405c-4.426-0.025-7.388-2.286-8.67-5.898
		c-0.722-2.035-0.821-4.062-0.349-6.077c0.983-4.196,9.652-9.013,13.866-5.61c2.625,2.12,4.426,4.685,4.597,8.226
		c0.092,1.91,0.314,3.701-0.888,5.465C194.113,218.822,190.688,219.084,187.816,219.405z M186.332,215.895
		c5.55-0.18,7.475-1.95,6.864-6.553c-0.251-1.888-0.806-4.079-2.789-4.647c-1.617-0.463-3.684-0.325-5.265,0.285
		c-2.343,0.904-3.636,5.2-2.728,7.62C183.241,214.806,184.603,215.95,186.332,215.895z"/>
	<path style="fill-rule:evenodd;clip-rule:evenodd;" d="M365.567,214.771c0.168,2.069,0.357,4.31,0.53,6.551
		c0.068,0.89,0.017,1.733-1.196,1.751c-1.197,0.018-2.464-0.132-2.61-1.579c-0.704-6.977-1.252-13.966-0.931-20.987
		c0.052-1.141,0.696-1.741,1.897-1.982c2.496-0.501,4.572,0.68,6.658,1.596c1.803,0.793,3.729,1.437,4.911,3.366
		c2.088,3.411,0.699,7.254-2.734,8.968C370.036,213.48,367.736,214.021,365.567,214.771z M364.831,210.633
		c2.711,0.466,4.558-0.492,6.058-2.272c1.366-1.621,1.179-3.458-0.602-4.575c-1.15-0.723-2.513-1.098-3.719-1.742
		c-1.23-0.658-1.701-0.139-1.723,1.009C364.797,205.53,364.831,208.01,364.831,210.633z"/>
	<path style="fill-rule:evenodd;clip-rule:evenodd;" d="M447.371,203.299c2.116,0.452,2.681,1.667,2.895,3.501
		c0.437,3.746,1.164,7.458,1.797,11.18c0.222,1.306,1.178,2.125,2.364,2.016c1.402-0.128,3.29-0.327,4.023-1.247
		c1.418-1.78,2.093-4.017,1.437-6.543c-0.501-1.93-0.583-4.011-0.539-6.018c0.019-0.813,0.865-1.609,1.336-2.413
		c0.679,0.542,1.718,0.949,1.98,1.647c1.944,5.176,2.502,10.397-0.397,15.448c-1.315,2.29-4.972,3.313-8.192,2.625
		c-3.407-0.729-5.689-2.399-6.066-6.146c-0.397-3.955-1.016-7.888-1.403-11.843C446.534,204.791,447.107,204.014,447.371,203.299z"
		/>
	<path style="fill-rule:evenodd;clip-rule:evenodd;" d="M85.107,221.464c0.63-1.658,1.222-3.236,1.829-4.808
		c1.791-4.638,3.532-9.296,5.433-13.888c0.355-0.858,1.269-1.886,2.09-2.062c1.418-0.306,1.752,1.15,2.096,2.214
		c1.057,3.267,1.963,6.585,3.118,9.815c1.092,3.057,2.398,6.04,3.666,9.031c0.363,0.855,0.577,1.848-0.37,2.084
		c-0.779,0.194-2.208-0.115-2.547-0.682c-0.807-1.346-1.245-2.948-1.637-4.497c-0.717-2.831-0.657-2.853-3.47-3.269
		c-0.927-0.138-1.875-0.169-2.789-0.359c-0.944-0.197-1.385,0.149-1.774,1.002c-0.909,1.995-1.871,3.975-2.964,5.872
		c-0.337,0.587-1.167,0.892-1.771,1.325C85.733,222.687,85.449,222.132,85.107,221.464z M95.314,207.13
		c-0.246-0.013-0.492-0.024-0.738-0.037c-0.813,1.625-1.626,3.251-2.541,5.08c1.742,0,3.07,0,4.665,0
		C96.198,210.346,95.756,208.738,95.314,207.13z"/>
	<path style="fill-rule:evenodd;clip-rule:evenodd;" d="M501.208,223.541c-3.121,0.977-4.477-0.275-4.436-3.497
		c0.063-4.926-0.118-9.855-0.195-14.822c-2.621-0.186-4.886-0.222-7.102-0.572c-0.734-0.117-1.921-1.075-1.892-1.592
		c0.073-1.313,1.165-1.965,2.547-1.895c3.639,0.186,7.276,0.428,10.918,0.533c1.546,0.045,3.1-0.231,4.652-0.288
		c0.646-0.023,1.457-0.063,1.914,0.278c0.69,0.515,1.136,1.356,1.686,2.059c-0.645,0.423-1.25,1.119-1.94,1.217
		c-2.095,0.296-4.223,0.36-6.781,0.548C500.784,211.355,500.995,217.396,501.208,223.541z"/>
	<path style="fill-rule:evenodd;clip-rule:evenodd;" d="M467.295,213.375c-0.222-4.702,2.838-7.185,6.357-9.313
		c2.479-1.499,5.15-2.173,7.963-1.08c0.692,0.27,1.434,0.952,1.716,1.627c0.575,1.373-0.465,2.585-1.834,2.056
		c-2.256-0.873-4.023-0.004-5.85,1.033c-3.713,2.108-5.096,4.964-4.371,9.054c0.315,1.782,2.954,3.768,5.224,3.592
		c1.437-0.112,2.896-0.619,4.229-1.21c1.338-0.593,2.644-0.545,3.234,0.68c0.584,1.21,0.347,2.209-1.069,2.907
		c-4.908,2.418-9.907,1.607-13.656-2.105C467.261,218.655,467.408,215.95,467.295,213.375z"/>
	<path style="fill-rule:evenodd;clip-rule:evenodd;" d="M203.908,206.265c0.112-0.773,0.141-1.736,0.427-2.615
		c0.146-0.447,0.755-0.743,1.155-1.108c0.354,0.421,0.92,0.794,1.024,1.27c0.482,2.205,0.695,4.476,1.28,6.649
		c0.501,1.862,1.363,3.63,2.105,5.423c0.1,0.241,0.408,0.485,0.668,0.56c2.428,0.692,6.934-0.8,7.089-4.139
		c0.125-2.657,0.709-5.27,0.045-7.955c-0.258-1.04-0.346-2.513,1.128-2.8c1.29-0.25,2.462,0.543,2.59,1.9
		c0.266,2.815,0.311,5.652,0.399,8.482c0.02,0.631-0.111,1.276-0.243,1.899c-1.119,5.3-7.388,6.849-10.928,5.92
		c-4.191-1.099-4.743-4.439-5.853-7.473C204.136,210.474,204.197,208.405,203.908,206.265z"/>
	<path style="fill-rule:evenodd;clip-rule:evenodd;" d="M53.574,203.928c0.259,2.95,0.507,5.785,0.762,8.697
		c1.701-0.253,3.337-0.528,4.983-0.72c0.574-0.067,1.263-0.091,1.734,0.168c0.5,0.273,1.194,1.015,1.1,1.359
		c-0.147,0.537-0.842,1.217-1.386,1.299c-1.919,0.288-3.873,0.348-5.707,0.485c0,2.76,0.034,5.508-0.026,8.253
		c-0.014,0.63-0.352,1.252-0.541,1.878c-0.637-0.315-1.625-0.478-1.842-0.976c-0.6-1.374-1.127-2.869-1.236-4.35
		c-0.357-4.81-0.574-9.633-0.729-14.454c-0.119-3.717,1.206-4.794,4.908-4.564c2.299,0.143,4.616-0.025,6.923,0.011
		c0.847,0.014,2.156-0.088,1.798,1.245c-0.165,0.614-1.352,1.272-2.128,1.345c-2.288,0.212-4.602,0.135-6.904,0.186
		C54.755,203.802,54.228,203.873,53.574,203.928z"/>
	<path style="fill-rule:evenodd;clip-rule:evenodd;" d="M263.877,205.326c0,1.126-0.042,2.017,0.007,2.9
		c0.195,3.53,0.417,7.059,0.633,10.587c0.074,1.214,0.056,2.275-1.644,2.31c-1.643,0.032-1.862-1.162-1.92-2.237
		c-0.159-2.913-0.116-5.838-0.207-8.756c-0.048-1.536-0.208-3.067-0.323-4.674c-1.646-0.104-3.175-0.181-4.698-0.31
		c-0.465-0.039-1.08-0.077-1.34-0.37c-0.542-0.608-1.164-1.373-1.204-2.103c-0.019-0.358,1.182-1.103,1.843-1.118
		c2.003-0.045,4.011,0.25,6.019,0.282c3.13,0.051,6.262-0.017,9.393-0.008c0.526,0.002,1.181-0.036,1.551,0.243
		c0.67,0.507,1.17,1.237,1.742,1.875c-0.647,0.433-1.263,1.171-1.946,1.238c-1.936,0.193-3.898,0.114-5.851,0.138
		C265.299,205.332,264.667,205.326,263.877,205.326z"/>
	<path style="fill-rule:evenodd;clip-rule:evenodd;" d="M113.419,203.152c-1.963,0-3.993,0.118-5.994-0.072
		c-0.595-0.056-1.108-0.976-1.66-1.5c0.621-0.504,1.238-1.013,1.868-1.504c0.082-0.063,0.232-0.054,0.351-0.054
		c4.421,0.032,8.843,0.051,13.263,0.122c0.635,0.01,1.339,0.148,1.873,0.462c0.413,0.243,0.85,0.86,0.835,1.297
		c-0.015,0.431-0.522,1.121-0.92,1.208c-1.079,0.236-2.215,0.291-3.326,0.273c-1.408-0.023-2.814-0.189-3.863-0.268
		c0.419,5.203,0.861,10.213,1.204,15.229c0.097,1.418-0.015,2.868-0.211,4.278c-0.056,0.404-0.74,1.002-1.146,1.01
		c-0.604,0.011-1.284-0.331-1.798-0.706c-0.249-0.181-0.259-0.775-0.269-1.186c-0.13-5.284-0.25-10.568-0.348-15.854
		C113.263,205.019,113.365,204.145,113.419,203.152z"/>
	<path style="fill-rule:evenodd;clip-rule:evenodd;" d="M72.586,222.27c1.731,0,3.282-0.004,4.833,0.002
		c0.54,0.002,1.08,0.02,1.619,0.046c1.379,0.065,2.729,0.563,2.46,2.084c-0.109,0.614-1.722,1.366-2.642,1.355
		c-2.504-0.029-4.999-0.548-7.506-0.647c-1.667-0.065-2.231-0.926-2.312-2.333c-0.165-2.86-0.318-5.724-0.385-8.587
		c-0.074-3.23-0.094-6.463-0.018-9.692c0.013-0.546,0.625-1.077,0.96-1.615c0.408,0.431,1.097,0.816,1.175,1.302
		c0.385,2.386,0.646,4.794,0.877,7.201C71.985,214.925,72.261,218.472,72.586,222.27z"/>
	<path style="fill-rule:evenodd;clip-rule:evenodd;" d="M517.554,215.121c0-3.449,0.042-7.141-0.023-10.83
		c-0.022-1.225,0.276-2.175,1.527-2.382c1.15-0.189,3.104,1.541,2.897,2.557c-1.011,4.976,0.274,9.909,0.196,14.864
		c-0.012,0.751,0.419,1.524,0.34,2.255c-0.099,0.905-0.264,2.248-0.849,2.561c-1.1,0.586-2.511,0.186-2.827-1.253
		C518.276,220.43,517.992,217.911,517.554,215.121z"/>
	<path style="fill-rule:evenodd;clip-rule:evenodd;" d="M310.977,209.402c0,3.291-0.022,6.582,0.014,9.873
		c0.012,1.069-0.287,2.184-1.345,2.136c-0.781-0.036-1.758-0.882-2.208-1.631c-0.446-0.742-0.408-1.811-0.467-2.743
		c-0.245-3.894-0.454-7.788-0.66-11.684c-0.062-1.17-0.294-2.664,1.197-2.932c1.405-0.253,2.225,0.791,2.437,2.247
		c0.229,1.569,0.551,3.126,0.832,4.688C310.843,209.372,310.911,209.388,310.977,209.402z"/>
	<path style="fill-rule:evenodd;clip-rule:evenodd;fill:#FFFFFF;" d="M430.36,202.756c1.561,1.131,2.732,2.036,3.96,2.859
		c2.938,1.971,3.427,5.151,4.051,8.234c0.109,0.54-0.191,1.495-0.613,1.755c-1.834,1.131-3.748,2.157-5.726,3.003
		c-0.311,0.132-1.584-0.852-1.598-1.341C430.31,212.517,430.36,207.762,430.36,202.756z"/>
	<path style="fill-rule:evenodd;clip-rule:evenodd;fill:#FFFFFF;" d="M409.959,217.86c-3.646,0.064-4.512-2.678-4.191-6.382
		c0.146-1.697,1.495-3.432,2.661-4.853c0.83-1.012,2.064-1.229,3.677-0.576c1.704,0.69,3.192,1.381,4.367,2.798
		c1.641,1.979,1.539,5.813-0.52,7.041c-1.784,1.064-3.87,1.621-5.822,2.402C410.074,218.147,410.017,218.004,409.959,217.86z"/>
	<path style="fill-rule:evenodd;clip-rule:evenodd;fill:#FFFFFF;" d="M545.301,211.884c0.037,3.543-2.64,6.181-6.142,6.055
		c-2.578-0.092-4.601-2.808-4.703-6.065c-0.105-3.331,2.125-4.989,4.362-5.1C543.274,206.552,545.264,208.276,545.301,211.884z"/>
	<path style="fill-rule:evenodd;clip-rule:evenodd;fill:#FFFFFF;" d="M282.613,211.799c0.962-2.115,1.753-3.857,2.771-6.098
		c1.372,1.744,2.542,3.23,3.885,4.936C286.902,211.05,284.891,211.401,282.613,211.799z"/>
	<path style="fill-rule:evenodd;clip-rule:evenodd;fill:#FFFFFF;" d="M385.326,202.865c2.048-0.58,5.013,0.798,5.499,2.538
		c0.454,1.624-1.509,3.544-5,4.849C385.66,207.818,385.498,205.406,385.326,202.865z"/>
	<path style="fill-rule:evenodd;clip-rule:evenodd;fill:#FFFFFF;" d="M186.332,215.895c-1.729,0.056-3.091-1.089-3.918-3.295
		c-0.908-2.42,0.385-6.716,2.728-7.62c1.582-0.61,3.648-0.748,5.265-0.285c1.983,0.568,2.538,2.76,2.789,4.647
		C193.807,213.944,191.882,215.715,186.332,215.895z"/>
	<path style="fill-rule:evenodd;clip-rule:evenodd;fill:#FFFFFF;" d="M364.831,210.633c0-2.623-0.033-5.103,0.015-7.581
		c0.021-1.147,0.492-1.667,1.723-1.009c1.206,0.645,2.568,1.02,3.719,1.742c1.78,1.117,1.968,2.954,0.602,4.575
		C369.388,210.141,367.542,211.099,364.831,210.633z"/>
	<path style="fill-rule:evenodd;clip-rule:evenodd;fill:#FFFFFF;" d="M95.314,207.13c0.442,1.608,0.884,3.216,1.386,5.043
		c-1.595,0-2.923,0-4.665,0c0.915-1.829,1.728-3.455,2.541-5.08C94.823,207.105,95.069,207.117,95.314,207.13z"/>
</g>
</svg>
