<svg xmlns="http://www.w3.org/2000/svg" viewBox="0 0 626 534.7"><title>lydikon</title><g id="Layer_2" data-name="Layer 2"><g id="Layer_1-2" data-name="Layer 1"><path d="M0,190.51c2.13-3.73,3.8-7.82,6.48-11.11,4.95-6.07,11.82-8.09,19.58-8.06,30.16.11,60.31-.05,90.47.15A13.41,13.41,0,0,0,127,167q59.76-59.95,119.68-119.74c7.83-7.84,16.9-10.72,27.27-6.44,10.56,4.36,15,13,15,24.23q0,202.43,0,404.85c0,12-5.19,20.55-14.92,24.29-10.47,4-19.45,1.43-27.3-6.43Q187,428,127.31,368.37c-3.27-3.29-6.48-4.89-11.28-4.85-28.32.24-56.66-.39-85,.32-15.24.38-25.81-4.68-31.06-19.32Q0,267.51,0,190.51Z"/><path d="M626,284.51c-2,14.15-3.44,28.42-6.2,42.42a269.57,269.57,0,0,1-23.41,67.72,301.66,301.66,0,0,1-42.52,63.79,277.13,277.13,0,0,1-44.25,40.92,287.75,287.75,0,0,1-57.37,33c-15.82,6.85-32.65-2.25-34.85-18.56-1.4-10.35,5.27-21.15,16.91-26.24A236.77,236.77,0,0,0,548.14,383.31c27-49.33,35.28-101.89,26.16-157.1-7.16-43.35-25.89-81.62-54.12-115.19-19.83-23.58-43.91-42-70.92-56.69-7.14-3.88-14.8-6.93-21.56-11.35-9.94-6.5-13.16-19-8.29-28.45,6.14-12,18.1-17.64,30-12.81a307,307,0,0,1,32.65,16c26.89,14.88,50.16,34.44,70.49,57.35,15.95,18,30,37.45,40.46,59.14,7,14.49,13.21,29.42,18.82,44.51,7.82,21,11.05,43.14,13.24,65.39.21,2.13.63,4.25,1,6.37Z"/><path d="M529.44,282c-.66,44.72-23.84,93.62-67.82,132.77-13.5,12-29,21.23-45.52,28.51-15.49,6.82-30.07,1.34-35.5-13.07a22.39,22.39,0,0,1,8.46-26.49c8.48-5.53,17.6-10.06,26.2-15.43a138.27,138.27,0,0,0,46-47.53c10.12-17,16.94-35.21,18.82-54.77a180.78,180.78,0,0,0-.35-39.25c-3.57-28.84-16-54-35.34-75.68-13.36-15-29.76-25.88-47.58-34.86-8.06-4.06-15.1-9.22-17-18.94C376.36,99.58,393,83.92,410.11,89.78a151,151,0,0,1,28.65,13.89c23.57,14.23,42.68,33.28,57.94,56.21C518.45,192.5,529.59,228.35,529.44,282Z"/><path d="M433.34,270.6c-1.44,31.49-15.67,59.14-44.76,78.37A57.67,57.67,0,0,1,369.93,357c-11.47,2.59-22-3.62-26.37-14.09s-1-21.12,9.27-28.92a124.52,124.52,0,0,1,11.07-7.69C382,295.49,387.07,279,384.61,259.21,383,246.09,376,236.49,365,229.38a125.16,125.16,0,0,1-15.24-11.24c-9.15-8.14-10.55-19.3-4.34-29.78,5.37-9.07,17.39-13.43,28-9.64A84.09,84.09,0,0,1,409,203C424.36,220.55,433.33,244.77,433.34,270.6Z"/></g></g></svg>