<svg xmlns="http://www.w3.org/2000/svg" viewBox="0 0 34.75 34.75"><defs><style>.cls-1{fill:#fff;}.cls-2,.cls-3,.cls-5,.cls-6{fill:none;stroke:#231f20;stroke-miterlimit:10;}.cls-2{stroke-width:0.79px;}.cls-3{stroke-width:0.72px;}.cls-4,.cls-7{fill:#231f20;}.cls-5{stroke-width:0.24px;}.cls-6{stroke-width:0.79px;}.cls-7{font-size:3.43px;font-family:NunitoSans-Bold, Nunito Sans;font-weight:700;}.cls-8{letter-spacing:-0.04em;}</style></defs><title>blog_icon_bw</title><g id="Layer_2" data-name="Layer 2"><g id="nav"><g id="li"><g id="dropdown"><g id="li_bloggy"><path d="M34.75,17.37A17.38,17.38,0,1,1,17.38,0,17.38,17.38,0,0,1,34.75,17.37Z"/><rect class="cls-1" x="10.8" y="8.87" width="13.26" height="17.86"/><line class="cls-2" x1="13.37" y1="21.85" x2="21.38" y2="21.85"/><line class="cls-3" x1="13.37" y1="23.99" x2="19.91" y2="23.99"/><path class="cls-1" d="M27,17l.06.54-4.64,5.41c.67-1.06-.09-.77-.09-.77Z"/><path class="cls-1" d="M26.7,16.44,27,17l-4.67,5.18c.33-.7-.12-.56-.32-.47h0Z"/><path class="cls-1" d="M22,21.67h0l-.08,0c.29-.86-.55-.23-.55-.23l4.66-5.28.63.23Z"/><path class="cls-1" d="M26.07,16.21l-4.66,5.28s.18-.92-.71,0l4.79-5.28Z"/><path class="cls-1" d="M22.36,22.15s.76-.29.09.77L20.7,21.49c.89-.92.71,0,.71,0s.84-.63.55.23l.08,0C22.24,21.59,22.69,21.45,22.36,22.15Z"/><path class="cls-1" d="M22.45,22.92l-1.89.8a.33.33,0,0,0-.09-.27.39.39,0,0,0-.34-.13l.57-1.83Z"/><path class="cls-4" d="M20.47,23.45a.33.33,0,0,1,.09.27l-.65.27.22-.67A.39.39,0,0,1,20.47,23.45Z"/><polygon class="cls-5" points="27.03 16.97 27.09 17.51 22.45 22.92 20.56 23.72 19.91 24 20.13 23.32 20.7 21.49 25.48 16.21 26.07 16.21 26.7 16.44 27.03 16.97"/><path class="cls-5" d="M20.12,23.32h0a.39.39,0,0,1,.34.13.33.33,0,0,1,.09.27v0"/><path class="cls-5" d="M22.45,22.92c.67-1.06-.09-.77-.09-.77.33-.7-.12-.56-.32-.47l-.08,0c.29-.86-.55-.23-.55-.23s.18-.92-.71,0"/><line class="cls-5" x1="26.07" y1="16.21" x2="21.41" y2="21.49"/><polyline class="cls-5" points="26.7 16.44 22.03 21.67 22.03 21.67"/><line class="cls-5" x1="27.03" y1="16.97" x2="22.36" y2="22.15"/><line class="cls-6" x1="13.37" y1="15.13" x2="21.37" y2="15.13"/><line class="cls-6" x1="13.37" y1="19.65" x2="21.37" y2="19.65"/><line class="cls-6" x1="13.37" y1="17.35" x2="21.37" y2="17.35"/><text class="cls-7" transform="translate(12.93 13.61)">B<tspan class="cls-8" x="2.34" y="0">L</tspan><tspan x="4.11" y="0">OG</tspan></text></g></g></g></g></g></svg>