<svg xmlns="http://www.w3.org/2000/svg" viewBox="0 0 51.73 51.72"><defs><style>.cls-1{fill:#99cb99;}.cls-2{fill:#fff;}.cls-3,.cls-4,.cls-5{fill:none;stroke:#231f20;stroke-miterlimit:10;}.cls-3{stroke-width:1.67px;}.cls-4{stroke-width:0.42px;}.cls-5{stroke-width:0.25px;}</style></defs><title>bog_ikon_bw</title><g id="Layer_2" data-name="Layer 2"><g id="nav"><g id="li"><path class="cls-1" d="M41.1,14.82a2.82,2.82,0,0,0-.21.84,9.44,9.44,0,0,0-2-.13v-.15C40.21,15,41.1,14.82,41.1,14.82Z"/><path class="cls-1" d="M38.86,15.38v.15h-.6Z"/><path class="cls-1" d="M38.26,15.54A77.78,77.78,0,0,0,27.2,19.09C32.24,16.47,35.9,15.69,38.26,15.54Z"/><path class="cls-2" d="M40.31,32.91c-6.62.33-13.23,4.27-13.23,4.27H26.6v-.32a14.27,14.27,0,0,1,12-4.69l.27-16.64a9.44,9.44,0,0,1,2,.13C40.31,19.38,40.31,32.91,40.31,32.91Z"/><path class="cls-2" d="M27.2,19.09a77.78,77.78,0,0,1,11.06-3.55h.6l-.27,16.64a14.27,14.27,0,0,0-12,4.69l-.24-17.41.08,0,.75-.4Z"/><path class="cls-1" d="M26.85,19.26l.34-.17-.75.4-.08,0v-.34l.05-.05Z"/><path class="cls-2" d="M26.41,19.06c.61-.54,6.56-5.77,12.47-4.89l0,1.21-.6.16c-2.36.15-6,.93-11.06,3.55h0l-.34.17Z"/><path class="cls-1" d="M26.41,19.06l-.05.05-.1-.11Z"/><path class="cls-1" d="M26.36,19.45c-.53-.25-3.6-1.68-6.86-2.8A63.6,63.6,0,0,1,26.26,19l.1.11Z"/><path class="cls-2" d="M26.26,19a63.6,63.6,0,0,0-6.76-2.35l-.12,0a28.83,28.83,0,0,0-4.24-1.16h0l-.76-.21c0-.68-.06-1.07-.06-1.07S21.73,13.92,26.26,19Z"/><path class="cls-1" d="M15.14,15.45a28.83,28.83,0,0,1,4.24,1.16C17.8,16.15,16.32,15.75,15.14,15.45Z"/><path class="cls-2" d="M14.3,32c.7-1.54.23-12.95.06-16.67a7.33,7.33,0,0,1,.76.11h0c1.18.3,2.66.7,4.24,1.16l.12,0c3.26,1.12,6.33,2.55,6.86,2.8l.24,17.41S20.67,29.66,14.3,32Z"/><path class="cls-1" d="M15.12,15.45a7.33,7.33,0,0,0-.76-.11.34.34,0,0,1,0-.1Z"/><path class="cls-1" d="M14.36,15.24a.34.34,0,0,0,0,.1,6.81,6.81,0,0,0-1.74,0c0-.32,0-.5,0-.5S13.27,15,14.36,15.24Z"/><path d="M12.59,14.82s0,.18,0,.5a2.16,2.16,0,0,0-1.21.49V34.07s10.7,1,13.47,4.18c0,0,2.1.84,3.28,0,0,0,6.86-4,13.31-4.35V15.81a4.46,4.46,0,0,0-.58-.15,2.82,2.82,0,0,1,.21-.84s-.89.21-2.24.56l0-1.21C33,13.29,27,18.52,26.41,19.06L26.26,19c-4.53-5.08-12-4.83-12-4.83s0,.39.06,1.07C13.27,15,12.59,14.82,12.59,14.82ZM25.86.83a25,25,0,1,1-25,25A25,25,0,0,1,25.86.83Z"/><path class="cls-2" d="M13.18,33c.14-2.76-.44-15-.56-17.67a6.81,6.81,0,0,1,1.74,0c.17,3.72.64,15.13-.06,16.67,6.37-2.35,12.3,4.85,12.3,4.85v.32h-.19C22.81,33.83,13.18,33,13.18,33Z"/><path class="cls-2" d="M27.08,37.18s6.61-3.94,13.23-4.27c0,0,0-13.53.58-17.25a4.46,4.46,0,0,1,.58.15V33.9c-6.45.33-13.31,4.35-13.31,4.35-1.18.84-3.28,0-3.28,0-2.77-3.18-13.47-4.18-13.47-4.18V15.81a2.16,2.16,0,0,1,1.21-.49c.12,2.64.7,14.91.56,17.67,0,0,9.63.84,13.23,4.19h.67Z"/><path class="cls-3" d="M50.89,25.86a25,25,0,1,1-25-25A25,25,0,0,1,50.89,25.86Z"/><path class="cls-4" d="M26.41,19.06,26.26,19"/><path class="cls-4" d="M14.36,15.24c-1.09-.27-1.77-.42-1.77-.42s0,.18,0,.5c.12,2.64.7,14.91.56,17.67,0,0,9.63.84,13.23,4.19h.67s6.61-3.94,13.23-4.27c0,0,0-13.53.58-17.25a2.82,2.82,0,0,1,.21-.84s-.89.21-2.24.56"/><path class="cls-4" d="M26.36,19.11l-.1-.11c-4.53-5.08-12-4.83-12-4.83s0,.39.06,1.07a.34.34,0,0,0,0,.1c.17,3.72.64,15.13-.06,16.67,6.37-2.35,12.3,4.85,12.3,4.85"/><path class="cls-4" d="M26.36,19.11v.34l.24,17.41a14.27,14.27,0,0,1,12-4.69l.27-16.64v-.15l0-1.21C33,13.29,27,18.52,26.41,19.06Z"/><path class="cls-5" d="M17.24,18.66a11.68,11.68,0,0,1,1.67.08c.42.17.84.42,1.34.59a15.94,15.94,0,0,1,1.85.75,18.31,18.31,0,0,0,1.67,1.09"/><path class="cls-5" d="M17.24,21a9.6,9.6,0,0,1,3.43.67c1,.5,1.93,1.17,3,1.59"/><path class="cls-5" d="M17.07,23.26c.59.17,1.17,0,1.67.17s1,.33,1.6.42a6,6,0,0,1,3,1.42"/><path class="cls-5" d="M16.82,25.61a4.69,4.69,0,0,1,1.84.25c.42.17.92.17,1.42.33a12.35,12.35,0,0,1,1.6.51,7,7,0,0,1,1.34.83"/><path class="cls-5" d="M16.73,27.53a4,4,0,0,0,1.43.09,8.78,8.78,0,0,1,1.92.42A4.94,4.94,0,0,1,23,30.13"/><path class="cls-5" d="M28.37,20.58a7.65,7.65,0,0,0,1.85-1.42,7.67,7.67,0,0,1,1.92-.84,8.7,8.7,0,0,1,2-.5c.51-.08,1.26-.34,1.76-.08"/><path class="cls-5" d="M28.63,22.68c.25-.09.42-.42.67-.51a4.64,4.64,0,0,1,1.08-.58,9.78,9.78,0,0,1,2-.76A12,12,0,0,0,34,20.42a6.12,6.12,0,0,1,1.75-.17"/><path class="cls-5" d="M28.71,25.36c.34-.09.59-.42.92-.59s.59-.33.84-.5c.67-.42,1.26-.84,1.93-1.18a19.68,19.68,0,0,1,2.09-.58,2.63,2.63,0,0,1,1.42,0"/><path class="cls-5" d="M28.79,28a17.75,17.75,0,0,0,1.43-1.25,9.78,9.78,0,0,1,2.18-.92,10.32,10.32,0,0,1,3.6-.42"/><path class="cls-5" d="M28.46,30.55a4.75,4.75,0,0,1,1.67-.92A16.38,16.38,0,0,1,32.06,29a8.21,8.21,0,0,1,3.77-.17"/></g></g></g></svg>