<svg xmlns="http://www.w3.org/2000/svg" viewBox="0 0 51.72 51.72"><defs><style>.cls-1,.cls-3{stroke:#231f20;stroke-miterlimit:10;}.cls-1{stroke-width:1.67px;}.cls-2,.cls-3{fill:#99cb99;}.cls-3{stroke-width:0.42px;}.cls-4{fill:#231f20;}</style></defs><title>bog_ikon_green</title><g id="Layer_2" data-name="Layer 2"><g id="nav"><g id="li"><path class="cls-1" d="M50.89,25.86a25,25,0,1,1-25-25A25,25,0,0,1,50.89,25.86Z"/><path class="cls-2" d="M11.41,15.81V34.07s10.7,1,13.47,4.19c0,0,2.1.83,3.27,0,0,0,6.87-4,13.32-4.36V15.81s-4.86-1.84-15,3.69C26.44,19.5,13.92,13.47,11.41,15.81Z"/><path class="cls-3" d="M12.59,14.82s.75,15.08.59,18.17c0,0,9.63.84,13.22,4.19h.68s6.61-3.93,13.23-4.27c0,0,0-16.66.79-18.09,0,0-10.76,2.6-14.25,4.44C21.72,16.92,12.59,14.82,12.59,14.82Z"/><path class="cls-3" d="M14.3,14.17s.84,16,0,17.84c6.37-2.35,12.3,4.86,12.3,4.86l-.24-17.76C21.84,13.92,14.3,14.17,14.3,14.17Z"/><path class="cls-3" d="M26.36,19.11l.24,17.76a14.22,14.22,0,0,1,12-4.69l.29-18C32.65,13.24,26.36,19.11,26.36,19.11Z"/><path class="cls-4" d="M17.24,18.91c2.4,0,4.39,1.3,6.4,2.48.28.16.54-.27.26-.43-2.13-1.25-4.13-2.54-6.66-2.55a.25.25,0,0,0,0,.5Z"/><path class="cls-4" d="M17.24,21.26a8.61,8.61,0,0,1,3.86.93c.84.45,1.64.95,2.52,1.32.3.12.43-.36.13-.49-1.12-.47-2.1-1.23-3.23-1.66a9.72,9.72,0,0,0-3.28-.61.26.26,0,0,0,0,.51Z"/><path class="cls-4" d="M17,23.51c1.94.32,4.72.39,6.17,1.94.22.24.58-.12.36-.35C22,23.45,19.2,23.37,17.14,23c-.32-.05-.46.43-.14.49Z"/><path class="cls-4" d="M16.82,25.86a11.64,11.64,0,0,1,6.07,1.89c.27.19.52-.25.25-.43a11.8,11.8,0,0,0-6.32-2,.25.25,0,0,0,0,.5Z"/><path class="cls-4" d="M16.67,27.78c1,.24,2,.12,2.95.39a5.17,5.17,0,0,1,3.18,2.09c.18.27.61,0,.43-.26a5.28,5.28,0,0,0-2.41-2A10.7,10.7,0,0,0,19,27.48c-.71-.15-1.45,0-2.16-.19-.31-.07-.45.41-.13.49Z"/><path class="cls-4" d="M28.5,20.8c1.17-.62,1.93-1.58,3.21-2.05s2.88-1.09,4.14-.77A.25.25,0,0,0,36,17.5a7.31,7.31,0,0,0-3.9.58,8.27,8.27,0,0,0-1.76.73c-.74.46-1.29,1.14-2.07,1.56-.29.15,0,.59.25.43Z"/><path class="cls-4" d="M28.75,22.9a13.23,13.23,0,0,1,7-2.4.25.25,0,0,0,0-.5,13.64,13.64,0,0,0-7.24,2.46c-.27.18,0,.61.25.44Z"/><path class="cls-4" d="M28.84,25.58c2.13-1,4.38-3.46,7-2.83a.25.25,0,0,0,.13-.48c-2.82-.68-5.11,1.76-7.4,2.87-.29.14,0,.58.26.44Z"/><path class="cls-4" d="M28.92,28.17a10.72,10.72,0,0,1,3-2,12,12,0,0,1,4.08-.6.25.25,0,0,0,0-.5,12,12,0,0,0-4.21.62,10.23,10.23,0,0,0-3.12,2c-.26.19,0,.63.25.43Z"/><path class="cls-4" d="M28.64,30.73A9.77,9.77,0,0,1,35.76,29c.32.05.45-.44.14-.49a10.23,10.23,0,0,0-7.62,1.82c-.25.2.1.56.36.36Z"/></g></g></g></svg>