<svg xmlns="http://www.w3.org/2000/svg" viewBox="0 0 48.76 48.76"><defs><style>.cls-1{fill:#d5acd1;}</style></defs><title>folder_icon_rose</title><g id="Layer_2" data-name="Layer 2"><g id="nav"><g id="li"><path d="M48.76,24.38A24.38,24.38,0,1,1,24.38,0,24.38,24.38,0,0,1,48.76,24.38Z"/><path class="cls-1" d="M36.71,15.15a1.88,1.88,0,0,1,1.9,1.92c0,6.31,0,12.61,0,18.92a1.8,1.8,0,0,1-1.86,1.88H12A1.8,1.8,0,0,1,10.15,36V17.18c0-.7,0-1.39,0-2.09a1.51,1.51,0,0,1,1.5-1.53h7.66c.42,0,1.69,1.6,1.78,1.6C26.29,15.16,31.5,15.17,36.71,15.15Z"/><path class="cls-1" d="M38.54,13.87a9.58,9.58,0,0,1,.08,1.42,3.18,3.18,0,0,0-.14-.37,1.78,1.78,0,0,0-1.7-1.13H21.1c-.09,0-1.48-1.61-1.81-1.61H11.75a1.49,1.49,0,0,0-1.54,1.15h0a1.21,1.21,0,0,1,0,.14v-1a1.15,1.15,0,0,1,0-.19,1.52,1.52,0,0,1,1.59-1.42h7.54c.33,0,1.72,1.61,1.81,1.61H36.78A1.74,1.74,0,0,1,38.54,13.87Z"/><path d="M38.54,15.16a9.58,9.58,0,0,1,.08,1.42,2,2,0,0,0-2-1.47c-5.16,0-10.32,0-15.48,0-.1,0-1.43-1.58-1.82-1.6H11.61a1.46,1.46,0,0,0-1.37,1c0,.07-.05.14-.09.24v-1a1.21,1.21,0,0,1,0-.19,2.34,2.34,0,0,1,0-.26h0l0-.09a1.46,1.46,0,0,1,1.37-1h7.68c.39,0,1.72,1.6,1.82,1.6H36.59a2,2,0,0,1,1.89,1.1A1.05,1.05,0,0,1,38.54,15.16Z"/><path class="cls-1" d="M36.78,13.79a1.78,1.78,0,0,1,1.7,1.13,2,2,0,0,0-1.89-1.1H21.11c-.1,0-1.43-1.58-1.82-1.6H11.61a1.46,1.46,0,0,0-1.37,1l0,.09a1.49,1.49,0,0,1,1.54-1.15h7.54c.33,0,1.72,1.61,1.81,1.61Z"/></g></g></g></svg>