<svg xmlns="http://www.w3.org/2000/svg" viewBox="0 0 48.73 48.73"><defs><style>.cls-1{fill:#fff;}.cls-2{fill:#7bced2;}</style></defs><title>folder_icon_bw</title><g id="Layer_2" data-name="Layer 2"><g id="nav"><g id="li"><path d="M48.73,24.37A24.37,24.37,0,1,1,24.37,0,24.36,24.36,0,0,1,48.73,24.37Z"/><path class="cls-1" d="M36.68,15.14a1.86,1.86,0,0,1,1.9,1.91q0,9.47,0,18.92a1.81,1.81,0,0,1-1.87,1.88H12A1.8,1.8,0,0,1,10.15,36c0-.91,0-1.83,0-2.75V15.08a1.52,1.52,0,0,1,1.5-1.53q3.84,0,7.66,0c.41,0,1.68,1.6,1.77,1.6C26.28,15.15,31.48,15.16,36.68,15.14Z"/><path class="cls-1" d="M38.52,13.86a11.16,11.16,0,0,1,.07,1.42,2,2,0,0,0-.14-.37,1.77,1.77,0,0,0-1.69-1.13H21.09c-.1,0-1.48-1.61-1.82-1.61H11.74a1.51,1.51,0,0,0-1.54,1.15v0a.39.39,0,0,0,0,.13V12.3a1.52,1.52,0,0,1,1.59-1.42H18c.44,0,.88,0,1.32,0s1.72,1.61,1.82,1.61H36.76A1.75,1.75,0,0,1,38.52,13.86Z"/><path d="M38.52,15.15a11.07,11.07,0,0,1,.07,1.42,2,2,0,0,0-2-1.47c-5.15,0-10.31,0-15.47,0-.09,0-1.42-1.58-1.81-1.6H11.6a1.46,1.46,0,0,0-1.37,1c0,.07-.05.14-.08.24V13.59a1,1,0,0,1,0-.25v0l0-.08a1.46,1.46,0,0,1,1.37-1h7.68c.39,0,1.72,1.6,1.81,1.6H36.56a2,2,0,0,1,1.89,1.1A2.17,2.17,0,0,1,38.52,15.15Z"/><path class="cls-2" d="M36.76,13.78a1.77,1.77,0,0,1,1.69,1.13,2,2,0,0,0-1.89-1.1H21.09c-.09,0-1.42-1.58-1.81-1.6H11.6a1.46,1.46,0,0,0-1.37,1l0,.08a1.51,1.51,0,0,1,1.54-1.15h7.53c.34,0,1.72,1.61,1.82,1.61Z"/></g></g></g></svg>