<svg xmlns="http://www.w3.org/2000/svg" viewBox="0 0 18.08 38.03"><defs><style>.cls-1{fill:#0a2a29;}.cls-2{fill:#0b0b0b;}.cls-3{fill:#fff;}.cls-4{fill:#0f3331;}</style></defs><title>manahil_figur</title><g id="Layer_2" data-name="Layer 2"><g id="nav"><g id="li"><g id="_Group_" data-name="&lt;Group&gt;"><path class="cls-1" d="M18.11,36.34a.07.07,0,0,1-.05.1l-.78.14c-2.2.31-4.44.16-6.66.37-1.49.15-2.94.49-4.41.78a8,8,0,0,1-3.56.19,2,2,0,0,1-1.39-2.31.07.07,0,0,1,.15,0,1.09,1.09,0,0,0,0,.18,2,2,0,0,0,.44,1.5,2.15,2.15,0,0,0,1.39.58A12.75,12.75,0,0,0,7,37.42a29.24,29.24,0,0,1,4.47-.68,47.14,47.14,0,0,0,6.51-.43l0,.07a.41.41,0,0,1,.05-.09l-.08,0c-1.16-3.12-1.63-6.43-2.47-9.63,0-.14,0-.27,0-.41a.07.07,0,0,1,.1.05C16.43,29.65,16.89,33.1,18.11,36.34Z" transform="translate(-0.04 -0.04)"/><path class="cls-1" d="M18,36.29a.41.41,0,0,0-.05.09l0-.07Z" transform="translate(-0.04 -0.04)"/><path class="cls-2" d="M15.47,26.68c.84,3.2,1.31,6.51,2.47,9.63a47.14,47.14,0,0,1-6.51.43A29.24,29.24,0,0,0,7,37.42a12.75,12.75,0,0,1-3.73.45,2.15,2.15,0,0,1-1.39-.58,2,2,0,0,1-.44-1.5h.06c0,.09.13.13.15,0a6.38,6.38,0,0,0-.2-2.3c-.1-.46-.2-.93-.27-1.4a9.26,9.26,0,0,1,0-1.49c.06-2,0-4,0-6v0c0,.09.16,0,.15,0-.16-1.08-.38-2.16-.54-3.24a22.61,22.61,0,0,1-.28-3.49c0-.68,0-1.35,0-2,0,.12.09.24.13.35s.14,0,.14,0h.43a21.83,21.83,0,0,0,.15,3.43c.29,2,.6,4.05.8,6.09a.07.07,0,0,0,.15,0c-.18-1.91-.47-3.8-.74-5.69A20.9,20.9,0,0,1,1.31,17c0-1,0-2.07-.05-3.1l.32-.05c.17,1,.36,2.08.54,3.11,0,.1.16.06.14,0-.3-1.77-.64-3.56-.89-5.35.14.54.29,1.06.44,1.59a.08.08,0,1,0,.15,0c-.26-.89-.51-1.8-.69-2.71l.19,0c0,.07.15.07.15,0a15.65,15.65,0,0,1,.45-4A7.12,7.12,0,0,1,4.37,2.79c.07-.06,0-.17-.11-.1L3.87,3,3.5,2.82a7.79,7.79,0,0,1,.76-.64A7.17,7.17,0,0,1,8.84.82c-1.15.67-2.29,1.31-2.65,2.69a13.45,13.45,0,0,0-.25,3,13.55,13.55,0,0,0,.25,3.24.08.08,0,0,0-.12.08c.2.95.44,1.9.61,2.86a6.63,6.63,0,0,1,0,3.13c0,.09.12.13.15,0A6.57,6.57,0,0,0,6.89,13c-.15-1-.41-2-.62-3,.79,2.48,4.37,2.05,6.31,1.35.29-.11.56-.23.83-.36h0c.22,1.42.68,2.79.94,4.2s.44,3.05.59,4.57.26,2.88.27,4.34a16.89,16.89,0,0,0,.43,4.37c0,.09.17.05.14,0A11,11,0,0,1,15.47,26.68ZM14.73,23c0,.09.16.05.14,0a7.86,7.86,0,0,0-.69-2c-.32-.71-.62-1.42-.94-2.14-.69-1.53-1.44-3-2.17-4.55a.08.08,0,0,0-.14.07c.7,1.43,1.4,2.85,2.06,4.3.32.71.62,1.44.95,2.16A8.54,8.54,0,0,1,14.73,23Zm-2.18,5.19a.08.08,0,0,0,.15,0,33.47,33.47,0,0,0-1-6.75.08.08,0,0,0-.15,0A33,33,0,0,1,12.55,28.16Zm-2.18-4.23a.08.08,0,0,0,.15,0A33.52,33.52,0,0,1,9.2,17.63c0-.1-.16-.1-.15,0A33.93,33.93,0,0,0,10.37,23.93Zm-.3,4.46a.08.08,0,0,0,.07-.13s0,0,0,0a7.67,7.67,0,0,1-1.58-2.47l0,0h.11a.07.07,0,1,0,0-.15H8.4c-.41,0-.82.11-1.23.15s-1.36.15-1.46-.4l0,0h0a.08.08,0,0,0,0-.1A6.62,6.62,0,0,1,4.5,23a20.58,20.58,0,0,1-.82-2.52A53.81,53.81,0,0,1,3,13.63c0-.1-.16-.1-.15,0a60.63,60.63,0,0,0,.71,6.86,19.69,19.69,0,0,0,.9,2.72c.15.36.3.74.48,1.09a4.24,4.24,0,0,0,.67,1,.06.06,0,0,0,0,.07.54.54,0,0,0,.27.38h0C5.3,27,4.34,28,4,29.26a.07.07,0,0,0,.09.09l.07,0a14.16,14.16,0,0,0,2.2-1.45A8,8,0,0,0,7,29.41a.09.09,0,0,0,0,.06.08.08,0,0,0,.13,0c.3-.43.33-1,.7-1.41C8.42,27.5,9.47,28.3,10.07,28.39ZM8.75,25.65c0,.1.17.05.14,0a16,16,0,0,0-1-2.83,13.21,13.21,0,0,1-1-3.12c-.37-2.1-.26-4.25-.59-6.36,0-.09-.16-.05-.14,0,.32,2.1.23,4.25.59,6.35a11.54,11.54,0,0,0,.9,2.91A17.39,17.39,0,0,1,8.75,25.65ZM7.31,1.53c.07-.06,0-.17-.11-.11A7.71,7.71,0,0,0,4.81,5.16a.46.46,0,0,0-.12.4h0A13.67,13.67,0,0,0,4.29,8c0,.1.15.1.15,0A14,14,0,0,1,4.81,5.7a.41.41,0,0,0,.22,0,.52.52,0,0,0,.35-.18.29.29,0,0,0-.1-.38.83.83,0,0,0-.16-.12A.08.08,0,0,0,5,5.11v0H5A7.55,7.55,0,0,1,7.31,1.53ZM3.23,5.14c0-.09-.14-.14-.15,0a26,26,0,0,0-.56,6.4c0,.1.16.1.15,0A26.2,26.2,0,0,1,3.23,5.14Z" transform="translate(-0.04 -0.04)"/><path class="cls-1" d="M15.78,28.45c0,.09-.12.13-.14,0a16.89,16.89,0,0,1-.43-4.37c0-1.46-.14-2.89-.27-4.34s-.31-3.06-.59-4.57-.72-2.78-.94-4.2h0l.12-.07,0,0c.23,1.46.71,2.87,1,4.32s.4,2.8.54,4.21.29,3,.31,4.46c0,.77,0,1.54.06,2.3a.07.07,0,0,0,0,.09l.09.32A11,11,0,0,0,15.78,28.45Z" transform="translate(-0.04 -0.04)"/><path class="cls-1" d="M15.43,26.27c0,.14,0,.27,0,.41l-.09-.32A.07.07,0,0,1,15.43,26.27Z" transform="translate(-0.04 -0.04)"/><path class="cls-1" d="M15,5.08c.24.52.62,1.3.35,1.88s-.88.37-1.35.37c-.2,0-.41,0-.61,0v0a.09.09,0,0,0-.09-.07V7.18h.86c.36,0,1,.1,1.08-.35A2.05,2.05,0,0,0,15,5.59a7.13,7.13,0,0,0-.73-1.36A1,1,0,0,0,14.34,4,10.18,10.18,0,0,1,15,5.08Z" transform="translate(-0.04 -0.04)"/><path class="cls-3" d="M15,5.59a2.05,2.05,0,0,1,.19,1.24c-.11.45-.72.36-1.08.35h-.86c-.84,0-1.69.11-2.53.18-1.29.11-2.6-.1-3.89-.05-.1,0-.1.16,0,.16,1.2,0,2.4.11,3.6.06.92,0,1.84-.15,2.76-.19.13,1.07,0,2.16.2,3.22a.07.07,0,0,0,.09,0s0,.05-.06.07,0,.1,0,.13a8.3,8.3,0,0,1-3.54.94c-1.26.06-2.77-.21-3.38-1.45A4.23,4.23,0,0,1,6.22,9,14.57,14.57,0,0,1,6.08,7.3a25.63,25.63,0,0,1,.16-3.16,3.07,3.07,0,0,1,.92-2,9.91,9.91,0,0,1,2-1.29l.38,0A6.19,6.19,0,0,1,13.6,3.3c0,.05.09.1.13.16a1.47,1.47,0,0,1-.17.72l-.15.29-.15.31a.08.08,0,0,0,.13.08l.11-.24a.64.64,0,0,1,.22.24l0,0L13.63,5c-.07.06,0,.17.11.1a2.13,2.13,0,0,0,.55-.89A7.13,7.13,0,0,1,15,5.59ZM11.26,4.27a.67.67,0,0,0,0-.65,1.53,1.53,0,0,0-.41-.47A.66.66,0,0,0,11,2.88a.08.08,0,0,0-.14-.08.44.44,0,0,1-.17.23s0,0,0,0L10.56,3a.57.57,0,0,0,.11-.36c0-.1-.15-.1-.15,0a.34.34,0,0,1-.11.29,2.06,2.06,0,0,0-.35-.12.46.46,0,0,1,0-.23c0-.09-.1-.17-.14-.08a.66.66,0,0,0-.05.28,1.72,1.72,0,0,0-.45,0,.47.47,0,0,0,0-.17.07.07,0,1,0-.15,0,.35.35,0,0,1,0,.17.11.11,0,0,0,0,.08l-.14,0a.62.62,0,0,1-.08-.24.07.07,0,0,0-.15,0,.87.87,0,0,0,.1.31.55.55,0,0,0-.28.49.07.07,0,0,0-.12.06.22.22,0,0,0,0,.08.93.93,0,0,1-1,.31.07.07,0,1,0,0,.14l.1,0a.07.07,0,0,0,.07.08h.09a.05.05,0,0,0,.06,0,2.92,2.92,0,0,1,1.1.1H9l.16.13h0a.08.08,0,0,0,.11,0l.23.17,0,.06s0,.09,0,.15.14.09.15,0,0-.09.05-.14l.25.11A.88.88,0,0,0,10,5c0,.09.17,0,.14-.08a.28.28,0,0,1,0-.15h0a.69.69,0,0,0,.24,0,.65.65,0,0,1,0,.19.07.07,0,1,0,.15,0,1.09,1.09,0,0,0,0-.18.86.86,0,0,0,.39-.13h0l.1.06a.08.08,0,0,0,.11-.11l-.08,0a1.54,1.54,0,0,0,.24-.26A.05.05,0,0,0,11.26,4.27Z" transform="translate(-0.04 -0.04)"/><path class="cls-1" d="M14.87,22.92c0,.1-.13.14-.14,0a8.54,8.54,0,0,0-.79-2.24c-.33-.72-.63-1.45-.95-2.16-.66-1.45-1.36-2.87-2.06-4.3a.08.08,0,0,1,.14-.07c.73,1.51,1.48,3,2.17,4.55.32.72.62,1.43.94,2.14A7.86,7.86,0,0,1,14.87,22.92Z" transform="translate(-0.04 -0.04)"/><path class="cls-1" d="M13.76,3.13a.73.73,0,0,1,.58.86l-.14-.21a0,0,0,0,1,0,0,.56.56,0,0,0-.31-.42.36.36,0,0,1,0-.1.07.07,0,0,0-.12,0l0-.06Z" transform="translate(-0.04 -0.04)"/><path class="cls-1" d="M14.34,4a1,1,0,0,1-.05.24,1.63,1.63,0,0,0-.11-.17.88.88,0,0,0,0-.28Z" transform="translate(-0.04 -0.04)"/><path class="cls-1" d="M14.18,4.06a1.63,1.63,0,0,1,.11.17,2.13,2.13,0,0,1-.55.89c-.07.07-.18,0-.11-.1l.12-.13c.06,0,.14,0,.1-.11h0l.07-.1c.05.09.18,0,.13-.08l0-.07.07-.15v0c0,.08.17,0,.13-.08a.75.75,0,0,0-.07-.12A.5.5,0,0,0,14.18,4.06Z" transform="translate(-0.04 -0.04)"/><path class="cls-1" d="M14.22,4.31c0,.09-.09.16-.13.08v0l.07-.18A.75.75,0,0,1,14.22,4.31Z" transform="translate(-0.04 -0.04)"/><path class="cls-3" d="M14.2,3.78a.88.88,0,0,1,0,.28.5.5,0,0,1,0,.13A1,1,0,0,0,14,4c0-.06-.11-.1-.16-.15s0,0,0,0a1.6,1.6,0,0,0,.05-.21v0a2.09,2.09,0,0,0,0-.25v0a.56.56,0,0,1,.31.42A0,0,0,0,0,14.2,3.78Z" transform="translate(-0.04 -0.04)"/><path class="cls-1" d="M14.15,4.19l-.07.18a1.59,1.59,0,0,0-.18-.27L13.79,4a.42.42,0,0,0,0-.15s0,0,0,0S14,4,14,4A1,1,0,0,1,14.15,4.19Z" transform="translate(-0.04 -0.04)"/><path class="cls-1" d="M14.05,4.59c0,.09-.08.17-.13.08h0L14,4.52Z" transform="translate(-0.04 -0.04)"/><path class="cls-3" d="M14.08,4.37,14,4.52a1.37,1.37,0,0,0-.29-.34A1.34,1.34,0,0,0,13.79,4l.11.1A1.59,1.59,0,0,1,14.08,4.37Z" transform="translate(-0.04 -0.04)"/><path class="cls-1" d="M14,4.52l-.09.15a1.31,1.31,0,0,0-.27-.35.61.61,0,0,0,.07-.14A1.37,1.37,0,0,1,14,4.52Z" transform="translate(-0.04 -0.04)"/><path class="cls-3" d="M13.92,4.67h0l-.07.1a.83.83,0,0,0-.28-.28,1.3,1.3,0,0,0,.08-.17A1.31,1.31,0,0,1,13.92,4.67Z" transform="translate(-0.04 -0.04)"/><path class="cls-1" d="M13.88,3.36a2.09,2.09,0,0,1,0,.25v0l-.15-.18a.65.65,0,0,0,0-.19h0l.13,0Z" transform="translate(-0.04 -0.04)"/><path class="cls-1" d="M13.88,3.33v0l0,0Z" transform="translate(-0.04 -0.04)"/><path class="cls-1" d="M13.86,3.23a.36.36,0,0,0,0,.1h0l-.11-.13A.07.07,0,0,1,13.86,3.23Z" transform="translate(-0.04 -0.04)"/><path class="cls-1" d="M13.85,4.78c0,.07,0,.13-.1.11l.1-.12Z" transform="translate(-0.04 -0.04)"/><path class="cls-1" d="M13.88,3.64a1.6,1.6,0,0,1-.05.21.07.07,0,0,0-.06.12l0,0a1.34,1.34,0,0,1-.07.18l-.05,0a.07.07,0,0,0-.1,0h0a1.47,1.47,0,0,0,.17-.72Z" transform="translate(-0.04 -0.04)"/><path class="cls-1" d="M13.83,3.85a.42.42,0,0,1,0,.15l0,0A.07.07,0,0,1,13.83,3.85Z" transform="translate(-0.04 -0.04)"/><path class="cls-1" d="M13.85,4.77l-.1.12,0,0a.64.64,0,0,0-.22-.24.83.83,0,0,0,.07-.13A.83.83,0,0,1,13.85,4.77Z" transform="translate(-0.04 -0.04)"/><path class="cls-1" d="M13.74,3.19l.11.13-.13,0h0A.1.1,0,0,1,13.74,3.19Z" transform="translate(-0.04 -0.04)"/><path class="cls-1" d="M13.71,3.27a.65.65,0,0,1,0,.19c0-.06-.09-.11-.13-.16A6.19,6.19,0,0,0,9.5.87l-.38,0A.07.07,0,0,0,9.05.7s0,0,0,0a6,6,0,0,1,2.89.88A8.21,8.21,0,0,1,13.7,3.13a.08.08,0,0,0,0,.14Z" transform="translate(-0.04 -0.04)"/><path class="cls-1" d="M13.72,4.18a.61.61,0,0,1-.07.14l-.05,0a.08.08,0,0,1,0-.1.07.07,0,0,1,.1,0Z" transform="translate(-0.04 -0.04)"/><path class="cls-1" d="M13.7,3.13l0,.06a.1.1,0,0,0,0,.08h0A.08.08,0,0,1,13.7,3.13Z" transform="translate(-0.04 -0.04)"/><path class="cls-1" d="M13.61,10.72a.08.08,0,0,1,.06.14l-.14.08s-.12,0-.12.07c-.27.13-.54.25-.83.36-1.94.7-5.52,1.13-6.31-1.35l-.06-.26s0,0,0,0h0a13.55,13.55,0,0,1-.25-3.24,13.45,13.45,0,0,1,.25-3c.36-1.38,1.5-2,2.65-2.69h.28a9.91,9.91,0,0,0-2,1.29,3.07,3.07,0,0,0-.92,2A25.63,25.63,0,0,0,6.08,7.3,14.57,14.57,0,0,0,6.22,9a4.23,4.23,0,0,0,.31,1.26c.61,1.24,2.12,1.51,3.38,1.45a8.3,8.3,0,0,0,3.54-.94h.07A.26.26,0,0,0,13.61,10.72Z" transform="translate(-0.04 -0.04)"/><path class="cls-1" d="M13.66,10.54a.27.27,0,0,1-.05.18h0l-.15.08s-.07-.1,0-.13.06,0,.06-.07a.1.1,0,0,0,.06-.09.06.06,0,0,1,0,0A.07.07,0,0,1,13.66,10.54Z" transform="translate(-0.04 -0.04)"/><path class="cls-1" d="M13.6,4.28l.05,0a1.3,1.3,0,0,1-.08.17.1.1,0,0,0-.05,0,.06.06,0,0,0-.1,0h0l.15-.29h0A.08.08,0,0,0,13.6,4.28Z" transform="translate(-0.04 -0.04)"/><path class="cls-1" d="M13.6,10.73h0a.26.26,0,0,1-.09.09h-.07Z" transform="translate(-0.04 -0.04)"/><path class="cls-1" d="M13.57,4.49a.83.83,0,0,1-.07.13l-.06,0a.08.08,0,0,1,0-.1.06.06,0,0,1,.1,0A.1.1,0,0,1,13.57,4.49Z" transform="translate(-0.04 -0.04)"/><path class="cls-1" d="M13.56,10.52a.1.1,0,0,1-.06.09.15.15,0,0,0,0-.07.07.07,0,0,1,0-.06A.06.06,0,0,0,13.56,10.52Z" transform="translate(-0.04 -0.04)"/><path class="cls-1" d="M13.41,11c0-.07.08-.11.12-.07Z" transform="translate(-0.04 -0.04)"/><path class="cls-1" d="M13.55,10.48a.07.07,0,0,0,0,.06.15.15,0,0,1,0,.07.07.07,0,0,1-.09,0c-.19-1.06-.07-2.15-.2-3.22h.15C13.49,8.38,13.37,9.43,13.55,10.48Z" transform="translate(-0.04 -0.04)"/><path class="cls-1" d="M13.44,4.58l.06,0-.11.24a.08.08,0,0,1-.13-.08l.15-.31h0A.08.08,0,0,0,13.44,4.58Z" transform="translate(-0.04 -0.04)"/><path class="cls-1" d="M13.36,7.3v0h-.15a.06.06,0,0,1,0,0,.06.06,0,0,1,.07-.07A.09.09,0,0,1,13.36,7.3Z" transform="translate(-0.04 -0.04)"/><path class="cls-1" d="M13.27,7.18v.05a.06.06,0,0,0-.07.07.06.06,0,0,0,0,0c-.92,0-1.84.15-2.76.19-1.2,0-2.4-.11-3.6-.06-.1,0-.1-.15,0-.16,1.29,0,2.6.16,3.89.05C11.58,7.29,12.43,7.21,13.27,7.18Z" transform="translate(-0.04 -0.04)"/><path class="cls-1" d="M12.7,28.16a.07.07,0,0,1-.15,0,33,33,0,0,0-1-6.71.08.08,0,0,1,.15,0A33.47,33.47,0,0,1,12.7,28.16Z" transform="translate(-0.04 -0.04)"/><path class="cls-1" d="M11.21,3.62a.67.67,0,0,1,0,.65.07.07,0,0,0-.12,0,1.21,1.21,0,0,1-.27.28h0a0,0,0,0,0,0,0h0a.68.68,0,0,1-.38.12h0a.06.06,0,0,0-.06,0c.28,0,.71-.18.78-.49a.76.76,0,0,0-.26-.66A2,2,0,0,0,10,3a.06.06,0,0,0,0-.06V2.81a2.06,2.06,0,0,1,.35.12h0a.07.07,0,1,0,.07.13A.24.24,0,0,0,10.56,3l.12.07a.07.07,0,0,0,.11.09h0A1.53,1.53,0,0,1,11.21,3.62Z" transform="translate(-0.04 -0.04)"/><path class="cls-1" d="M11.26,4.27a.05.05,0,0,1,0,.08,1.54,1.54,0,0,1-.24.26h0s0,0,0,0A.81.81,0,0,0,11.26,4.27Z" transform="translate(-0.04 -0.04)"/><path class="cls-1" d="M11.26,4.27a.81.81,0,0,1-.27.32l0,0a.08.08,0,0,0-.08,0,1.21,1.21,0,0,0,.27-.28A.07.07,0,0,1,11.26,4.27Z" transform="translate(-0.04 -0.04)"/><path class="cls-3" d="M10.92,3.49a.76.76,0,0,1,.26.66c-.07.31-.5.46-.78.49h0a1.1,1.1,0,0,1-.31,0h0l0,0a3.73,3.73,0,0,1-.79-.5h0L9.12,4c-.34-.44-.26-.91.33-1a.06.06,0,0,0,.05-.06,1.91,1.91,0,0,1,.42,0A.07.07,0,0,0,10,3,2,2,0,0,1,10.92,3.49Z" transform="translate(-0.04 -0.04)"/><path class="cls-1" d="M11.11,4.66a.08.08,0,0,1-.11.11l-.1-.06.13-.1h0Z" transform="translate(-0.04 -0.04)"/><path class="cls-1" d="M10.88,2.8a.08.08,0,0,1,.14.08.66.66,0,0,1-.22.27l-.12-.08s0,0,0,0A.44.44,0,0,0,10.88,2.8Z" transform="translate(-0.04 -0.04)"/><path class="cls-1" d="M11,4.59s0,0,0,0l-.13.1h0l-.05,0Z" transform="translate(-0.04 -0.04)"/><path class="cls-1" d="M11,4.56l0,0-.14.08h0a.07.07,0,0,1,0-.1h0a0,0,0,0,1,0,0h0A.08.08,0,0,1,11,4.56Z" transform="translate(-0.04 -0.04)"/><path class="cls-1" d="M10.85,4.67l.05,0a.86.86,0,0,1-.39.13s0,0,0-.06a1.37,1.37,0,0,0,.36-.11Z" transform="translate(-0.04 -0.04)"/><path class="cls-1" d="M10.84,4.57a.07.07,0,0,0,0,.1,1.37,1.37,0,0,1-.36.11.16.16,0,0,0,0-.09A.68.68,0,0,0,10.84,4.57Z" transform="translate(-0.04 -0.04)"/><path class="cls-1" d="M10.8,3.15h0a.07.07,0,0,1-.11-.09Z" transform="translate(-0.04 -0.04)"/><path class="cls-1" d="M10.52,2.64c0-.1.16-.1.15,0a.57.57,0,0,1-.11.36l-.15-.07A.34.34,0,0,0,10.52,2.64Z" transform="translate(-0.04 -0.04)"/><path class="cls-1" d="M10.41,2.93l.15.07a.24.24,0,0,1-.08.06.07.07,0,1,1-.07-.13Z" transform="translate(-0.04 -0.04)"/><path class="cls-1" d="M10.52,23.89a.08.08,0,0,1-.15,0,33.93,33.93,0,0,1-1.32-6.3c0-.1.14-.1.15,0A33.52,33.52,0,0,0,10.52,23.89Z" transform="translate(-0.04 -0.04)"/><path class="cls-1" d="M10.51,4.84a1.09,1.09,0,0,1,0,.18.07.07,0,1,1-.15,0,.65.65,0,0,0,0-.19Z" transform="translate(-0.04 -0.04)"/><path class="cls-1" d="M10.51,4.84h-.16a0,0,0,0,0,0,0h.15S10.5,4.82,10.51,4.84Z" transform="translate(-0.04 -0.04)"/><path class="cls-1" d="M10.46,4.69a.16.16,0,0,1,0,.09h-.15s0,0,0,0a.08.08,0,0,1,0-.07Z" transform="translate(-0.04 -0.04)"/><path class="cls-1" d="M10.46,4.69h-.13s0,0,.06-.05h0a.06.06,0,0,1,.06,0Z" transform="translate(-0.04 -0.04)"/><path class="cls-1" d="M10.39,4.64s-.05,0-.06.05a1.34,1.34,0,0,1-.27-.07,1.1,1.1,0,0,0,.31,0Z" transform="translate(-0.04 -0.04)"/><path class="cls-1" d="M10.34,4.8a0,0,0,0,1,0,0,.69.69,0,0,1-.24,0A.93.93,0,0,0,10.34,4.8Z" transform="translate(-0.04 -0.04)"/><path class="cls-1" d="M10.34,4.8a.93.93,0,0,1-.23,0h0a.37.37,0,0,1,0-.11.05.05,0,0,0,0,0h0a1.34,1.34,0,0,0,.27.07.08.08,0,0,0,0,.07S10.34,4.78,10.34,4.8Z" transform="translate(-0.04 -0.04)"/><path class="cls-1" d="M10,28.36l.07-.12h0s0,0,0,0a.08.08,0,0,1-.07.13c-.6-.09-1.65-.89-2.2-.33-.37.38-.4,1-.7,1.41a.08.08,0,0,1-.13,0,.09.09,0,0,1,0-.06l0,0h.13l-.06-.12h0c.28-.49.33-1.18.86-1.46s1.3.19,1.91.38A1.29,1.29,0,0,0,10,28.36Z" transform="translate(-0.04 -0.04)"/><path class="cls-1" d="M10.12,28.23h0l-.23,0a7.54,7.54,0,0,1-1.47-2.36c.06.05.15,0,.1-.11l0,0A7.67,7.67,0,0,0,10.12,28.23Z" transform="translate(-0.04 -0.04)"/><path class="cls-1" d="M10,2.5c0-.09.17,0,.14.08a.46.46,0,0,0,0,.23l-.14,0A.66.66,0,0,1,10,2.5Z" transform="translate(-0.04 -0.04)"/><path class="cls-1" d="M10.11,4.93c0,.09-.1.17-.14.08a.88.88,0,0,1-.06-.27l.16,0A.28.28,0,0,0,10.11,4.93Z" transform="translate(-0.04 -0.04)"/><path class="cls-1" d="M10.11,28.24l-.07.12a1.29,1.29,0,0,1-.16-.17Z" transform="translate(-0.04 -0.04)"/><path class="cls-1" d="M10.07,4.77h0Z" transform="translate(-0.04 -0.04)"/><path class="cls-1" d="M10.07,4.77h0l-.16,0v0Z" transform="translate(-0.04 -0.04)"/><path class="cls-1" d="M10.06,4.66a.37.37,0,0,0,0,.11l-.16-.06v0A.06.06,0,0,1,10,4.6H10A.05.05,0,0,1,10.06,4.66Z" transform="translate(-0.04 -0.04)"/><path class="cls-1" d="M10.06,2.81v.08A.06.06,0,0,1,10,3l-.11,0s0,0,0,0a.45.45,0,0,1,0-.11Z" transform="translate(-0.04 -0.04)"/><path class="cls-1" d="M10.05,4.62h0Z" transform="translate(-0.04 -0.04)"/><path class="cls-1" d="M10,4.61h0Z" transform="translate(-0.04 -0.04)"/><path class="cls-1" d="M10,4.59l0,0Z" transform="translate(-0.04 -0.04)"/><path class="cls-1" d="M10,3a.07.07,0,0,1-.11,0Z" transform="translate(-0.04 -0.04)"/><path class="cls-1" d="M10,4.59h0a1.8,1.8,0,0,1-.76-.51A3.73,3.73,0,0,0,10,4.59Z" transform="translate(-0.04 -0.04)"/><path class="cls-1" d="M10,4.6a.06.06,0,0,0-.06.06v0l-.26-.14h0L9.3,4.33l0,0A3.58,3.58,0,0,1,9,3.92H9l.21.17h0A1.8,1.8,0,0,0,10,4.6Z" transform="translate(-0.04 -0.04)"/><path class="cls-1" d="M9.92,2.78a.45.45,0,0,0,0,.11s0,0,0,0a1.91,1.91,0,0,0-.42,0,.08.08,0,0,0-.05-.09s0,0,0-.06A1.72,1.72,0,0,1,9.92,2.78Z" transform="translate(-0.04 -0.04)"/><path class="cls-1" d="M9.91,4.71v0l-.25-.11h0s0,0,0,0Z" transform="translate(-0.04 -0.04)"/><path class="cls-1" d="M9.66,4.62h0l-.12-.07a.06.06,0,0,1,.07,0h0S9.66,4.59,9.66,4.62Z" transform="translate(-0.04 -0.04)"/><path class="cls-1" d="M9.62,4.55h0Z" transform="translate(-0.04 -0.04)"/><path class="cls-1" d="M9.66,4.63s-.05.09-.05.14-.16.1-.15,0,0-.1,0-.15l0-.06h0Z" transform="translate(-0.04 -0.04)"/><path class="cls-1" d="M9.61,4.55a.06.06,0,0,0-.07,0h0L9.3,4.39a.06.06,0,0,0,0-.06Z" transform="translate(-0.04 -0.04)"/><path class="cls-1" d="M9.45,2.82a.08.08,0,0,1,.05.09H9.45a.11.11,0,0,1-.09-.06.06.06,0,0,0,.09,0Z" transform="translate(-0.04 -0.04)"/><path class="cls-1" d="M9.5,2.59a.47.47,0,0,1,0,.17H9.41s-.05,0-.05.06h0a.11.11,0,0,1,0-.08.35.35,0,0,0,0-.17A.07.07,0,1,1,9.5,2.59Z" transform="translate(-0.04 -0.04)"/><path class="cls-1" d="M9.45,2.92H9.5A.06.06,0,0,1,9.45,3c-.59.09-.67.56-.33,1l.09.12L9,3.92l0,0s-.05,0-.07,0l0,0c.07-.07,0-.17-.1-.11a.14.14,0,0,1,0-.06.13.13,0,0,1,0-.06V3.5a.06.06,0,0,0,0-.06A.55.55,0,0,1,9.05,3V3c0,.09.17,0,.13-.07a0,0,0,0,0,0,0l.14,0,0,0A.11.11,0,0,0,9.45,2.92Z" transform="translate(-0.04 -0.04)"/><path class="cls-1" d="M9.41,2.77h.06s0,0,0,.06H9.36S9.37,2.77,9.41,2.77Z" transform="translate(-0.04 -0.04)"/><path class="cls-1" d="M9.45,2.82h0a.06.06,0,0,1-.09,0v0h.09Z" transform="translate(-0.04 -0.04)"/><path class="cls-1" d="M9.36,2.83v0l0,0Z" transform="translate(-0.04 -0.04)"/><path class="cls-1" d="M9.3,4.33a.06.06,0,0,1,0,.06.18.18,0,0,0-.07,0l0,0Z" transform="translate(-0.04 -0.04)"/><path class="cls-1" d="M9.28,4.31l0,0,0,0h0A2.5,2.5,0,0,1,8.94,4L9,3.92A3.58,3.58,0,0,0,9.28,4.31Z" transform="translate(-0.04 -0.04)"/><path class="cls-1" d="M9.23,4.34a.18.18,0,0,1,.07,0,.08.08,0,0,1-.11,0h0A.56.56,0,0,1,9.23,4.34Z" transform="translate(-0.04 -0.04)"/><path class="cls-1" d="M9.26,4.3h0l-.17-.13h0l0,0h0L8.93,4h0A2.5,2.5,0,0,0,9.26,4.3Z" transform="translate(-0.04 -0.04)"/><path class="cls-1" d="M9.09,4.18l.17.13,0,0-.14-.15h0Z" transform="translate(-0.04 -0.04)"/><path class="cls-1" d="M9.23,4.34a.56.56,0,0,0-.05.08.67.67,0,0,1-.11-.14.1.1,0,0,0,0-.09Z" transform="translate(-0.04 -0.04)"/><path class="cls-1" d="M9.19,2.91c0,.08-.08.16-.13.07V3l.13-.07A0,0,0,0,1,9.19,2.91Z" transform="translate(-0.04 -0.04)"/><path class="cls-1" d="M9.05.7a.07.07,0,0,1,.07.13H8.84a.19.19,0,0,1,.09,0h0C9,.81,9.08.77,9.05.7Z" transform="translate(-0.04 -0.04)"/><path class="cls-3" d="M8.41,25.83a7.54,7.54,0,0,0,1.47,2.36C9.27,28,8.57,27.5,8,27.81s-.58,1-.86,1.46a7.86,7.86,0,0,1-.64-1.53.09.09,0,0,0-.12,0,20.58,20.58,0,0,1-2.17,1.46A35.37,35.37,0,0,1,6,25.82a0,0,0,0,0,0,0,2.23,2.23,0,0,0,.72.09,15.35,15.35,0,0,0,1.65-.16.36.36,0,0,0,.07.1Z" transform="translate(-0.04 -0.04)"/><path class="cls-1" d="M9.18,2.88,9.05,3A.87.87,0,0,1,9,2.64a.07.07,0,1,1,.15,0A.62.62,0,0,0,9.18,2.88Z" transform="translate(-0.04 -0.04)"/><path class="cls-1" d="M9.09,4.19a.1.1,0,0,1,0,.09L8.93,4.1l.1,0,0,0,0,0Z" transform="translate(-0.04 -0.04)"/><path class="cls-1" d="M9.18,4.42,9,4.29h.05A.67.67,0,0,0,9.18,4.42Z" transform="translate(-0.04 -0.04)"/><path class="cls-1" d="M9.09,4.18h0l0,0,0,0Z" transform="translate(-0.04 -0.04)"/><path class="cls-1" d="M9.09,4.18l0,0,0,0Z" transform="translate(-0.04 -0.04)"/><path class="cls-1" d="M9.05,4.14l0,0,0,0Z" transform="translate(-0.04 -0.04)"/><path class="cls-1" d="M9.05.7c0,.07-.07.11-.12.07L9,.7Z" transform="translate(-0.04 -0.04)"/><path class="cls-1" d="M9.07,4.28H9c-.06-.07-.13-.14-.19-.22l.1,0Z" transform="translate(-0.04 -0.04)"/><path class="cls-1" d="M9,.68s0,0,0,0H9L8.93.77h0s0,0,0,0,0,0,0-.06Z" transform="translate(-0.04 -0.04)"/><path class="cls-1" d="M9.05,4.14H9L8.89,4l0,0Z" transform="translate(-0.04 -0.04)"/><path class="cls-1" d="M9,4.13l-.1,0A.86.86,0,0,0,8.86,4a.09.09,0,0,1,0-.07s0,0,.06,0h0a0,0,0,0,1,0,0h0l0,0Z" transform="translate(-0.04 -0.04)"/><path class="cls-1" d="M9,4.29H9a2.92,2.92,0,0,0-1.1-.1A1.68,1.68,0,0,0,8.65,4h0a.08.08,0,0,0,.12,0h.05C8.89,4.15,9,4.22,9,4.29Z" transform="translate(-0.04 -0.04)"/><path class="cls-1" d="M9,3.92H9L8.94,4V4h0a.09.09,0,0,1,0,0h0s0,0,.07,0Z" transform="translate(-0.04 -0.04)"/><path class="cls-1" d="M9,.68H8.88c-.27-.57-1-.51-1.56-.4A9.7,9.7,0,0,0,5.5.88a7.92,7.92,0,0,0-1.67.84,6.9,6.9,0,0,0-1.76,2,11.39,11.39,0,0,0-1,1.94S1,5.6,1,5.68s0,.21,0,.31l-.24.44.24-.38v0c-.07.19-.12.38-.18.56a.08.08,0,0,0-.14,0h0a10.66,10.66,0,0,1,1.9-3.81,5.59,5.59,0,0,1,2-1.7C5,.91,5.55.68,6.08.48,6.87.19,8.61-.45,9,.68Z" transform="translate(-0.04 -0.04)"/><path class="cls-1" d="M8.83,3.75c.06-.06.17,0,.1.11l0,0h0A.69.69,0,0,1,8.83,3.75Z" transform="translate(-0.04 -0.04)"/><path class="cls-1" d="M8.93,4V4h0a0,0,0,0,0,0,0Z" transform="translate(-0.04 -0.04)"/><path class="cls-1" d="M8.93.77a.19.19,0,0,0-.09,0A7.17,7.17,0,0,0,4.26,2.18a7.79,7.79,0,0,0-.76.64A14.48,14.48,0,0,0,1.57,5.09l.14-.35a.06.06,0,0,0,0-.07h0C3.11,2.75,4.93,1,7.41.74A9,9,0,0,1,8.88.68s0,0,0,.06S8.91.76,8.93.77Z" transform="translate(-0.04 -0.04)"/><path class="cls-1" d="M8.89,3.89a.09.09,0,0,0,0,0s0,0-.06,0,0,0,0,0Z" transform="translate(-0.04 -0.04)"/><path class="cls-4" d="M8.89,25.61c0,.09-.12.14-.14,0a17.39,17.39,0,0,0-1.14-3,11.54,11.54,0,0,1-.9-2.91c-.36-2.1-.27-4.25-.59-6.35,0-.1.13-.14.14,0,.33,2.11.22,4.26.59,6.36a13.21,13.21,0,0,0,1,3.12A16,16,0,0,1,8.89,25.61Z" transform="translate(-0.04 -0.04)"/><path class="cls-1" d="M8.86,4a.86.86,0,0,1,.07.1l-.1,0a0,0,0,0,0,0,0s0,0,0,0h0s0-.06.06-.08A.09.09,0,0,0,8.86,4Z" transform="translate(-0.04 -0.04)"/><path class="cls-1" d="M8.89,3.89h0L8.81,4V3.76h0a.69.69,0,0,0,.05.13Z" transform="translate(-0.04 -0.04)"/><path class="cls-1" d="M8.81,3.76V4h0V3.77Z" transform="translate(-0.04 -0.04)"/><path class="cls-1" d="M8.81,3.76h0V3.68h0Z" transform="translate(-0.04 -0.04)"/><path class="cls-1" d="M8.8,4h0a.43.43,0,0,1,0,0V4Z" transform="translate(-0.04 -0.04)"/><polygon class="cls-1" points="8.77 3.92 8.76 3.92 8.76 3.92 8.77 3.92"/><path class="cls-1" d="M8.8,3.63a.13.13,0,0,0,0,.06h0Z" transform="translate(-0.04 -0.04)"/><path class="cls-1" d="M8.8,4h0V4Z" transform="translate(-0.04 -0.04)"/><path class="cls-1" d="M8.8,3.6v.07a.09.09,0,0,1,0,0v0Z" transform="translate(-0.04 -0.04)"/><path class="cls-1" d="M8.8,3.77V4L8.73,4H8.65a.15.15,0,0,1,0-.07l.06-.09Z" transform="translate(-0.04 -0.04)"/><path class="cls-1" d="M8.8,4H8.73L8.8,4Z" transform="translate(-0.04 -0.04)"/><path class="cls-1" d="M8.8,3.68v.09l-.08.06a.49.49,0,0,0,.06-.17s0,0,0,0a.09.09,0,0,0,0,0Z" transform="translate(-0.04 -0.04)"/><path class="cls-1" d="M8.8,3.5v.08S8.8,3.53,8.8,3.5Z" transform="translate(-0.04 -0.04)"/><path class="cls-1" d="M8.8,3.5s0,0,0,.08,0,0,0,0v0Z" transform="translate(-0.04 -0.04)"/><path class="cls-1" d="M8.8,4h0V4l0,0L8.66,4h0l.08,0Z" transform="translate(-0.04 -0.04)"/><path class="cls-1" d="M8.8,3.5h0V3.44A.06.06,0,0,1,8.8,3.5Z" transform="translate(-0.04 -0.04)"/><path class="cls-1" d="M8.79,3.58v0a.64.64,0,0,1,0-.07S8.79,3.57,8.79,3.58Z" transform="translate(-0.04 -0.04)"/><path class="cls-1" d="M8.79,3.62s0,0,0,0h0L8.65,3.6v0l0,0s.07,0,.1,0A.64.64,0,0,0,8.79,3.62Z" transform="translate(-0.04 -0.04)"/><path class="cls-1" d="M8.78,3.66a.49.49,0,0,1-.06.17l-.06,0V3.77l.12-.11Z" transform="translate(-0.04 -0.04)"/><path class="cls-1" d="M8.78,3.66l-.12.11a.91.91,0,0,1,0-.17Z" transform="translate(-0.04 -0.04)"/><path class="cls-1" d="M8.66,4l.12,0A.08.08,0,0,1,8.66,4Z" transform="translate(-0.04 -0.04)"/><path class="cls-1" d="M8.77,3.5v0s-.07,0-.1,0l0,0V3.5Z" transform="translate(-0.04 -0.04)"/><path class="cls-1" d="M8.77,3.44V3.5H8.65A.07.07,0,0,1,8.77,3.44Z" transform="translate(-0.04 -0.04)"/><path class="cls-2" d="M8.88.68A9,9,0,0,0,7.41.74c-2.48.29-4.3,2-5.72,3.93a.07.07,0,0,0-.13,0c-.07.17-.13.34-.19.51l-.27.48h0a.07.07,0,0,0,0,0,11.39,11.39,0,0,1,1-1.94,6.9,6.9,0,0,1,1.76-2A7.92,7.92,0,0,1,5.5.88,9.7,9.7,0,0,1,7.32.28C7.85.17,8.61.11,8.88.68Z" transform="translate(-0.04 -0.04)"/><path class="cls-4" d="M8.62,25.55a.08.08,0,1,1,0,.15H8.5a.2.2,0,0,1,0-.08l-.06,0v0Z" transform="translate(-0.04 -0.04)"/><path class="cls-1" d="M8.73,4,8.65,4V4Z" transform="translate(-0.04 -0.04)"/><path class="cls-1" d="M8.66,3.86l.06,0-.06.09Z" transform="translate(-0.04 -0.04)"/><path class="cls-1" d="M8.66,3.86v.06s0,0,0,0V3.86Z" transform="translate(-0.04 -0.04)"/><path class="cls-1" d="M8.66,3.86V3.79s0,0,0,0Z" transform="translate(-0.04 -0.04)"/><path class="cls-1" d="M8.66,3.92a.15.15,0,0,0,0,.07V3.94S8.65,3.92,8.66,3.92Z" transform="translate(-0.04 -0.04)"/><path class="cls-1" d="M8.66,3.77s0,0,0,0V3.6A.91.91,0,0,0,8.66,3.77Z" transform="translate(-0.04 -0.04)"/><path class="cls-1" d="M8.65,4H8.53a.94.94,0,0,0,.12-.09V4Z" transform="translate(-0.04 -0.04)"/><path class="cls-1" d="M8.65,3.88v.06A.94.94,0,0,1,8.53,4H8.25l.09,0A1.63,1.63,0,0,0,8.65,3.88Z" transform="translate(-0.04 -0.04)"/><path class="cls-1" d="M8.65,3.79v.09A1.63,1.63,0,0,1,8.34,4,1.49,1.49,0,0,0,8.65,3.79Z" transform="translate(-0.04 -0.04)"/><path class="cls-1" d="M8.65,3.6v.19a1.49,1.49,0,0,1-.31.2,1.81,1.81,0,0,1-.4,0h0a.06.06,0,0,0-.06,0l-.16,0A.06.06,0,0,1,7.76,4c.39,0,.82,0,.88-.4h0Z" transform="translate(-0.04 -0.04)"/><path class="cls-1" d="M8.65,3.5v.07h0A.22.22,0,0,1,8.65,3.5Z" transform="translate(-0.04 -0.04)"/><path class="cls-1" d="M8.64,3.58C8.58,4,8.15,4,7.76,4a.06.06,0,0,0-.07.07l-.1,0a.07.07,0,1,1,0-.14A.93.93,0,0,0,8.64,3.58Z" transform="translate(-0.04 -0.04)"/><path class="cls-1" d="M8.53,4h.12a1.68,1.68,0,0,1-.74.14v0A1.13,1.13,0,0,0,8.53,4Z" transform="translate(-0.04 -0.04)"/><path class="cls-1" d="M8.51,25.72c.05.07,0,.16-.1.11a0,0,0,0,1,0,0s0-.07,0-.09h.07Z" transform="translate(-0.04 -0.04)"/><path class="cls-1" d="M8.5,25.72h0Z" transform="translate(-0.04 -0.04)"/><path class="cls-1" d="M8.5,25.71H8.33a.08.08,0,0,1,.07-.11l.06,0A.2.2,0,0,0,8.5,25.71Z" transform="translate(-0.04 -0.04)"/><path class="cls-1" d="M8.45,25.71h0Z" transform="translate(-0.04 -0.04)"/><path class="cls-1" d="M8.44,25.71s-.06.05,0,.09a0,0,0,0,0,0,0h0a.36.36,0,0,1-.07-.1Z" transform="translate(-0.04 -0.04)"/><path class="cls-4" d="M8.4,25.56v0a.08.08,0,0,0-.07.11h0a15.35,15.35,0,0,1-1.65.16A2.23,2.23,0,0,1,6,25.79c0-.07-.09-.11-.13-.06a.54.54,0,0,1-.27-.38.06.06,0,0,1,0-.07h0s.08,0,.11,0l0,0c.1.55,1.06.43,1.46.4S8,25.59,8.4,25.56Z" transform="translate(-0.04 -0.04)"/><path class="cls-1" d="M8.25,4h.28a1.13,1.13,0,0,1-.62.12V4.08a1.27,1.27,0,0,0,.34,0Z" transform="translate(-0.04 -0.04)"/><path class="cls-1" d="M8.34,4,8.25,4H7.94A1.81,1.81,0,0,0,8.34,4Z" transform="translate(-0.04 -0.04)"/><path class="cls-1" d="M7.94,4h.31a1.27,1.27,0,0,1-.34,0V4h0Z" transform="translate(-0.04 -0.04)"/><path class="cls-1" d="M7.91,4.15v0a.05.05,0,0,1-.06,0Z" transform="translate(-0.04 -0.04)"/><path class="cls-1" d="M7.91,4.08v.07H7.85a.06.06,0,0,1,0-.06Z" transform="translate(-0.04 -0.04)"/><path class="cls-1" d="M7.91,4v0H7.85A.06.06,0,0,1,7.91,4Z" transform="translate(-0.04 -0.04)"/><path class="cls-1" d="M7.85,4.08a.06.06,0,0,0,0,.06H7.76a.07.07,0,0,1-.07-.08Z" transform="translate(-0.04 -0.04)"/><path class="cls-1" d="M7.2,1.42c.08-.06.18.05.11.11A7.55,7.55,0,0,0,5,5.08a.09.09,0,0,0-.13,0l-.05.08A7.71,7.71,0,0,1,7.2,1.42Z" transform="translate(-0.04 -0.04)"/><path class="cls-1" d="M7.17,29.39H7l.07-.12Z" transform="translate(-0.04 -0.04)"/><path class="cls-1" d="M7.11,29.27h0L7,29.39l0,0a8,8,0,0,1-.66-1.54l.08-.05-.11,0,0,.09a14.16,14.16,0,0,1-2.2,1.45v0c0-.05,0-.1,0-.15a20.58,20.58,0,0,0,2.17-1.46.09.09,0,0,1,.12,0A7.86,7.86,0,0,0,7.11,29.27Z" transform="translate(-0.04 -0.04)"/><path class="cls-1" d="M6.89,13a6.57,6.57,0,0,1-.07,2.86c0,.09-.18.05-.15,0a6.63,6.63,0,0,0,0-3.13c-.17-1-.41-1.91-.61-2.86a.08.08,0,0,1,.12-.08h0a2.45,2.45,0,0,0,.08.29C6.48,11,6.74,12,6.89,13Z" transform="translate(-0.04 -0.04)"/><path class="cls-1" d="M6.43,27.82l-.08.05,0-.09Z" transform="translate(-0.04 -0.04)"/><path class="cls-1" d="M6.21,9.76l.06.26a2.45,2.45,0,0,1-.08-.29S6.21,9.74,6.21,9.76Z" transform="translate(-0.04 -0.04)"/><path class="cls-1" d="M6,25.79a0,0,0,0,1,0,0,35.37,35.37,0,0,0-1.77,3.33L4,29.2l.1.1v0l-.07,0A.07.07,0,0,1,4,29.26C4.34,28,5.3,27,5.82,25.74h0Z" transform="translate(-0.04 -0.04)"/><path class="cls-1" d="M6,25.79l-.13-.06C5.87,25.68,6,25.72,6,25.79Z" transform="translate(-0.04 -0.04)"/><path class="cls-4" d="M5.69,25.17a.08.08,0,0,1,0,.1.08.08,0,0,0-.11,0h0a4.24,4.24,0,0,1-.67-1c-.18-.35-.33-.73-.48-1.09a19.69,19.69,0,0,1-.9-2.72,60.63,60.63,0,0,1-.71-6.86c0-.1.14-.1.15,0a53.81,53.81,0,0,0,.71,6.82A20.58,20.58,0,0,0,4.5,23,6.62,6.62,0,0,0,5.69,25.17Z" transform="translate(-0.04 -0.04)"/><path class="cls-1" d="M5.69,25.27h0s-.07.05-.11,0A.08.08,0,0,1,5.69,25.27Z" transform="translate(-0.04 -0.04)"/><path class="cls-1" d="M5.28,5.18a.29.29,0,0,1,.1.38A.52.52,0,0,1,5,5.74a.41.41,0,0,1-.22,0s0-.1,0-.15,0,0,0,0h0l0,0h.13a.35.35,0,0,0,.14-.06.18.18,0,0,0,.07-.08v0s0,0,0-.06A.58.58,0,0,0,5,5.19a.05.05,0,0,1,0-.06,0,0,0,0,0,0,0H5a.08.08,0,0,1,.12-.05A.83.83,0,0,1,5.28,5.18Z" transform="translate(-0.04 -0.04)"/><path class="cls-1" d="M5,5.11a0,0,0,0,1,0,0Z" transform="translate(-0.04 -0.04)"/><path class="cls-1" d="M5,5.11H5v0l0,.06s0-.09,0-.14Z" transform="translate(-0.04 -0.04)"/><path class="cls-1" d="M5,5.08H5s0,.1,0,.14a.56.56,0,0,0-.11.2.22.22,0,0,0,0,.08.08.08,0,0,0,0,0h0s0,.1,0,.15a.18.18,0,0,1-.11-.1s0,0,0,0h0l.12-.4.05-.08A.09.09,0,0,1,5,5.08Z" transform="translate(-0.04 -0.04)"/><path class="cls-1" d="M5,5.22c0,.11-.07.22-.1.33h0a.08.08,0,0,1,0,0,.22.22,0,0,1,0-.08A.56.56,0,0,1,5,5.22Z" transform="translate(-0.04 -0.04)"/><path class="cls-1" d="M4.81,5.16l-.12.4A.46.46,0,0,1,4.81,5.16Z" transform="translate(-0.04 -0.04)"/><path class="cls-1" d="M4.7,5.6a.18.18,0,0,0,.11.1A14,14,0,0,0,4.44,8c0,.1-.16.1-.15,0a13.67,13.67,0,0,1,.4-2.4S4.7,5.59,4.7,5.6Z" transform="translate(-0.04 -0.04)"/><path class="cls-1" d="M4.26,2.69c.08-.07.18,0,.11.1A7.12,7.12,0,0,0,2.06,6.3a15.65,15.65,0,0,0-.45,4c0,.09-.13.09-.15,0v0A14.68,14.68,0,0,1,2,6.06a7.3,7.3,0,0,1,1.9-3Z" transform="translate(-0.04 -0.04)"/><path class="cls-1" d="M4.18,29.15c0,.05,0,.1,0,.15L4,29.2Z" transform="translate(-0.04 -0.04)"/><path class="cls-2" d="M3.5,2.82,3.87,3a7.3,7.3,0,0,0-1.9,3,14.68,14.68,0,0,0-.51,4.28v0l-.19,0c0-.2-.07-.4-.11-.6-.06-.71-.1-1.42-.11-2.13a9.55,9.55,0,0,1,.52-2.57A14.48,14.48,0,0,1,3.5,2.82Z" transform="translate(-0.04 -0.04)"/><path class="cls-1" d="M3.08,5.1c0-.1.16,0,.15,0a26.2,26.2,0,0,0-.56,6.36c0,.1-.14.1-.15,0A26,26,0,0,1,3.08,5.1Z" transform="translate(-0.04 -0.04)"/><path class="cls-1" d="M2.27,25.73a.08.08,0,0,1-.15,0c-.2-2-.51-4.06-.8-6.09a21.83,21.83,0,0,1-.15-3.43c0-.78,0-1.55-.07-2.33,0-.09.15-.09.16,0,.08,1,.05,2.07.05,3.1A20.9,20.9,0,0,0,1.53,20C1.8,21.93,2.09,23.82,2.27,25.73Z" transform="translate(-0.04 -0.04)"/><path class="cls-1" d="M2.26,16.9c0,.1-.13.14-.14,0-.18-1-.37-2.07-.54-3.11s-.37-2.26-.5-3.39L1,9.9c.09.55.21,1.1.35,1.65C1.62,13.34,2,15.13,2.26,16.9Z" transform="translate(-0.04 -0.04)"/><path class="cls-1" d="M2,13.1a.08.08,0,1,1-.15,0c-.15-.53-.3-1.05-.44-1.59s-.15-1.17-.21-1.76c0,.2.07.4.11.6C1.45,11.3,1.7,12.21,2,13.1Z" transform="translate(-0.04 -0.04)"/><path class="cls-1" d="M1.69,4.67a.06.06,0,0,1,0,.07l-.14.35-.3.44c0-.11.07-.22.1-.32l.23-.42A.94.94,0,0,0,1.69,4.67Z" transform="translate(-0.04 -0.04)"/><path class="cls-1" d="M1.69,4.67h0a.94.94,0,0,1-.09.12l-.23.42c.06-.17.12-.34.19-.51A.07.07,0,0,1,1.69,4.67Z" transform="translate(-0.04 -0.04)"/><path class="cls-1" d="M1.41,33.53a6.38,6.38,0,0,1,.2,2.3c0,.09-.17.05-.15,0a8.16,8.16,0,0,0-.33-2.86A11.7,11.7,0,0,1,1,30.35c0-2,0-3.89,0-5.83a.07.07,0,0,1,.12-.06l0,.21c0,2,.09,4,0,6a9.26,9.26,0,0,0,0,1.49C1.21,32.6,1.31,33.07,1.41,33.53Z" transform="translate(-0.04 -0.04)"/><path class="cls-2" d="M1.08,10.44c.13,1.13.3,2.26.5,3.39l-.32.05c0-.09-.17-.09-.16,0,.06.78.07,1.55.07,2.33H.74v0a5.83,5.83,0,0,1-.25-.7c.08-1.39.23-2.77.36-4.15.06-.29.13-.57.2-.86v0Z" transform="translate(-0.04 -0.04)"/><path class="cls-1" d="M1.27,5.53l.3-.44a9.55,9.55,0,0,0-.52,2.57c0-.42,0-.84,0-1.26S1.19,5.82,1.27,5.53Z" transform="translate(-0.04 -0.04)"/><path class="cls-1" d="M1.1,5.69l.27-.48c0,.1-.06.21-.1.32l-.18.27A.41.41,0,0,0,1.1,5.69Z" transform="translate(-0.04 -0.04)"/><path class="cls-1" d="M1.25,24.65c0,.09-.13.13-.15,0v-.17a.06.06,0,0,0,0-.06,44.58,44.58,0,0,1-.79-6.4c0-.85,0-1.71.07-2.57,0,.14.08.28.12.41,0,.67,0,1.34,0,2a22.61,22.61,0,0,0,.28,3.49C.87,22.49,1.09,23.57,1.25,24.65Z" transform="translate(-0.04 -0.04)"/><path class="cls-1" d="M1.16,9.79c.06.59.13,1.17.21,1.76C1.23,11,1.11,10.45,1,9.9,1,9.18.9,8.46.9,7.73A8.47,8.47,0,0,1,1.06,6.4c0,.42,0,.84,0,1.26a7.57,7.57,0,0,0,0,1.26C1.08,9.21,1.12,9.5,1.16,9.79Z" transform="translate(-0.04 -0.04)"/><path class="cls-1" d="M1.09,5.8l.18-.27c-.08.29-.15.57-.21.87Z" transform="translate(-0.04 -0.04)"/><path class="cls-1" d="M1.1,24.52v.15l0-.21A.06.06,0,0,1,1.1,24.52Z" transform="translate(-0.04 -0.04)"/><path class="cls-1" d="M1.1,5.68h0L1,5.86l.09-.23A.07.07,0,0,1,1.1,5.68Z" transform="translate(-0.04 -0.04)"/><path class="cls-1" d="M1.1,5.69a.41.41,0,0,1,0,.11C1,5.88,1,6,1,6A1.09,1.09,0,0,1,1,5.86Z" transform="translate(-0.04 -0.04)"/><path class="cls-1" d="M1.09,5.8l0,.6A8.47,8.47,0,0,0,.9,7.73c0-.54,0-1.1,0-1.65L1,6C1,6,1,5.88,1.09,5.8Z" transform="translate(-0.04 -0.04)"/><path class="cls-1" d="M1.09,5.63,1,5.86.93,6c0-.1,0-.21,0-.31S1.05,5.59,1.09,5.63Z" transform="translate(-0.04 -0.04)"/><path class="cls-2" d="M1.08,10.44h0c0-.08-.13-.11-.15,0-.07.28-.14.57-.2.86h0s0,0,0,0h0c-.14.63-.27,1.27-.38,1.91,0-.47,0-.94,0-1.41.14-1.76.48-3.57.48-5.13,0,0,0,0,0,0,.06-.18.11-.37.18-.56,0,.55-.05,1.11,0,1.65a7.88,7.88,0,0,0,0,1.19c0,.33.07.65.12,1Z" transform="translate(-0.04 -0.04)"/><path class="cls-1" d="M1.16,9.79c0-.29-.08-.58-.1-.87a7.57,7.57,0,0,1,0-1.26C1.06,8.37,1.1,9.08,1.16,9.79Z" transform="translate(-0.04 -0.04)"/><path class="cls-1" d="M1.05,10.44v0c-.07.29-.14.57-.2.86v0c0-.09-.12-.1-.15,0,.06-.29.13-.58.2-.86C.92,10.33,1.05,10.36,1.05,10.44Z" transform="translate(-0.04 -0.04)"/><path class="cls-1" d="M.93,6,1,5.86A1.09,1.09,0,0,0,1,6l0,0Z" transform="translate(-0.04 -0.04)"/><path class="cls-1" d="M1,6l0,0v0Z" transform="translate(-0.04 -0.04)"/><path class="cls-1" d="M.93,6v.06l-.24.38Z" transform="translate(-0.04 -0.04)"/><path class="cls-1" d="M1,9.9C1,9.57.93,9.25.9,8.92a7.88,7.88,0,0,1,0-1.19C.9,8.46,1,9.18,1,9.9Z" transform="translate(-0.04 -0.04)"/><path class="cls-1" d="M.7,11.28c0-.08.16-.07.15,0v0c-.1.43-.19.86-.28,1.29,0-.43.09-.86.12-1.3h0s0,0,0,0Z" transform="translate(-0.04 -0.04)"/><path class="cls-1" d="M.76,6.68c0,1.56-.34,3.37-.48,5.13,0-.46,0-.93,0-1.39C.4,9.34.55,8.26.6,7.27Q.66,7,.75,6.64S.76,6.66.76,6.68Z" transform="translate(-0.04 -0.04)"/><path class="cls-1" d="M.74,16.17v0c0,.07-.1.12-.14,0S.51,16,.47,15.9s0-.29,0-.43A5.83,5.83,0,0,0,.74,16.17Z" transform="translate(-0.04 -0.04)"/><path class="cls-1" d="M.61,6.66a.08.08,0,0,1,.14,0Q.66,7,.6,7.27c0-.2,0-.4,0-.59Z" transform="translate(-0.04 -0.04)"/><path class="cls-1" d="M.57,12.61c.09-.43.18-.86.28-1.29C.72,12.7.57,14.08.49,15.47c0-.16-.08-.32-.11-.49C.43,14.19.5,13.4.57,12.61Z" transform="translate(-0.04 -0.04)"/><path class="cls-1" d="M.69,11.31c0,.44-.08.87-.12,1.3s-.17,1-.24,1.47c0-.29,0-.58,0-.86C.42,12.58.55,11.94.69,11.31Z" transform="translate(-0.04 -0.04)"/><path class="cls-1" d="M.61,6.66v0c0,.19,0,.39,0,.59a11.66,11.66,0,0,0-.28,2c0,.39,0,.78,0,1.17S.16,11.47.12,12A24.45,24.45,0,0,1,.26,8.26,12.39,12.39,0,0,1,.58,6.65Z" transform="translate(-0.04 -0.04)"/><path class="cls-2" d="M.6,7.27c0,1-.2,2.07-.32,3.15,0-.39,0-.78,0-1.17A11.66,11.66,0,0,1,.6,7.27Z" transform="translate(-0.04 -0.04)"/><path class="cls-1" d="M.33,14.08q.11-.74.24-1.47C.5,13.4.43,14.19.38,15a1.55,1.55,0,0,1,0-.21Z" transform="translate(-0.04 -0.04)"/><path class="cls-1" d="M.49,15.47c0,.14,0,.29,0,.43,0-.13-.09-.27-.12-.41l0-.51C.41,15.15.45,15.31.49,15.47Z" transform="translate(-0.04 -0.04)"/><path class="cls-1" d="M.38,15l0,.51c0-.14-.07-.28-.1-.42A.08.08,0,0,0,.34,15v-.22A1.55,1.55,0,0,0,.38,15Z" transform="translate(-0.04 -0.04)"/><path class="cls-1" d="M.34,14.77V15a.08.08,0,0,1-.09.08.29.29,0,0,1,0-.09,5.51,5.51,0,0,1,.06-.57C.3,14.53.32,14.65.34,14.77Z" transform="translate(-0.04 -0.04)"/><path class="cls-1" d="M.33,14.08v.69c0-.12,0-.24-.05-.36S.32,14.19.33,14.08Z" transform="translate(-0.04 -0.04)"/><path class="cls-1" d="M.33,14.08c0,.11,0,.22,0,.33,0-.23,0-.47-.06-.7s.05-.33.08-.49C.32,13.5.33,13.79.33,14.08Z" transform="translate(-0.04 -0.04)"/><path class="cls-1" d="M.28,11.81c0,.47,0,.94,0,1.41,0,.16,0,.32-.08.49A15.17,15.17,0,0,1,.28,11.81Z" transform="translate(-0.04 -0.04)"/><path class="cls-1" d="M.28,10.42c0,.46,0,.93,0,1.39a15.17,15.17,0,0,0-.05,1.9c0,.12,0,.24-.05.36L.12,12C.16,11.47.21,10.94.28,10.42Z" transform="translate(-0.04 -0.04)"/><path class="cls-1" d="M.29,14.41A5.51,5.51,0,0,0,.23,15a2,2,0,0,1,0-.24V14.6c0-.17,0-.35,0-.53s0-.24.05-.36C.24,13.94.26,14.18.29,14.41Z" transform="translate(-0.04 -0.04)"/><path class="cls-1" d="M.23,15a.29.29,0,0,0,0,.09h0A.25.25,0,0,0,.23,15Z" transform="translate(-0.04 -0.04)"/><path class="cls-1" d="M.23,15a.25.25,0,0,1,0,.08.09.09,0,0,1,0-.07v-.25A2,2,0,0,0,.23,15Z" transform="translate(-0.04 -0.04)"/><path class="cls-1" d="M.22,15.06l0,.39c0,.1-.16.1-.15,0,0-.36.06-.71.1-1.06,0,.12,0,.23,0,.35V15A.09.09,0,0,0,.22,15.06Z" transform="translate(-0.04 -0.04)"/><path class="cls-1" d="M.19,14.6v.14c0-.12,0-.23,0-.35h0c0-.1,0-.2,0-.3C.18,14.25.19,14.43.19,14.6Z" transform="translate(-0.04 -0.04)"/><path class="cls-1" d="M.18,14.07c0,.1,0,.2,0,.3A13.47,13.47,0,0,1,.12,12Z" transform="translate(-0.04 -0.04)"/></g></g></g></g></svg>