<svg xmlns="http://www.w3.org/2000/svg" viewBox="0 0 19.02 42.78"><defs><style>.cls-1{fill:#0f3331;}.cls-2{fill:#fff;}.cls-3{fill:#282828;}.cls-4{fill:none;stroke:#000;stroke-miterlimit:10;stroke-width:0.04px;}</style></defs><title>morten_figur</title><g id="Layer_2" data-name="Layer 2"><g id="nav"><g id="li"><g id="_Group_" data-name="&lt;Group&gt;"><path class="cls-1" d="M19,7.93c0,.06,0,.13-.11.1a16.08,16.08,0,0,1-2.27-1A10.46,10.46,0,0,0,15,6a39.75,39.75,0,0,0,3.87,1.78l0,.15.11-.1-.14,0a2.45,2.45,0,0,0-.08-.29A10.12,10.12,0,0,0,14.9,2.38,9.75,9.75,0,0,0,9.08.22C4.69.32,2.45,4.76,1.25,8.41l-.17,0v0a22.51,22.51,0,0,1,1-2.66A11.16,11.16,0,0,1,5.48,1.26,6.46,6.46,0,0,1,10.63.19,11.56,11.56,0,0,1,15.91,3,9.56,9.56,0,0,1,19,7.93Z" transform="translate(-0.02 -0.02)"/><path class="cls-1" d="M19,7.87l-.11.1,0-.15Z" transform="translate(-0.02 -0.02)"/><path class="cls-2" d="M18.74,7.53a2.45,2.45,0,0,1,.08.29A39.75,39.75,0,0,1,15,6c-.1,0-.19.1-.09.15h0c1.63.82,3.32,2,3.36,4A29.11,29.11,0,0,0,15.61,8.5l-.06,0c-.08,0-.13.06-.1.13.79,1.65,1.86,3.17,1.75,5.05a9.09,9.09,0,0,0-2.33-2.46h0a.51.51,0,0,0-.51-.42h0a76.84,76.84,0,0,1-9.6-.41L4.58,8.83a.1.1,0,0,0-.09-.09c1.34,0,2.69,0,4,0a.09.09,0,0,0,0-.18c-2.43,0-4.85.08-7.27-.15C2.45,4.76,4.69.32,9.08.22A9.75,9.75,0,0,1,14.9,2.38,10.12,10.12,0,0,1,18.74,7.53ZM9,5.83a.76.76,0,0,0,.62-1A1.31,1.31,0,0,0,8.6,4a.09.09,0,0,0-.11-.11,1,1,0,0,0-.83,1.21,1.23,1.23,0,0,0,.08.23.08.08,0,0,0,0,.07,1.38,1.38,0,0,0,1.4.94.09.09,0,0,0,0-.18,1.25,1.25,0,0,1-1.06-.48A1.42,1.42,0,0,0,9,5.83Z" transform="translate(-0.02 -0.02)"/><path class="cls-1" d="M16.64,7.07a3.94,3.94,0,0,1,1.77,3.25.08.08,0,0,1-.13.07c-.93-.44-1.63-1.25-2.58-1.66a2,2,0,0,1-.1-.21v0a29.11,29.11,0,0,1,2.63,1.67v.15a.57.57,0,0,1,.13-.08l-.13-.07c0-2-1.73-3.16-3.36-4Z" transform="translate(-0.02 -0.02)"/><path class="cls-1" d="M18.37,10.24a.57.57,0,0,0-.13.08v-.15Z" transform="translate(-0.02 -0.02)"/><path class="cls-1" d="M15.7,8.73c.82,1.65,1.86,3.2,1.66,5.13h0l-.15-.2c.11-1.88-1-3.4-1.75-5.05,0-.07,0-.16.1-.13l.06,0v0l-.1.13Z" transform="translate(-0.02 -0.02)"/><path class="cls-1" d="M17.36,13.86v.05a.09.09,0,0,1-.16,0,10,10,0,0,0-2.32-2.52,1.44,1.44,0,0,0-.05-.24h0a9.09,9.09,0,0,1,2.33,2.46,2.18,2.18,0,0,1,0,.25l.16-.05Z" transform="translate(-0.02 -0.02)"/><path class="cls-1" d="M17.2,13.66l.15.2-.16.05A2.18,2.18,0,0,0,17.2,13.66Z" transform="translate(-0.02 -0.02)"/><path class="cls-1" d="M16.94,28.58a.54.54,0,0,0,0-.11h-.11a20.07,20.07,0,0,1-1.67-3,2.84,2.84,0,0,1-.1-.45,7.81,7.81,0,0,1,0-1.53c.05-.78.09-1.56.09-2.35a58.28,58.28,0,0,0-1-9.85c0-.09.12-.13.13,0,.23,1.34.46,2.68.63,4,0,.26,0,.52,0,.78a.07.07,0,0,0,.09.07,42.52,42.52,0,0,1,.31,4.51c0,.85-.06,1.69-.07,2.54a6.61,6.61,0,0,0,.05,2.13c.34,1.18,1.24,2.1,1.75,3.2a.07.07,0,0,1-.07.1,3.07,3.07,0,0,1-1.71-.72,5.79,5.79,0,0,0-.54-.31c-.23-.1-.29.35-.35.47-.14.37-.3.73-.47,1.08,0,0-.05,0-.08,0v-.09h.09a1.44,1.44,0,0,1,0-.24c.21-.47.4-.94.58-1.43a.09.09,0,0,1,.09-.05c.77.31,1.44,1.07,2.3,1.11Z" transform="translate(-0.02 -0.02)"/><path class="cls-1" d="M16.88,28.47H17a.54.54,0,0,1,0,.11Z" transform="translate(-0.02 -0.02)"/><path class="cls-2" d="M15.21,25.47a20.07,20.07,0,0,0,1.67,3c-.86,0-1.53-.8-2.3-1.11a.09.09,0,0,0-.09.05c-.18.49-.37,1-.58,1.43,0-.54,0-1.49-.51-1.54a8.6,8.6,0,0,0-1.75.13l-.54.06.15-.11h0a.11.11,0,0,0,.12-.11,2.77,2.77,0,0,0,1.12-1.35c.07-.22.13-.44.19-.66a6.35,6.35,0,0,0,2.21-.18s.05,0,.05-.06h.13A2.84,2.84,0,0,0,15.21,25.47Z" transform="translate(-0.02 -0.02)"/><path class="cls-1" d="M15.6,8.52a2,2,0,0,0,.1.21l-.2-.08Z" transform="translate(-0.02 -0.02)"/><path class="cls-1" d="M16.64,7.07l-1.76-.88h0A.6.6,0,0,0,15,6,10.46,10.46,0,0,1,16.64,7.07Z" transform="translate(-0.02 -0.02)"/><path class="cls-3" d="M14.15,11.29a58.28,58.28,0,0,1,1,9.85c0,.79,0,1.57-.09,2.35a7.81,7.81,0,0,0,0,1.53H15a.07.07,0,0,0-.09-.07,6.15,6.15,0,0,1-2.14.17,19.59,19.59,0,0,0,.38-3.57,19.78,19.78,0,0,0-1.22-8.93c0-.09-.16,0-.12.07A19.18,19.18,0,0,1,13,21.06a23.07,23.07,0,0,1-.5,4.39l0,.16-.13,0a.07.07,0,0,0-.07-.09c-2.13.09-4.26.17-6.39.18h0c-.32-5.05-.74-10.11-1.15-15.16a76.52,76.52,0,0,0,9.58.41h0c.62,0,.46,1.44.46,1.82,0,.85.1,1.7.13,2.55-.17-1.35-.4-2.69-.63-4C14.27,11.16,14.13,11.2,14.15,11.29Z" transform="translate(-0.02 -0.02)"/><path class="cls-1" d="M14.92,12.25c0,1.27.17,2.54.15,3.81a.07.07,0,0,1-.05.07c0-.29-.07-.57-.11-.85,0-.85-.14-1.7-.13-2.55,0-.38.16-1.85-.46-1.82h0a.07.07,0,0,0,0-.14h0a.51.51,0,0,1,.51.42.09.09,0,0,0-.05.16l.1.08A5,5,0,0,1,14.92,12.25Z" transform="translate(-0.02 -0.02)"/><path class="cls-1" d="M15,16.13a.07.07,0,0,1-.09-.07c0-.26,0-.52,0-.78C15,15.56,15,15.84,15,16.13Z" transform="translate(-0.02 -0.02)"/><path class="cls-1" d="M15,25s0,0-.05.06a6.35,6.35,0,0,1-2.21.18l0-.14A6.15,6.15,0,0,0,14.89,25,.07.07,0,0,1,15,25Z" transform="translate(-0.02 -0.02)"/><path class="cls-1" d="M14.86,6.19c-.1-.05,0-.2.09-.15A.6.6,0,0,1,14.86,6.19Z" transform="translate(-0.02 -0.02)"/><path class="cls-1" d="M14.83,11.19a1.44,1.44,0,0,1,.05.24l-.1-.08A.09.09,0,0,1,14.83,11.19Z" transform="translate(-0.02 -0.02)"/><path class="cls-1" d="M14.31,10.77a.07.07,0,0,1,0,.14h0C14.24,10.9,14.24,10.79,14.31,10.77Z" transform="translate(-0.02 -0.02)"/><path class="cls-1" d="M14.3,10.77h0c-.07,0-.07.13,0,.14h0a76.52,76.52,0,0,1-9.58-.41s0-.09,0-.14A76.84,76.84,0,0,0,14.3,10.77Z" transform="translate(-0.02 -0.02)"/><path class="cls-1" d="M13.93,29.08h-.09V29s0-.1.07-.15A1.44,1.44,0,0,0,13.93,29.08Z" transform="translate(-0.02 -0.02)"/><path class="cls-1" d="M13.91,28.84c0,.05,0,.1-.07.15v-.37a.07.07,0,0,0-.11-.06c0-.16,0-.32,0-.47s0-.6-.21-.64a3,3,0,0,0-.42,0c-.44,0-.89.09-1.33.14,0,0,0,0,0-.06a.06.06,0,0,0-.07-.07h0a8.6,8.6,0,0,1,1.75-.13C13.93,27.35,13.88,28.3,13.91,28.84Z" transform="translate(-0.02 -0.02)"/><path class="cls-1" d="M13.84,29.16V42.71s0,0,0,0a.08.08,0,0,0-.06-.11H13.7v-14a.09.09,0,0,1,0-.06,3.43,3.43,0,0,0,.07.56A0,0,0,0,0,13.84,29.16Z" transform="translate(-0.02 -0.02)"/><path class="cls-1" d="M13.84,29.07v.09a0,0,0,0,1,0,0,3.43,3.43,0,0,1-.07-.56.07.07,0,0,1,.11.06V29a.25.25,0,0,1,0,.07Z" transform="translate(-0.02 -0.02)"/><path class="cls-1" d="M13.84,29v.08h0A.25.25,0,0,0,13.84,29Z" transform="translate(-0.02 -0.02)"/><path class="cls-1" d="M13.77,42.64a.08.08,0,0,1,.06.11h-.09a.07.07,0,0,1,0-.07v-.08Z" transform="translate(-0.02 -0.02)"/><path class="cls-1" d="M13.8,42.78h0Z" transform="translate(-0.02 -0.02)"/><path class="cls-1" d="M13.7,42.71a.07.07,0,0,0,0,.07,16.82,16.82,0,0,0-2-.32s0,0-.06,0a.07.07,0,0,0,.05-.07v0h0a14,14,0,0,1,1.95.31Z" transform="translate(-0.02 -0.02)"/><path d="M13.73,28.56a.09.09,0,0,0,0,.06v14a14,14,0,0,0-1.95-.31h0c0-4.86.51-9.74,0-14.58h0s0,0,0,0,0-.08,0-.12c.44-.05.89-.12,1.33-.14a3,3,0,0,1,.42,0c.18,0,.19.5.21.64S13.72,28.4,13.73,28.56Z" transform="translate(-0.02 -0.02)"/><path class="cls-1" d="M11.91,12.63a19.78,19.78,0,0,1,1.22,8.93,19.59,19.59,0,0,1-.38,3.57h0c-.09,0-.09.13,0,.14-.06.22-.12.44-.19.66a2.77,2.77,0,0,1-1.12,1.35.09.09,0,0,0-.07-.06h-.06a3.52,3.52,0,0,0,.67-.54,2.36,2.36,0,0,0,.53-1.06l0-.16a23.07,23.07,0,0,0,.5-4.39,19.18,19.18,0,0,0-1.22-8.36C11.75,12.62,11.87,12.54,11.91,12.63Z" transform="translate(-0.02 -0.02)"/><path class="cls-1" d="M12.75,25.13l0,.14c-.09,0-.09-.15,0-.14Z" transform="translate(-0.02 -0.02)"/><path d="M12.48,25.61A2.36,2.36,0,0,1,12,26.67a3.52,3.52,0,0,1-.67.54,20.17,20.17,0,0,0-3.11-.08.08.08,0,0,0-.08.1.07.07,0,0,0,0,.06.28.28,0,0,1,0,.09h0c0,2.53-.1,5.07,0,7.59.09,2,.77,4.29-.05,6.21A4.69,4.69,0,0,0,6.41,41c0-5.09-.21-10.17-.53-15.25h0c2.13,0,4.26-.09,6.39-.18a.07.07,0,0,0,.07-.05Z" transform="translate(-0.02 -0.02)"/><path class="cls-1" d="M12.28,25.48a.07.07,0,0,1,.07.09.07.07,0,0,1-.07.05c-2.13.09-4.26.17-6.39.18h0a.53.53,0,0,1,0-.13h0C8,25.65,10.15,25.57,12.28,25.48Z" transform="translate(-0.02 -0.02)"/><path class="cls-1" d="M11.75,27.74c.5,4.84,0,9.72,0,14.58-.06,0-.07.07-.05.11a.07.07,0,0,1-.09-.07c0-4.9.52-9.81,0-14.71h0a.29.29,0,0,0,0,.09C11.63,27.8,11.72,27.79,11.75,27.74Z" transform="translate(-0.02 -0.02)"/><path class="cls-1" d="M11.75,27.69s0,0,0,0a.28.28,0,0,0,0-.09c0-.08-.14-.09-.14,0a.15.15,0,0,0,0-.06h.14S11.75,27.65,11.75,27.69Z" transform="translate(-0.02 -0.02)"/><path class="cls-1" d="M11.75,27.74h0c0,.05-.12.06-.13,0a.29.29,0,0,1,0-.09c0-.08.13-.07.14,0A.28.28,0,0,1,11.75,27.74Z" transform="translate(-0.02 -0.02)"/><path class="cls-1" d="M11.74,42.32v0a.07.07,0,0,1-.05.07S11.68,42.32,11.74,42.32Z" transform="translate(-0.02 -0.02)"/><path class="cls-1" d="M11.72,27.51s0,0,0,.06h-.14v-.07c0-.05,0-.07.06-.07A.06.06,0,0,1,11.72,27.51Z" transform="translate(-0.02 -0.02)"/><path class="cls-1" d="M11.11,27.49h-.24l0,.13Zm0,0,.54-.06h0s-.06,0-.06.07v.07c-.23,0-.48.05-.72.06a.07.07,0,0,1,0-.13l.23-.15.2,0Z" transform="translate(-0.02 -0.02)"/><path class="cls-1" d="M11.41,27.28a.11.11,0,0,1-.12.11h0Z" transform="translate(-0.02 -0.02)"/><path class="cls-1" d="M11.34,27.22a.09.09,0,0,1,.07.06l-.15.1h0l-.2,0,.22-.15Z" transform="translate(-0.02 -0.02)"/><path class="cls-1" d="M11.28,27.21l-.22.15a22.6,22.6,0,0,0-2.85-.06v0a.07.07,0,0,0-.12,0,.08.08,0,0,1,.08-.1A20.17,20.17,0,0,1,11.28,27.21Z" transform="translate(-0.02 -0.02)"/><path class="cls-1" d="M11.11,27.49l-.21.14,0-.13Z" transform="translate(-0.02 -0.02)"/><path class="cls-1" d="M9.66,4.81a.76.76,0,0,1-.62,1,1.42,1.42,0,0,1-1-.2h0A1.14,1.14,0,0,1,7.9,5.3c0-.08-.12-.07-.16,0a1.23,1.23,0,0,1-.08-.23,1,1,0,0,1,.83-1.21A.09.09,0,0,1,8.6,4l-.26,0a.09.09,0,0,0,0,.17.76.76,0,0,0-.46,1,1,1,0,0,0,1.22.58.62.62,0,0,0,.37-.93,1.24,1.24,0,0,0-1.1-.62h0L8.54,4A.09.09,0,0,0,8.6,4,1.31,1.31,0,0,1,9.66,4.81Z" transform="translate(-0.02 -0.02)"/><path class="cls-2" d="M9.44,4.72a.62.62,0,0,1-.37.93,1,1,0,0,1-1.22-.58.76.76,0,0,1,.46-1h0A1.24,1.24,0,0,1,9.44,4.72Z" transform="translate(-0.02 -0.02)"/><path class="cls-1" d="M9.13,6.11a.09.09,0,0,1,0,.18,1.38,1.38,0,0,1-1.4-.94.08.08,0,0,1,0-.07,1,1,0,0,0,.33.35h0A1.25,1.25,0,0,0,9.13,6.11Z" transform="translate(-0.02 -0.02)"/><path class="cls-1" d="M8.29,35.37c.15,1.89.67,4-.08,5.87h0l-.15,0c.82-1.92.14-4.21.05-6.21-.11-2.52,0-5.06,0-7.59h0v.06a.07.07,0,0,0,.14,0v-.13a.08.08,0,0,1,0,.07v4.15C8.25,32.81,8.19,34.1,8.29,35.37Z" transform="translate(-0.02 -0.02)"/><path class="cls-1" d="M8.6,4A.09.09,0,0,1,8.54,4l-.23.08a.09.09,0,0,1,0-.17Z" transform="translate(-0.02 -0.02)"/><path class="cls-1" d="M8.52,8.56a.09.09,0,0,1,0,.18c-1.34,0-2.69,0-4,0h0c-1.14,0-2.27-.06-3.4-.18-.12,0-.12-.18,0-.17s.13.12.17,0h0C3.67,8.64,6.09,8.57,8.52,8.56Z" transform="translate(-0.02 -0.02)"/><path class="cls-1" d="M8.21,41.24a.09.09,0,0,1-.07.16h0l0,0A.61.61,0,0,1,8.21,41.24Z" transform="translate(-0.02 -0.02)"/><path class="cls-1" d="M8.22,27.32v.13a.07.07,0,0,1-.14,0v-.06h0A.09.09,0,0,1,8.22,27.32Z" transform="translate(-0.02 -0.02)"/><path class="cls-1" d="M8.21,27.3s0,0,0,0a.09.09,0,0,0-.14.06.28.28,0,0,0,0-.09.07.07,0,0,1,0-.06.07.07,0,0,0,.08.07Z" transform="translate(-0.02 -0.02)"/><path class="cls-1" d="M8.21,27.3h0a.07.07,0,0,1-.08-.07.07.07,0,0,1,.12,0Z" transform="translate(-0.02 -0.02)"/><path class="cls-1" d="M8.21,41.24a.61.61,0,0,0-.05.12l0,0h0l-.1,0a.07.07,0,0,1,0-.09.2.2,0,0,1,0-.08l.15,0Z" transform="translate(-0.02 -0.02)"/><path class="cls-1" d="M8.12,41.39a.07.07,0,0,1-.1,0Z" transform="translate(-0.02 -0.02)"/><path class="cls-1" d="M8,41.19a.2.2,0,0,0,0,.08.07.07,0,0,0,0,.09,4.64,4.64,0,0,0-1.7-.14c-.07,0-.09-.07-.07-.12s.17,0,.16-.05h0A4.69,4.69,0,0,1,8,41.19Z" transform="translate(-0.02 -0.02)"/><path class="cls-1" d="M7.9,5.3a1.14,1.14,0,0,0,.17.33,1,1,0,0,1-.33-.35S7.88,5.22,7.9,5.3Z" transform="translate(-0.02 -0.02)"/><path class="cls-1" d="M6.41,41.05c0,.09-.11.11-.16.05s0-.05.07-.05h.09Z" transform="translate(-0.02 -0.02)"/><path class="cls-1" d="M6.41,41H6.32s-.05,0-.07.05a.43.43,0,0,1,0-.05c0-4.33-.16-8.65-.4-13h0q-.16-2.83-.37-5.66c0-.06,0-.12,0-.18a.06.06,0,0,0-.06-.08q-.34-4.74-.74-9.46a12.86,12.86,0,0,0-.07-1.86.07.07,0,0,0-.09-.06c0-.1,0-.2,0-.3l.18,0c.41,5.05.83,10.11,1.15,15.16a.07.07,0,0,0,0,.13C6.2,30.87,6.41,36,6.41,41Z" transform="translate(-0.02 -0.02)"/><path class="cls-1" d="M5.87,25.66a.53.53,0,0,0,0,.13A.07.07,0,0,1,5.87,25.66Z" transform="translate(-0.02 -0.02)"/><path class="cls-1" d="M5.61,28.07v0a.07.07,0,0,1-.11.06,6,6,0,0,0-1.68-.92c-.22-.06-.3,1.45-.31,1.72,0-.12-.09-.25-.13-.38a6,6,0,0,1,.25-1.46.08.08,0,0,1,.09-.05,5.73,5.73,0,0,1,1.67.85h0a1.67,1.67,0,0,1,.08.2L5.58,28h0S5.6,28.06,5.61,28.07Z" transform="translate(-0.02 -0.02)"/><path class="cls-1" d="M5.59,28h0l-.19-.12h0A9.36,9.36,0,0,0,4.27,26l.17,0A8.13,8.13,0,0,1,5.59,28Z" transform="translate(-0.02 -0.02)"/><path class="cls-1" d="M5.58,28l-.11.08a1.67,1.67,0,0,0-.08-.2Z" transform="translate(-0.02 -0.02)"/><path class="cls-1" d="M5.46,22.16a.06.06,0,0,1,.06.08c0,.06,0,.12,0,.18C5.47,22.33,5.46,22.24,5.46,22.16Z" transform="translate(-0.02 -0.02)"/><path class="cls-1" d="M5.46,22.16c0,.08,0,.17,0,.26a21.19,21.19,0,0,1-.83,3.52.06.06,0,0,1-.09,0l0,0a.13.13,0,0,1,0-.06,23.9,23.9,0,0,0,.87-3.67S5.43,22.16,5.46,22.16Z" transform="translate(-0.02 -0.02)"/><path class="cls-3" d="M5.46,22.16s-.07,0-.08,0a23.9,23.9,0,0,1-.87,3.67.13.13,0,0,0,0,.06h0c-.81-.08-1.63,0-2.43-.17H2v0s.07,0,.08-.05c.55-2.55,1.11-5.08,1.72-7.62a26.72,26.72,0,0,0,.89-5.34Q5.11,17.43,5.46,22.16Z" transform="translate(-0.02 -0.02)"/><path class="cls-2" d="M4.27,26a9.36,9.36,0,0,1,1.12,1.87,5.73,5.73,0,0,0-1.67-.85.08.08,0,0,0-.09.05,6,6,0,0,0-.25,1.46C3.19,27.91,3,27.15,2.28,27s-1.35.53-2,.91a8,8,0,0,1,1.84-1.68s0,0,0,0h0a.5.5,0,0,0,.15-.25C3,26,3.62,26,4.27,26Z" transform="translate(-0.02 -0.02)"/><path class="cls-1" d="M4.65,10.84a12.86,12.86,0,0,1,.07,1.86c-.06-.65-.11-1.28-.16-1.92A.07.07,0,0,1,4.65,10.84Z" transform="translate(-0.02 -0.02)"/><path class="cls-1" d="M4.56,10.78c.05.64.1,1.27.16,1.92A26.72,26.72,0,0,1,3.83,18c-.61,2.54-1.17,5.07-1.72,7.62,0,0,0,.05-.08.05a1.09,1.09,0,0,0,0-.18.05.05,0,0,0,0-.06c.55-2.49,1.1-5,1.69-7.46a20.5,20.5,0,0,0,.82-7.17A0,0,0,0,1,4.56,10.78Z" transform="translate(-0.02 -0.02)"/><path class="cls-1" d="M4.7,10.36c0,.05,0,.1,0,.14l-.18,0c0-.05,0-.09,0-.14Z" transform="translate(-0.02 -0.02)"/><path class="cls-1" d="M4.58,8.83l.12,1.53-.18,0L4.4,8.83c0-.06,0-.09.08-.09h0A.1.1,0,0,1,4.58,8.83Z" transform="translate(-0.02 -0.02)"/><path class="cls-1" d="M4.55,26a.07.07,0,0,1-.06.1h0L4.37,26c0-.07-.17,0-.12.07l0,0C3.62,26,3,26,2.34,25.93h0c0-.09-.12-.12-.14,0s0,0,0,0l-.18,0H2s0,0,0,0a.22.22,0,0,0,0-.08h0c.8.14,1.62.09,2.43.17h0S4.54,26,4.55,26Z" transform="translate(-0.02 -0.02)"/><path class="cls-1" d="M4.52,25.93l0,0S4.52,25.94,4.52,25.93Z" transform="translate(-0.02 -0.02)"/><path class="cls-1" d="M4.37,26l.07.11-.17,0,0,0C4.2,26,4.32,25.88,4.37,26Z" transform="translate(-0.02 -0.02)"/><path class="cls-1" d="M.17,28.13l.15-.23h0c.61-.38,1.24-1.07,2-.91s.91.92,1.1,1.58c0,.13,0,.26,0,.4l.14,0v0a.07.07,0,0,1-.14,0C3.12,28.32,3,27,2,27.11c-.71.05-1.27.76-1.89,1-.06,0-.14,0-.09-.09a0,0,0,0,1,0,0h0A.47.47,0,0,1,.17,28.13Z" transform="translate(-0.02 -0.02)"/><path class="cls-1" d="M3.51,29l-.14,0c0-.14,0-.27,0-.4C3.42,28.7,3.46,28.83,3.51,29Z" transform="translate(-0.02 -0.02)"/><path class="cls-1" d="M2.21,25.88c0-.08.16-.05.14,0h0l-.14,0S2.21,25.89,2.21,25.88Z" transform="translate(-0.02 -0.02)"/><path class="cls-1" d="M2.2,25.91l.14,0a.5.5,0,0,1-.15.25c0-.05,0-.12-.1-.08l0,0s0,0,0,0A.32.32,0,0,0,2.2,25.91Z" transform="translate(-0.02 -0.02)"/><path class="cls-1" d="M2.09,26.1c.06,0,.11,0,.1.08h0a0,0,0,0,0,0,0,.08.08,0,0,1-.13-.06Z" transform="translate(-0.02 -0.02)"/><path class="cls-1" d="M2.19,26.18s0,0,0,0A8,8,0,0,0,.32,27.9h0L.07,28h0a7.17,7.17,0,0,1,2-1.9.08.08,0,0,0,.13.06A0,0,0,0,1,2.19,26.18Z" transform="translate(-0.02 -0.02)"/><path class="cls-1" d="M2,25.53a1.09,1.09,0,0,1,0,.18A.08.08,0,0,1,2,25.62l0-.15A.05.05,0,0,1,2,25.53Z" transform="translate(-0.02 -0.02)"/><path class="cls-1" d="M2,25.71v0a.07.07,0,0,0,0,.12.08.08,0,0,1-.11-.08,1.1,1.1,0,0,0,0-.26.07.07,0,0,1,.1-.06l0,.15A.08.08,0,0,0,2,25.71Z" transform="translate(-0.02 -0.02)"/><path class="cls-1" d="M2,25.75a.22.22,0,0,1,0,.08s0,0,0,0A.07.07,0,0,1,2,25.75Z" transform="translate(-0.02 -0.02)"/><path class="cls-1" d="M1.25,8.41h0c0,.1-.18.07-.17,0Z" transform="translate(-0.02 -0.02)"/><path class="cls-1" d="M.32,27.9Z" transform="translate(-0.02 -0.02)"/><path class="cls-1" d="M.32,27.9l-.15.23a.47.47,0,0,0-.1-.1Z" transform="translate(-0.02 -0.02)"/><path class="cls-4" d="M1.08,8.39c-.12,0-.12.16,0,.17,1.13.12,2.26.17,3.4.18" transform="translate(-0.02 -0.02)"/><path class="cls-4" d="M4.49,8.74c1.34,0,2.69,0,4,0a.09.09,0,0,0,0-.18c-2.43,0-4.85.08-7.27-.15" transform="translate(-0.02 -0.02)"/><path class="cls-4" d="M14.88,6.19c1.63.82,3.32,2,3.36,4" transform="translate(-0.02 -0.02)"/><path class="cls-4" d="M15.7,8.73c.95.41,1.65,1.22,2.58,1.66a.08.08,0,0,0,.13-.07,3.94,3.94,0,0,0-1.77-3.25" transform="translate(-0.02 -0.02)"/><path class="cls-4" d="M14.88,11.43A10,10,0,0,1,17.2,14a.09.09,0,0,0,.16,0v-.05c.2-1.93-.84-3.48-1.66-5.13" transform="translate(-0.02 -0.02)"/><path class="cls-4" d="M17.2,13.66a9.09,9.09,0,0,0-2.33-2.46h0" transform="translate(-0.02 -0.02)"/><path class="cls-4" d="M18.24,10.17A29.11,29.11,0,0,0,15.61,8.5l-.06,0c-.08,0-.13.06-.1.13.79,1.65,1.86,3.17,1.75,5.05" transform="translate(-0.02 -0.02)"/><path class="cls-4" d="M15,6c-.1,0-.19.1-.09.15" transform="translate(-0.02 -0.02)"/><path class="cls-4" d="M15,6a.6.6,0,0,1-.09.15h0l1.76.88" transform="translate(-0.02 -0.02)"/><path class="cls-4" d="M17.35,13.86l-.15-.2a2.18,2.18,0,0,1,0,.25Z" transform="translate(-0.02 -0.02)"/><path class="cls-4" d="M18.82,7.82A39.75,39.75,0,0,1,15,6a10.46,10.46,0,0,1,1.69,1,16.08,16.08,0,0,0,2.27,1c.07,0,.12,0,.11-.1A9.56,9.56,0,0,0,15.91,3,11.56,11.56,0,0,0,10.63.19,6.46,6.46,0,0,0,5.48,1.26,11.16,11.16,0,0,0,2.11,5.71a22.51,22.51,0,0,0-1,2.66v0" transform="translate(-0.02 -0.02)"/><path class="cls-4" d="M1.25,8.41C2.45,4.76,4.69.32,9.08.22A9.75,9.75,0,0,1,14.9,2.38a10.12,10.12,0,0,1,3.84,5.15,2.45,2.45,0,0,1,.08.29" transform="translate(-0.02 -0.02)"/><path class="cls-4" d="M15.6,8.52l-.1.13.2.08A2,2,0,0,1,15.6,8.52Z" transform="translate(-0.02 -0.02)"/><path class="cls-4" d="M18.24,10.17v.15a.57.57,0,0,1,.13-.08Z" transform="translate(-0.02 -0.02)"/><path class="cls-4" d="M19,7.87l-.14,0,0,.15Z" transform="translate(-0.02 -0.02)"/><path class="cls-4" d="M1.08,8.39c0,.09.13.12.17,0h0Z" transform="translate(-0.02 -0.02)"/><path class="cls-4" d="M8.6,4a.09.09,0,0,0-.11-.11,1,1,0,0,0-.83,1.21,1.23,1.23,0,0,0,.08.23" transform="translate(-0.02 -0.02)"/><path class="cls-4" d="M8.31,4.09h0a1.24,1.24,0,0,1,1.1.62.62.62,0,0,1-.37.93,1,1,0,0,1-1.22-.58A.76.76,0,0,1,8.31,4.09Z" transform="translate(-0.02 -0.02)"/><path class="cls-4" d="M8.07,5.63a1.42,1.42,0,0,0,1,.2.76.76,0,0,0,.62-1A1.31,1.31,0,0,0,8.6,4" transform="translate(-0.02 -0.02)"/><path class="cls-4" d="M8.31,4.09,8.54,4A.09.09,0,0,0,8.6,4l-.26,0A.09.09,0,0,0,8.31,4.09Z" transform="translate(-0.02 -0.02)"/><path class="cls-4" d="M7.74,5.28a.08.08,0,0,0,0,.07,1.38,1.38,0,0,0,1.4.94.09.09,0,0,0,0-.18,1.25,1.25,0,0,1-1.06-.48h0" transform="translate(-0.02 -0.02)"/><path class="cls-4" d="M7.74,5.28a1,1,0,0,0,.33.35A1.14,1.14,0,0,1,7.9,5.3C7.88,5.22,7.78,5.23,7.74,5.28Z" transform="translate(-0.02 -0.02)"/><path class="cls-4" d="M11.73,27.57c.44-.05.89-.12,1.33-.14a3,3,0,0,1,.42,0c.18,0,.19.5.21.64s0,.31,0,.47" transform="translate(-0.02 -0.02)"/><path class="cls-4" d="M11.06,27.36l-.23.15a.07.07,0,0,0,0,.13c.24,0,.49,0,.72-.06" transform="translate(-0.02 -0.02)"/><path class="cls-4" d="M11.11,27.49l.15-.11" transform="translate(-0.02 -0.02)"/><path class="cls-4" d="M13.84,29s0-.1.07-.15c0-.54,0-1.49-.51-1.54a8.6,8.6,0,0,0-1.75.13l-.54.06" transform="translate(-0.02 -0.02)"/><line class="cls-4" x1="11.09" y1="27.46" x2="11.09" y2="27.46"/><path class="cls-4" d="M11.11,27.49h-.24l0,.13Z" transform="translate(-0.02 -0.02)"/><path class="cls-4" d="M13.84,29.16s.07,0,.08,0c.17-.35.33-.71.47-1.08.06-.12.12-.57.35-.47a5.79,5.79,0,0,1,.54.31,3.07,3.07,0,0,0,1.71.72.07.07,0,0,0,.07-.1c-.51-1.1-1.41-2-1.75-3.2a6.61,6.61,0,0,1-.05-2.13c0-.85.07-1.69.07-2.54A42.52,42.52,0,0,0,15,16.13" transform="translate(-0.02 -0.02)"/><path class="cls-4" d="M16.88,28.47c-.86,0-1.53-.8-2.3-1.11a.09.09,0,0,0-.09.05c-.18.49-.37,1-.58,1.43a1.44,1.44,0,0,0,0,.24h-.09" transform="translate(-0.02 -0.02)"/><path class="cls-4" d="M16.94,28.58h0l-.06-.11H17a.54.54,0,0,1,0,.11" transform="translate(-0.02 -0.02)"/><path class="cls-4" d="M14.91,15.28c-.17-1.35-.4-2.69-.63-4,0-.09-.15-.05-.13,0a58.28,58.28,0,0,1,1,9.85c0,.79,0,1.57-.09,2.35a7.81,7.81,0,0,0,0,1.53,2.84,2.84,0,0,0,.1.45,20.07,20.07,0,0,0,1.67,3" transform="translate(-0.02 -0.02)"/><path class="cls-4" d="M12.75,25.13a19.59,19.59,0,0,0,.38-3.57,19.78,19.78,0,0,0-1.22-8.93c0-.09-.16,0-.12.07A19.18,19.18,0,0,1,13,21.06a23.07,23.07,0,0,1-.5,4.39l0,.16A2.36,2.36,0,0,1,12,26.67a3.52,3.52,0,0,1-.67.54" transform="translate(-0.02 -0.02)"/><path class="cls-4" d="M11.41,27.28a2.77,2.77,0,0,0,1.12-1.35c.07-.22.13-.44.19-.66" transform="translate(-0.02 -0.02)"/><path class="cls-4" d="M4.48,8.74c-.05,0-.08,0-.08.09l.12,1.51" transform="translate(-0.02 -0.02)"/><path class="cls-4" d="M4.7,10.36,4.58,8.83a.1.1,0,0,0-.09-.09" transform="translate(-0.02 -0.02)"/><path class="cls-4" d="M5.47,22.42q.21,2.82.37,5.66h0c.24,4.32.4,8.64.4,13a.43.43,0,0,0,0,.05" transform="translate(-0.02 -0.02)"/><path class="cls-4" d="M4.72,12.7q.39,4.73.74,9.46" transform="translate(-0.02 -0.02)"/><path class="cls-4" d="M4.54,10.48c0,.1,0,.2,0,.3" transform="translate(-0.02 -0.02)"/><path class="cls-4" d="M5.87,25.66c-.32-5.05-.74-10.11-1.15-15.16" transform="translate(-0.02 -0.02)"/><path class="cls-4" d="M6.41,41c0-5.09-.21-10.17-.53-15.25" transform="translate(-0.02 -0.02)"/><path class="cls-4" d="M4.49,8.74h0" transform="translate(-0.02 -0.02)"/><path class="cls-4" d="M6.25,41.1s0,.14.07.12a4.64,4.64,0,0,1,1.7.14" transform="translate(-0.02 -0.02)"/><path class="cls-4" d="M8,41.19A4.69,4.69,0,0,0,6.41,41" transform="translate(-0.02 -0.02)"/><path class="cls-4" d="M8.12,41.39h0a.09.09,0,0,0,.07-.16" transform="translate(-0.02 -0.02)"/><path class="cls-4" d="M6.25,41.1c0,.06.17,0,.16-.05H6.32S6.27,41.07,6.25,41.1Z" transform="translate(-0.02 -0.02)"/><path class="cls-4" d="M8.21,41.24c.75-1.83.23-4,.08-5.87-.1-1.27,0-2.56,0-3.83V27.39a.08.08,0,0,0,0-.07" transform="translate(-0.02 -0.02)"/><path class="cls-4" d="M8.08,27.39h0c0,2.53-.1,5.07,0,7.59.09,2,.77,4.29-.05,6.21" transform="translate(-0.02 -0.02)"/><path class="cls-4" d="M8,41.36a.07.07,0,0,0,.1,0" transform="translate(-0.02 -0.02)"/><path class="cls-4" d="M8,41.19a.2.2,0,0,0,0,.08.07.07,0,0,0,0,.09l.1,0h0l0,0a.61.61,0,0,1,.05-.12h0Z" transform="translate(-0.02 -0.02)"/><path class="cls-4" d="M8.21,27.3a22.6,22.6,0,0,1,2.85.06" transform="translate(-0.02 -0.02)"/><path class="cls-4" d="M11.28,27.21a20.17,20.17,0,0,0-3.11-.08.08.08,0,0,0-.08.1" transform="translate(-0.02 -0.02)"/><path class="cls-4" d="M11.26,27.38h0a.11.11,0,0,0,.12-.11" transform="translate(-0.02 -0.02)"/><path class="cls-4" d="M11.41,27.28a.09.09,0,0,0-.07-.06h-.06l-.22.15.2,0h0Z" transform="translate(-0.02 -0.02)"/><path class="cls-4" d="M11.74,42.32c0-4.86.51-9.74,0-14.58" transform="translate(-0.02 -0.02)"/><path class="cls-4" d="M11.6,27.64h0c.52,4.9,0,9.81,0,14.71a.07.07,0,0,0,.09.07" transform="translate(-0.02 -0.02)"/><path class="cls-4" d="M13.8,42.78h0" transform="translate(-0.02 -0.02)"/><path class="cls-4" d="M13.7,42.63a14,14,0,0,0-1.95-.31h0c-.06,0-.07.07-.05.11s0,0,.06,0a16.82,16.82,0,0,1,2,.32" transform="translate(-0.02 -0.02)"/><path class="cls-4" d="M13.73,28.56a.09.09,0,0,0,0,.06V42.71a.07.07,0,0,0,0,.07h.09s0,0,0,0V29.16" transform="translate(-0.02 -0.02)"/><path class="cls-4" d="M13.84,29v-.37a.07.07,0,0,0-.11-.06,3.43,3.43,0,0,0,.07.56,0,0,0,0,0,0,0v-.09" transform="translate(-0.02 -0.02)"/><path class="cls-4" d="M13.84,29a.25.25,0,0,1,0,.07h0Z" transform="translate(-0.02 -0.02)"/><path class="cls-4" d="M14.31,10.77h0a76.84,76.84,0,0,1-9.6-.41" transform="translate(-0.02 -0.02)"/><path class="cls-4" d="M4.72,10.5a76.52,76.52,0,0,0,9.58.41h0" transform="translate(-0.02 -0.02)"/><path class="cls-4" d="M4.7,10.36l-.18,0c0,.05,0,.09,0,.14l.18,0S4.71,10.41,4.7,10.36Z" transform="translate(-0.02 -0.02)"/><path class="cls-4" d="M12.72,25.27a6.35,6.35,0,0,0,2.21-.18s.05,0,.05-.06a.07.07,0,0,0-.09-.07,6.15,6.15,0,0,1-2.14.17" transform="translate(-0.02 -0.02)"/><path class="cls-4" d="M12.72,25.27l0-.14h0C12.63,25.12,12.63,25.26,12.72,25.27Z" transform="translate(-0.02 -0.02)"/><path class="cls-4" d="M5.88,25.79h0c2.13,0,4.26-.09,6.39-.18a.07.07,0,0,0,.07-.05.07.07,0,0,0-.07-.09c-2.13.09-4.26.17-6.39.18h0" transform="translate(-0.02 -0.02)"/><path class="cls-4" d="M5.88,25.79a.53.53,0,0,1,0-.13A.07.07,0,0,0,5.88,25.79Z" transform="translate(-0.02 -0.02)"/><path class="cls-4" d="M4.56,10.78a0,0,0,0,0,0,.06A20.5,20.5,0,0,1,3.69,18C3.1,20.49,2.55,23,2,25.47" transform="translate(-0.02 -0.02)"/><path class="cls-4" d="M2,25.71s.07,0,.08-.05c.55-2.55,1.11-5.08,1.72-7.62a26.72,26.72,0,0,0,.89-5.34" transform="translate(-0.02 -0.02)"/><path class="cls-4" d="M4.72,12.7a12.86,12.86,0,0,0-.07-1.86.07.07,0,0,0-.09-.06C4.61,11.42,4.66,12.05,4.72,12.7Z" transform="translate(-0.02 -0.02)"/><path class="cls-4" d="M4.44,26.06h0a.07.07,0,0,0,.06-.1" transform="translate(-0.02 -0.02)"/><path class="cls-4" d="M2.34,25.93C3,26,3.62,26,4.27,26" transform="translate(-0.02 -0.02)"/><path class="cls-4" d="M2,25.87H2l.18,0" transform="translate(-0.02 -0.02)"/><path class="cls-4" d="M4.52,25.93h0c-.81-.08-1.63,0-2.43-.17H2" transform="translate(-0.02 -0.02)"/><path class="cls-4" d="M4.55,26a.06.06,0,0,0,.09,0,21.19,21.19,0,0,0,.83-3.52" transform="translate(-0.02 -0.02)"/><path class="cls-4" d="M5.46,22.16s-.07,0-.08,0a23.9,23.9,0,0,1-.87,3.67.13.13,0,0,0,0,.06" transform="translate(-0.02 -0.02)"/><path class="cls-4" d="M5.46,22.16c0,.08,0,.17,0,.26,0-.06,0-.12,0-.18A.06.06,0,0,0,5.46,22.16Z" transform="translate(-0.02 -0.02)"/><path class="cls-4" d="M4.52,25.93s0,0,0,0Z" transform="translate(-0.02 -0.02)"/><path class="cls-4" d="M.17,28.13h0a.47.47,0,0,0-.1-.1l.25-.13h0a8,8,0,0,1,1.84-1.68s0,0,0,0" transform="translate(-0.02 -0.02)"/><path class="cls-4" d="M5.39,27.91a5.73,5.73,0,0,0-1.67-.85.08.08,0,0,0-.09.05,6,6,0,0,0-.25,1.46c0,.13.08.26.13.38l-.14,0c0-.14,0-.27,0-.4C3.19,27.91,3,27.15,2.28,27s-1.35.53-2,.91h0l-.15.23" transform="translate(-0.02 -0.02)"/><path class="cls-4" d="M5.39,27.91l.19.12-.11.08a1.67,1.67,0,0,0-.08-.2" transform="translate(-0.02 -0.02)"/><path class="cls-4" d="M5.39,27.91h0" transform="translate(-0.02 -0.02)"/><path class="cls-4" d="M4.27,26a9.36,9.36,0,0,1,1.12,1.87" transform="translate(-0.02 -0.02)"/><path class="cls-4" d="M2.05,26.13a7.17,7.17,0,0,0-2,1.9,0,0,0,0,0,0,0c0,.06,0,.12.09.09.62-.28,1.18-1,1.89-1C3,27,3.12,28.32,3.37,29a.07.07,0,0,0,.14,0v0c0-.27.09-1.78.31-1.72a6,6,0,0,1,1.68.92.07.07,0,0,0,.11-.06v0s0,0,0,0a8.13,8.13,0,0,0-1.15-2" transform="translate(-0.02 -0.02)"/><path class="cls-4" d="M4.44,26.06,4.37,26c0-.07-.17,0-.12.07l0,0Z" transform="translate(-0.02 -0.02)"/><path class="cls-4" d="M15,16.13a.07.07,0,0,0,.05-.07c0-1.27-.15-2.54-.15-3.81a5,5,0,0,0,0-.82" transform="translate(-0.02 -0.02)"/><path class="cls-4" d="M14.31,10.91h0c.62,0,.46,1.44.46,1.82,0,.85.1,1.7.13,2.55" transform="translate(-0.02 -0.02)"/><path class="cls-4" d="M14.83,11.19a.51.51,0,0,0-.51-.42h0" transform="translate(-0.02 -0.02)"/><path class="cls-4" d="M14.83,11.19a.09.09,0,0,0-.05.16l.1.08A1.44,1.44,0,0,0,14.83,11.19Z" transform="translate(-0.02 -0.02)"/><path class="cls-4" d="M14.91,15.28c0,.26,0,.52,0,.78a.07.07,0,0,0,.09.07C15,15.84,15,15.56,14.91,15.28Z" transform="translate(-0.02 -0.02)"/><path class="cls-4" d="M14.31,10.91h0a.07.07,0,0,0,0-.14C14.24,10.79,14.24,10.9,14.31,10.91Z" transform="translate(-0.02 -0.02)"/><path class="cls-4" d="M8.22,27.32s0,0,0,0" transform="translate(-0.02 -0.02)"/><path class="cls-4" d="M8.09,27.23a.07.07,0,0,0,0,.06.28.28,0,0,1,0,.09" transform="translate(-0.02 -0.02)"/><path class="cls-4" d="M8.08,27.38h0v.06a.07.07,0,0,0,.14,0v-.13a.09.09,0,0,0-.14.06Z" transform="translate(-0.02 -0.02)"/><path class="cls-4" d="M8.09,27.23a.07.07,0,0,0,.08.07h0v0A.07.07,0,0,0,8.09,27.23Z" transform="translate(-0.02 -0.02)"/><path class="cls-4" d="M11.59,27.58a.15.15,0,0,1,0,.06" transform="translate(-0.02 -0.02)"/><path class="cls-4" d="M11.75,27.74s0,0,0,0,0-.08,0-.12" transform="translate(-0.02 -0.02)"/><path class="cls-4" d="M11.65,27.44s-.06,0-.06.07v.07h.14s0,0,0-.06A.06.06,0,0,0,11.65,27.44Z" transform="translate(-0.02 -0.02)"/><path class="cls-4" d="M11.6,27.64a.29.29,0,0,0,0,.09c0,.07.1.06.13,0h0a.28.28,0,0,0,0-.09C11.73,27.57,11.6,27.56,11.6,27.64Z" transform="translate(-0.02 -0.02)"/><path class="cls-4" d="M2.2,25.91a.32.32,0,0,1-.13.18s0,0,0,0" transform="translate(-0.02 -0.02)"/><path class="cls-4" d="M2.19,26.18a.5.5,0,0,0,.15-.25" transform="translate(-0.02 -0.02)"/><path class="cls-4" d="M2.34,25.93h0c0-.09-.12-.12-.14,0s0,0,0,0Z" transform="translate(-0.02 -0.02)"/><path class="cls-4" d="M2.05,26.13a.08.08,0,0,0,.13.06,0,0,0,0,1,0,0h0c0-.05,0-.12-.1-.08Z" transform="translate(-0.02 -0.02)"/><path class="cls-4" d="M2,25.47a.07.07,0,0,0-.1.06,1.1,1.1,0,0,1,0,.26.08.08,0,0,0,.11.08" transform="translate(-0.02 -0.02)"/><path class="cls-4" d="M2,25.75v0" transform="translate(-0.02 -0.02)"/><path class="cls-4" d="M2,25.71a1.09,1.09,0,0,0,0-.18.05.05,0,0,0,0-.06l0,.15A.08.08,0,0,0,2,25.71Z" transform="translate(-0.02 -0.02)"/><path class="cls-4" d="M2,25.87s0,0,0,0a.22.22,0,0,0,0-.08A.07.07,0,0,0,2,25.87Z" transform="translate(-0.02 -0.02)"/></g></g></g></g></svg>