<svg xmlns="http://www.w3.org/2000/svg" viewBox="0 0 35.09 35.09"><defs><style>.cls-1{fill:#ffeea6;}</style></defs><title>puslespil_icon_yellow</title><g id="Layer_2" data-name="Layer 2"><g id="nav"><g id="li"><g id="dropdown"><g id="li_smaabidder"><circle cx="17.55" cy="17.55" r="17.55"/><path class="cls-1" d="M17.37,11.29c2.58,0,.91,2.82.87,2.88H22V10.65s-2.88,1.74-2.88-.86S22,8.92,22,8.92V5.4H18.45c0,.06,1.71,2.88-.87,2.88s-.91-2.82-.87-2.88H13.2V9s-2.89-1.74-2.89.86,2.89.87,2.89.87v3.45h3.3C16.46,14.11,14.79,11.29,17.37,11.29Z"/><path class="cls-1" d="M25.34,21.81c.61-2.51,2.95-.22,3-.17l.8-3.28-3.46-.84s2.37-2.38-.16-3S24,17.11,24,17.11l-3.45-.84-.8,3.28s-2.39-2.37-3,.16,2.6,1.53,2.6,1.53l-.88,3.58,3.45.85s-1-3.22,1.53-2.6.16,3,.16,3l3.45.84.88-3.59C27.86,23.35,24.73,24.31,25.34,21.81Z"/><path class="cls-1" d="M6.26,25.68H15v-3.3c-.06,0-2.88,1.71-2.88-.87s2.82-.9,2.88-.87V16.91H11.51S13.24,14,10.64,14s-.87,2.88-.87,2.88H6.26Z"/></g></g></g></g></g></svg>