<svg xmlns="http://www.w3.org/2000/svg" viewBox="0 0 35.1 35.1"><defs><style>.cls-1{fill:#fff;}</style></defs><title>puslespil_icon_bw</title><g id="Layer_2" data-name="Layer 2"><g id="nav"><g id="li"><g id="dropdown"><g id="li_smaabidder"><path class="cls-1" d="M25.94,17.78l3.45.84-.8,3.28c-.05,0-2.39-2.34-3,.16s2.53,1.55,2.59,1.53l-.87,3.58-3.46-.84s2.37-2.39-.16-3-1.52,2.59-1.52,2.59l-3.45-.84.87-3.59S16.38,22.5,17,20s3-.16,3-.16l.8-3.28,3.45.84s-1-3.21,1.53-2.6S25.94,17.78,25.94,17.78Z" transform="translate(-0.25 -0.25)"/><path class="cls-1" d="M22.21,9.17s-2.88-1.74-2.88.87,2.88.87,2.88.87v3.51H18.49c0-.06,1.71-2.88-.87-2.88s-.9,2.82-.87,2.88h-3.3V11s-2.88,1.73-2.88-.87,2.88-.87,2.88-.87V5.66H17c0,.06-1.71,2.87.87,2.87s.91-2.81.87-2.87h3.51Z" transform="translate(-0.25 -0.25)"/><path class="cls-1" d="M15.27,17.17V20.9s-2.87-1.71-2.87.87,2.82.9,2.87.87v3.29H6.51V17.17H10s-1.73-2.88.87-2.88.87,2.88.87,2.88Z" transform="translate(-0.25 -0.25)"/><path d="M10.57,10.11c0,2.6,2.88.87,2.88.87v3.44h3.3c0-.06-1.71-2.88.87-2.88s.91,2.82.87,2.88h3.72V10.91s-2.88,1.73-2.88-.87,2.88-.87,2.88-.87V5.66H18.7c0,.06,1.71,2.87-.87,2.87S16.92,5.72,17,5.66H13.45V9.24S10.57,7.5,10.57,10.11Zm11.6,15.81s-1-3.21,1.52-2.59.16,3,.16,3l3.46.84.87-3.58c-.06,0-3.2,1-2.59-1.53s2.95-.21,3-.16l.8-3.28-3.45-.84s2.37-2.39-.16-3-1.53,2.6-1.53,2.6l-3.45-.84L20,19.81s-2.39-2.37-3,.16,2.59,1.52,2.59,1.52l-.87,3.59ZM10.89,14.29c-2.6,0-.87,2.88-.87,2.88H6.51v8.76h8.76V22.64s-2.87,1.71-2.87-.87,2.82-.91,2.87-.87V17.17H11.76S13.5,14.29,10.89,14.29ZM17.8.25A17.55,17.55,0,1,1,.25,17.8,17.55,17.55,0,0,1,17.8.25Z" transform="translate(-0.25 -0.25)"/></g></g></g></g></g></svg>