<svg xmlns="http://www.w3.org/2000/svg" viewBox="0 0 35.32 35.32"><defs><style>.cls-1{fill:#231f20;}.cls-2{fill:#fff;}</style></defs><title>thumbsup_icon_bw</title><g id="Layer_2" data-name="Layer 2"><g id="nav"><g id="li"><g id="dropdown"><g id="li_anbefalinger"><circle cx="17.66" cy="17.66" r="17.66"/><path class="cls-1" d="M27.46,17.13v.36h0Z"/><path class="cls-1" d="M27.46,17.49c0,.26,0,.52,0,.77h-.33c0-.28,0-.54,0-.79Z"/><path class="cls-1" d="M27.46,17.13v.36l-.32,0v-.33c0-.11,0-.22,0-.32h0l.28,0c0,.09,0,.19,0,.29Z"/><path class="cls-1" d="M27.45,16.84v.29c0-.1,0-.2,0-.29Z"/><path class="cls-1" d="M27.46,18.26v.32c0-.11,0-.21,0-.32Z"/><path class="cls-1" d="M27.46,18.26c0,.11,0,.21,0,.32h0c0,.11,0,.22,0,.33l-.32,0c0-.11,0-.22,0-.32v-.32h.33Z"/><path class="cls-1" d="M27.45,16.84l-.28,0h0c0-.91-.1-1.51-.1-1.61,0-.32-.38-.3-.38-.3h-5a.33.33,0,0,0-.27.09,1.84,1.84,0,0,1-.25-.21.63.63,0,0,1,.52-.2h5a.75.75,0,0,1,.51.18.54.54,0,0,1,.19.44,1.77,1.77,0,0,0,0,.19C27.39,15.65,27.43,16.17,27.45,16.84Z"/><path class="cls-1" d="M27.45,18.58l0,.33h0C27.44,18.8,27.44,18.69,27.45,18.58Z"/><path class="cls-1" d="M27.11,18.89l.32,0,0,.47-.32,0Z"/><path class="cls-1" d="M27.41,19.38l0,.31,0-.31Z"/><path class="cls-1" d="M27.4,19.38l0,.31h0l0,.32L27,20h0c0-.11,0-.22,0-.32l0-.32Z"/><path class="cls-1" d="M27,20l.31,0c0,.14,0,.29-.05.44h0l-.05.34h0l0,.3h0a15,15,0,0,1-.84,3.06l-.37,0a12.38,12.38,0,0,0,.65-2c.12-.48.21-1,.28-1.43,0-.26.07-.52.1-.77Z"/><path class="cls-1" d="M27.14,17.46c0,.25,0,.51,0,.79l-.32,0c0-.27,0-.53,0-.8l.29,0Z"/><path class="cls-1" d="M27.14,17.13v.33h0l-.29,0c-1.36-.12-2.75-.22-4.12-.29l-.9-.05v-.32C23.59,16.85,25.36,17,27.14,17.13Z"/><path class="cls-1" d="M27.13,18.25v.32a36.21,36.21,0,0,1-5.4-.66v-.06l0-.26.41.08h0l.7.13.7.11.56.07c.48.06,1,.12,1.43.16l.61.05.63,0Z"/><path class="cls-1" d="M27.13,16.81c0,.1,0,.21,0,.32-1.78-.16-3.55-.28-5.33-.36h0c0-.1,0-.21,0-.31l.71,0c1.43.07,2.86.17,4.28.3Z"/><path class="cls-1" d="M21.83,16v-.32a22.88,22.88,0,0,1,4.89-.22c0-.09,0-.15,0-.19H21.79v0l-.22-.06-.05,0,0,0,0,0L21.33,15a.33.33,0,0,1,.27-.09h5s.38,0,.38.3c0,.1.07.7.1,1.61l-.32,0c0-.26,0-.5,0-.71a22.85,22.85,0,0,0-4.95.22h0V16Z"/><path class="cls-1" d="M27.13,18.57c0,.1,0,.21,0,.32l-.61,0c-.76,0-1.53-.11-2.29-.21l-.72-.1h0l-.7-.11h0l-.71-.12-.36-.07,0-.33A36.21,36.21,0,0,0,27.13,18.57Z"/><path class="cls-1" d="M26.5,18.85l.61,0,0,.46-.32,0,0-.45Z"/><path class="cls-1" d="M26.76,19.32l.32,0,0,.32a28.49,28.49,0,0,1-4.58-.79c-.27-.06-.54-.14-.81-.18h0l0-.32.08,0c.25,0,.5.1.74.16h0c.55.14,1.11.27,1.68.37l.56.11.39.06.37.06Z"/><path class="cls-1" d="M27.05,19.67c0,.1,0,.21,0,.32l-.32,0-.4-.05-.37,0-.14,0-.52-.07-.59-.1-.52-.09-.71-.14L23,19.33l-.57-.13h0l-.55-.14-.18,0h0c0-.1,0-.21,0-.31.27,0,.54.12.81.18A28.49,28.49,0,0,0,27.05,19.67Z"/><path class="cls-1" d="M26.7,20,27,20c0,.25-.06.51-.1.77a46.9,46.9,0,0,1-5.41-.62h0l0-.31a49,49,0,0,0,5.12.6C26.67,20.27,26.68,20.11,26.7,20Z"/><path class="cls-2" d="M26.82,17.43c0,.27,0,.53,0,.8l-.63,0-.61-.05c-.47,0-.95-.1-1.43-.16l-.56-.07-.7-.11-.7-.13h0l-.41-.08,0-.5h0l.9.05C24.07,17.21,25.46,17.31,26.82,17.43Z"/><path class="cls-2" d="M26.81,16.78c-1.42-.13-2.85-.23-4.28-.3l-.71,0v-.15a22.85,22.85,0,0,1,4.95-.22C26.78,16.28,26.8,16.52,26.81,16.78Z"/><path class="cls-2" d="M26.79,18.87l0,.45-1.21-.15-.37-.06-.39-.06-.56-.11c-.57-.1-1.13-.23-1.68-.37h0c-.24-.06-.49-.12-.74-.16l-.08,0h0a.49.49,0,0,0,0-.12h0l.36.07.71.12h0l.7.11h0l.72.1c.76.1,1.53.17,2.29.21Z"/><path class="cls-2" d="M26.7,15.23s0,.1,0,.19a22.88,22.88,0,0,0-4.89.22h0c0-.07,0-.14,0-.21l0-.19H26.7Z"/><path class="cls-1" d="M26.3,19.91l.4.05Z"/><path class="cls-2" d="M26.7,20c0,.15,0,.31-.06.46a49,49,0,0,1-5.12-.6,1,1,0,0,0,0-.16c0-.17.05-.34.07-.51a.62.62,0,0,1,0-.13l.18,0,.55.14h0l.57.13c.16.05.33.08.49.12l.71.14.52.09.59.1.52.07.14,0,.37,0Z"/><path class="cls-1" d="M26.92,20.76c-.07.47-.16.95-.28,1.43l-.06,0c-1.78-.19-3.48-1-5.24-1,0-.11,0-.22,0-.33h.08a11.42,11.42,0,0,1,3,.52,15.25,15.25,0,0,0,2,.44c.05-.24.1-.5.15-.76a48.45,48.45,0,0,1-5.11-.6c0-.11,0-.22,0-.33h0A46.9,46.9,0,0,0,26.92,20.76Z"/><path class="cls-1" d="M21.21,22.05c0-.1,0-.21,0-.32l.62.11,4.29.9.09-.28a16,16,0,0,1-2-.46,10.14,10.14,0,0,0-3-.49l.05-.32c1.76,0,3.46.79,5.24,1l.06,0a12.38,12.38,0,0,1-.65,2l-.18,0-.18,0a1.67,1.67,0,0,1,.08-.2A12.93,12.93,0,0,1,23,23.65a17.24,17.24,0,0,0-2-.34h0l.05-.28h0v0l.06-.31h0a18.31,18.31,0,0,1,2,.35,11.25,11.25,0,0,0,2.84.37v0l-4.23-.89a5.58,5.58,0,0,0-.59-.1h0l0-.26h0A.09.09,0,0,1,21.21,22.05Z"/><path class="cls-2" d="M26.55,21.06c-.05.26-.1.52-.15.76a15.25,15.25,0,0,1-2-.44,11.42,11.42,0,0,0-3-.52h-.08c0-.14,0-.27.06-.4A48.45,48.45,0,0,0,26.55,21.06Z"/><path class="cls-1" d="M26.38,24.15l-.24.52c.08-.17.15-.34.22-.51Z"/><path class="cls-1" d="M26,24.2l.37,0c-.07.17-.14.34-.22.51h0l-.08.17-.18,0-.2,0c.06-.11.11-.23.16-.34S26,24.31,26,24.2Z"/><path class="cls-1" d="M25.93,19.87l.37,0Z"/><path class="cls-2" d="M26.25,22.46l-.09.28-4.29-.9-.62-.11a1.7,1.7,0,0,0,0-.22,10.14,10.14,0,0,1,3,.49A16,16,0,0,0,26.25,22.46Z"/><path class="cls-1" d="M26.14,24.67l-.08.17h0Z"/><path class="cls-1" d="M25.88,24.86l.18,0a10.2,10.2,0,0,1-.51.93l0,.05-.05,0a1.17,1.17,0,0,1-.67.27l-.14,0a10.8,10.8,0,0,1-4.25-.92l-.08,0a.59.59,0,0,0-.11-.08.54.54,0,0,1-.3-.54l.32,0c0,.26.09.22.3.39a10.52,10.52,0,0,0,4.17.89s.16.1.57-.19c.14-.24.27-.48.4-.72Z"/><path class="cls-1" d="M26,24.2c0,.11-.1.23-.15.34a8.67,8.67,0,0,1-4.94-.65v-.1a1.37,1.37,0,0,0,0-.23c.12.07.24.12.36.18h0l.38.15h0a3.59,3.59,0,0,0,.35.12l.3.07h0l.15,0,.37.07a2.6,2.6,0,0,0,.39.05h.07l.47,0H25l.32,0,.28,0h.05l.18,0Z"/><path class="cls-2" d="M26,23.36v0A11.25,11.25,0,0,1,23.12,23a18.31,18.31,0,0,0-2-.35.68.68,0,0,1,0-.14c0-.05,0-.1,0-.16a5.58,5.58,0,0,1,.59.1Z"/><path class="cls-1" d="M25.27,19.78l.52.07Z"/><path class="cls-1" d="M25.84,24.54c-.05.11-.1.23-.16.34l-.38,0h-.25l-.32,0h-1q-.43,0-.84-.09a6.09,6.09,0,0,1-.87-.18,2.77,2.77,0,0,1-.41-.12l-.37-.13-.07,0-.29-.13h0a.31.31,0,0,0,0-.1s0,0,0-.09l0-.16A8.67,8.67,0,0,0,25.84,24.54Z"/><path class="cls-2" d="M25.71,24a1.67,1.67,0,0,0-.08.2h-.05l-.28,0-.32,0H23.87l-.47,0h-.07l-.39-.05-.37-.07-.15,0h0l-.3-.07a3.59,3.59,0,0,1-.35-.12h0l-.38-.15h0L21,23.56c0-.08,0-.16.05-.25a17.24,17.24,0,0,1,2,.34A12.93,12.93,0,0,0,25.71,24Z"/><path class="cls-1" d="M25.3,24.27l.28,0Z"/><path class="cls-1" d="M25.3,24.92l.38,0c-.13.24-.26.48-.4.72-.41.29-.57.19-.57.19a10.52,10.52,0,0,1-4.17-.89c-.21-.17-.32-.13-.3-.39h.33s0,0,0,.06a.85.85,0,0,1,.15.09,10.17,10.17,0,0,0,4,.84h.11l0,0a.84.84,0,0,0,.21-.11C25.13,25.23,25.21,25.07,25.3,24.92Z"/><path class="cls-1" d="M25,24.29l.32,0Z"/><path class="cls-2" d="M25.05,24.93h.25c-.09.15-.17.31-.26.45a.84.84,0,0,1-.21.11l0,0H24.7a10.17,10.17,0,0,1-4-.84.85.85,0,0,0-.15-.09s0,0,0-.06h.11a.35.35,0,0,0,.13-.08l0,0a.31.31,0,0,0,.05-.1h0l.29.13.07,0,.37.13a2.77,2.77,0,0,0,.41.12,6.09,6.09,0,0,0,.87.18q.41.06.84.09h1Z"/><path class="cls-1" d="M24.68,19.68l.59.1Z"/><path class="cls-2" d="M24.23,18.94l.56.11Z"/><path class="cls-1" d="M24.36,24.31h0Z"/><path class="cls-1" d="M24.16,19.59l.52.09Z"/><path class="cls-1" d="M23.87,24.3h0Z"/><path class="cls-2" d="M24,24.94h0Z"/><path class="cls-1" d="M23.49,18.54l.72.1Z"/><path class="cls-1" d="M23.58,17.91l.56.07Z"/><path class="cls-1" d="M23.4,24.26l.47,0Z"/><path class="cls-1" d="M22.88,17.8l.7.11Z"/><path class="cls-1" d="M22.78,18.43l.7.11Z"/><path class="cls-1" d="M23,19.33l.49.12C23.29,19.41,23.12,19.38,23,19.33Z"/><path class="cls-2" d="M22.93,24.85q.41.06.84.09Q23.34,24.91,22.93,24.85Z"/><path class="cls-1" d="M22.94,24.2l.39.05A2.6,2.6,0,0,1,22.94,24.2Z"/><path class="cls-1" d="M22.57,24.13l.37.07Z"/><path class="cls-1" d="M22.18,17.67l.7.13Z"/><path class="cls-1" d="M22.06,18.31l.71.12Z"/><path class="cls-1" d="M22.7,17.14l-.9-.05h0Z"/><path class="cls-1" d="M22.42,24.1l.15,0Z"/><path class="cls-1" d="M22.53,16.48l-.71,0h0Z"/><path class="cls-2" d="M22.06,24.67a6.09,6.09,0,0,0,.87.18A6.09,6.09,0,0,1,22.06,24.67Z"/><path class="cls-1" d="M22.09,24l.3.07Z"/><path class="cls-1" d="M22.17,17.67l-.41-.08h0Z"/><path class="cls-1" d="M21.74,23.9a3.59,3.59,0,0,0,.35.12A3.59,3.59,0,0,1,21.74,23.9Z"/><path class="cls-2" d="M21.65,24.55a2.77,2.77,0,0,0,.41.12A2.77,2.77,0,0,1,21.65,24.55Z"/><path class="cls-1" d="M21.83,16.05v.24h0A1.93,1.93,0,0,0,21.83,16.05Z"/><path class="cls-1" d="M21.83,16v.09a1.93,1.93,0,0,1,0,.24l-.18,0v-.27h0V16Z"/><path class="cls-1" d="M21.83,15.87V16l-.18,0v-.33l.17,0h0C21.82,15.71,21.83,15.79,21.83,15.87Z"/><path class="cls-1" d="M21.83,15.64v.23c0-.08,0-.16,0-.23Z"/><polygon class="cls-1" points="21.83 15.63 21.83 15.64 21.82 15.64 21.82 15.63 21.83 15.63"/><path class="cls-1" d="M21.82,16.29h0v.15h-.18v-.12h0Z"/><path class="cls-1" d="M21.82,16.44v0Z"/><path class="cls-1" d="M21.81,15.42c0,.07,0,.14,0,.21l-.17,0v-.48l-.13-.07.05,0,.22.06v0Z"/><path class="cls-1" d="M21.64,16.44h.18c0,.1,0,.21,0,.31h-.18C21.64,16.65,21.64,16.54,21.64,16.44Z"/><path class="cls-1" d="M21.81,16.77v.32h-.18c0-.11,0-.22,0-.32Z"/><path class="cls-1" d="M21.8,19.05l-.18,0h0Z"/><polygon class="cls-1" points="21.8 17.09 21.8 17.09 21.79 17.09 21.79 17.09 21.8 17.09"/><polygon class="cls-1" points="21.8 17.09 21.8 17.09 21.79 17.09 21.79 17.09 21.8 17.09"/><path class="cls-1" d="M21.79,17.09l0,.5-.16,0c0-.16,0-.32,0-.48Z"/><path class="cls-1" d="M21.76,17.59l0,.26a2.46,2.46,0,0,1,0-.26Z"/><path class="cls-1" d="M21.76,17.59a2.46,2.46,0,0,0,0,.26v.06a.4.4,0,0,1-.15,0v0h0l0-.28h0Z"/><path class="cls-1" d="M21.76,17.59h0l-.16,0h0Z"/><path class="cls-1" d="M21.73,17.91l0,.33h0Z"/><path class="cls-1" d="M21.73,17.91l0,.32-.14,0,0-.33A.4.4,0,0,0,21.73,17.91Z"/><polygon class="cls-2" points="21.7 18.24 21.7 18.24 21.7 18.24 21.7 18.24 21.7 18.24"/><path class="cls-1" d="M21.7,18.23h0l-.14,0h0Z"/><path class="cls-1" d="M21.7,18.24a.49.49,0,0,1,0,.12h-.14v-.14h0Z"/><polygon class="cls-1" points="21.69 18.36 21.69 18.37 21.69 18.37 21.69 18.36"/><path class="cls-1" d="M21.69,18.37h0Z"/><polygon class="cls-1" points="21.69 18.38 21.69 18.38 21.69 18.38 21.69 18.38"/><path class="cls-1" d="M21.69,18.38l0,.32h-.14v0l0-.28h0Z"/><path class="cls-1" d="M21.69,18.37h0l-.14,0h.14Z"/><path class="cls-1" d="M21.31,23.74l.38.15Z"/><path class="cls-1" d="M21.66,18.7c0,.1,0,.21,0,.31h-.13l0-.29v0Z"/><path class="cls-1" d="M21.65,15.66V16l-.14,0c0-.11,0-.22,0-.32Z"/><path class="cls-1" d="M21.65,15.37v.29l-.15,0a2,2,0,0,0,0-.25.52.52,0,0,1-.16-.07V15.2a.24.24,0,0,1,0-.2l.13.07,0,0,0,0,.13.07Z"/><path class="cls-1" d="M21.65,16v.06h0v.27h0l-.14,0c0-.11,0-.22,0-.33Z"/><path class="cls-2" d="M21.28,24.42l.37.13Z"/><path class="cls-1" d="M21.64,16.32v.12H21.5v-.09Z"/><path class="cls-1" d="M21.64,16.44c0,.1,0,.21,0,.32h-.14c0-.11,0-.21,0-.32h.14Z"/><path class="cls-1" d="M21.49,16.75h.14c0,.1,0,.21,0,.32h-.15C21.48,17,21.48,16.86,21.49,16.75Z"/><path class="cls-1" d="M21.62,19h0Z"/><path class="cls-1" d="M21.62,19a.62.62,0,0,0,0,.13c0,.17,0,.34-.07.51a1,1,0,0,1,0,.16l0,.31-.12,0c0-.35.09-.72.12-1.1h.13Z"/><path class="cls-1" d="M21.62,17.08c0,.16,0,.32,0,.48l-.12,0h0l0-.46h.15Z"/><path class="cls-1" d="M21.6,17.56h0l-.12,0Z"/><path class="cls-1" d="M21.6,17.56h0l0,.28h0v0l-.17,0,0-.32h0Z"/><path class="cls-1" d="M21.58,17.88l0,.33-.18,0a1.66,1.66,0,0,0,0-.32Z"/><path class="cls-1" d="M21.56,18.21h0l-.18,0h0Z"/><path class="cls-1" d="M21.56,18.21h0v.14l-.18,0c0-.05,0-.11,0-.16Z"/><path class="cls-1" d="M21.55,18.36h0l-.18,0Z"/><path class="cls-1" d="M21.55,18.36h0l0,.28v0h0l-.19,0c0-.11,0-.22,0-.33Z"/><path class="cls-1" d="M21.52,18.69v0l0,.29H21.3l0-.32Z"/><path class="cls-1" d="M21.51,16c0,.11,0,.22,0,.33l-.18,0c0-.11,0-.22,0-.33Z"/><path class="cls-1" d="M21.51,16l-.18,0v-.32l.17,0C21.51,15.79,21.51,15.9,21.51,16Z"/><path class="cls-1" d="M21.5,16.34v.09h-.18v-.05Z"/><path class="cls-1" d="M21.49,15.44a2,2,0,0,1,0,.25l-.17,0v-.35A.52.52,0,0,0,21.49,15.44Z"/><path class="cls-1" d="M21.49,16.75c0,.11,0,.21,0,.32H21.3c0-.21,0-.42,0-.64h.18C21.5,16.54,21.49,16.64,21.49,16.75Z"/><path class="cls-1" d="M21.49,19h0l-.16,0Z"/><path class="cls-1" d="M21.37,20.11c-.05.39-.1.74-.15,1.08H21c.1-.7.2-1.46.29-2.21h0l.16,0h0C21.46,19.39,21.41,19.76,21.37,20.11Z"/><path class="cls-1" d="M21.37,20.11l.12,0c0,.11,0,.22,0,.33s0,.26-.06.4,0,.22,0,.33h-.12C21.27,20.85,21.32,20.5,21.37,20.11Z"/><path class="cls-1" d="M21.47,17.07l0,.46h-.06l-.1,0c0-.14,0-.28,0-.43Z"/><path class="cls-1" d="M21.45,15.07,21.32,15h0Z"/><polygon class="cls-1" points="21.44 17.53 21.44 17.53 21.38 17.52 21.44 17.53"/><path class="cls-1" d="M21.44,17.53l0,.32-.15,0c0-.11,0-.21,0-.33l.1,0Z"/><path class="cls-1" d="M21.41,17.85a1.66,1.66,0,0,1,0,.32l-.14,0c0-.1,0-.21,0-.32Z"/><path class="cls-1" d="M21.38,18.17h0c0,.05,0,.11,0,.16h-.15c0-.06,0-.12,0-.19Z"/><path class="cls-1" d="M21.37,18.34c0,.11,0,.22,0,.33H21.2c0-.11,0-.22,0-.33h.15Z"/><path class="cls-1" d="M21.34,21.19l-.05.32a1.7,1.7,0,0,1,0,.22c0,.11,0,.22,0,.32h-.13c0-.27.09-.56.14-.86Z"/><path class="cls-1" d="M21.33,18.67l0,.32h-.13l0-.32Z"/><path class="cls-1" d="M21.33,15.37v.35l-.15,0v-.08L21,15.57v-.42A1.68,1.68,0,0,0,21.33,15.37Z"/><path class="cls-1" d="M21.33,16c0,.11,0,.22,0,.33l-.14,0v-.66l.15,0Z"/><path class="cls-1" d="M21.33,15.2v.17a1.68,1.68,0,0,1-.32-.22v-.23a.09.09,0,0,1,0-.07l.28.15A.24.24,0,0,0,21.33,15.2Z"/><path class="cls-1" d="M21.33,15h0L21,14.85h0l0-.06A1.84,1.84,0,0,0,21.33,15Z"/><path class="cls-1" d="M21.32,16.37v.05h-.14v.33c0-.12,0-.23,0-.34Z"/><path class="cls-1" d="M21.32,16.42c0,.22,0,.43,0,.64h-.15c0-.11,0-.22,0-.32v-.33Z"/><path class="cls-1" d="M20.73,23c0,.16-.05.3-.07.43l-.16-.09h0A35.45,35.45,0,0,0,21.17,19h.13c-.09.75-.19,1.51-.29,2.21-.05.29-.09.58-.13.85S20.78,22.69,20.73,23Z"/><path class="cls-1" d="M21.3,17.06c0,.15,0,.29,0,.43l-.16,0h0l0-.4Z"/><path class="cls-1" d="M21.26,17.82c0,.11,0,.22,0,.32l-.17,0c0-.1,0-.19,0-.28v0l0-.34.16,0C21.27,17.61,21.27,17.71,21.26,17.82Z"/><path class="cls-1" d="M21.24,18.14c0,.07,0,.13,0,.19h-.17a1.5,1.5,0,0,1,0-.22Z"/><path class="cls-1" d="M21.22,18.33c0,.11,0,.22,0,.33h0l-.19,0h0c0-.1,0-.2,0-.3h.17Z"/><path class="cls-1" d="M21,21.2h.19c0,.3-.1.59-.14.86a.67.67,0,0,0-.2,0c0-.27.08-.56.13-.85Z"/><path class="cls-2" d="M20.92,24.26l.29.13Z"/><path class="cls-1" d="M21.21,22.05a.09.09,0,0,0,0,.05h0l0,.26h0c0,.06,0,.11,0,.16a.68.68,0,0,0,0,.14l-.06.31H20.9c.05-.24.1-.51.15-.8l0-.12Z"/><path class="cls-1" d="M21.2,18.66l0,.32H21l0-.33.19,0Z"/><polygon class="cls-1" points="21.2 18.34 21.05 18.33 21.05 18.32 21.2 18.34"/><path class="cls-1" d="M21.18,15.74v.66l-.18,0v-.66Z"/><path class="cls-1" d="M21.18,16.4c0,.11,0,.22,0,.34s0,.21,0,.32l0,.4-.16,0,0,.37c0-.58.06-1.18.07-1.76v.39Z"/><polygon class="cls-1" points="21.18 18.98 21.17 18.98 21.17 18.98 21.18 18.98"/><path class="cls-1" d="M21.18,15.66v.08l-.17,0v-.2Z"/><polygon class="cls-1" points="21.17 18.98 21.17 18.98 20.98 18.98 20.98 18.97 21.17 18.98"/><path class="cls-1" d="M21.17,19a35.45,35.45,0,0,1-.67,4.32l-.14-.08c0-.1,0-.2.05-.31.05-.27.1-.58.15-.91h0c.17-1.1.31-2.11.42-3Z"/><path class="cls-1" d="M21.13,22.53a.68.68,0,0,0,0,.14h0A.68.68,0,0,1,21.13,22.53Z"/><path class="cls-1" d="M21.12,17.46l0,.34c0-.11,0-.23,0-.34Z"/><path class="cls-1" d="M21,17.43l.16,0c0,.11,0,.23,0,.34v0c0,.09,0,.18,0,.28l-.15,0,0-.28Z"/><path class="cls-1" d="M20.29,13.76a5.16,5.16,0,0,0,.79,1l0,.06h0l0,0v.09a.36.36,0,0,0,0,.2,5.12,5.12,0,0,1-1-1.18,6.75,6.75,0,0,0-1.91-2.29A20,20,0,0,1,15.42,8s.21-2.17-.65-2.33-1.53.24-2.09,1.48a3.73,3.73,0,0,0,.51,3.65,4.54,4.54,0,0,1,.8,2.07,15.11,15.11,0,0,1-2.76.21c-1.75,0-2.53.84-2.58,1.51A1.56,1.56,0,0,0,9,16a2.69,2.69,0,0,0-.69,1.77A2,2,0,0,0,9,19.36a2.25,2.25,0,0,0-.27,1.27,1.91,1.91,0,0,0,1.19,1.72s-.22,1.37.45,1.9,1.18,1,4.3.94,2.85-.83,4.54-.94l.73,0v0l-.07.29-.63,0a3.72,3.72,0,0,0-1.36.35,7.4,7.4,0,0,1-3.19.6H14c-2.58,0-3.15-.46-3.79-1l-.06,0a2.35,2.35,0,0,1-.6-2,2.25,2.25,0,0,1-1.15-1.86,2.18,2.18,0,0,1,.18-1.22A2.84,2.84,0,0,1,8,17.79,2.77,2.77,0,0,1,8.58,16a1.91,1.91,0,0,1-.25-1.45c.08-.86,1-1.77,2.9-1.77a15.32,15.32,0,0,0,2.39-.16A4.24,4.24,0,0,0,12.93,11a4.09,4.09,0,0,1-.55-4c.6-1.32,1.41-1.86,2.45-1.66s1,2,.92,2.58a19.51,19.51,0,0,0,2.57,3.46l.05,0a6.4,6.4,0,0,1,1.78,2.1Z"/><path class="cls-1" d="M21.08,22.05l0,.12c-.05.29-.1.56-.15.8h-.17c.05-.27.1-.58.15-.91A.67.67,0,0,1,21.08,22.05Z"/><path class="cls-1" d="M20.92,18.08l.15,0a1.5,1.5,0,0,0,0,.22H20.9l0,.3c0-.27,0-.54.06-.83Z"/><path class="cls-1" d="M21.05,23v0h0L21,23.3h0c0,.09,0,.17-.05.25l-.16-.09c0-.15.07-.31.11-.5Z"/><path class="cls-1" d="M21.05,18.33c0,.1,0,.2,0,.3h-.13l0-.3Z"/><path class="cls-1" d="M21,14.83l0,0a.09.09,0,0,0,0,.07Z"/><polygon class="cls-1" points="21.02 18.64 20.98 18.97 20.98 18.98 20.85 18.98 20.88 18.63 21.02 18.64"/><path class="cls-2" d="M21,15.55V16c0,.58,0,1.18-.07,1.76,0,.29,0,.56-.06.83s-.05.52-.08.78c0,.05,0,.1,0,.16,0,.28-.07.55-.11.82s-.08.63-.13.92-.07.4-.1.59c-.13.73-.26,1.32-.36,1.73l-.06.25-.82.05a4.18,4.18,0,0,0-1.57.4,6.9,6.9,0,0,1-3,.54c-2.91.08-3.43-.34-4-.82L10.59,24c-.43-.34-.39-1.27-.34-1.61l0-.25-.24-.09a1.62,1.62,0,0,1-1-1.48,1.86,1.86,0,0,1,.23-1.05l.25-.36-.42-.1a2.05,2.05,0,0,1-.51-1.32,2.4,2.4,0,0,1,.61-1.52l.2-.21-.2-.22A1.24,1.24,0,0,1,9,14.69v-.06c0-.48.67-1.21,2.26-1.21a14.94,14.94,0,0,0,2.83-.22l.28-.06,0-.28a4.83,4.83,0,0,0-.86-2.23A3.41,3.41,0,0,1,13,7.3C13.46,6.22,14,6,14.42,6a2.58,2.58,0,0,1,.29,0c.37.07.46,1.22.38,2V8.1l.05.09a20,20,0,0,0,2.75,3.7l.05,0a5.86,5.86,0,0,1,1.66,2l.14.22A4.64,4.64,0,0,0,21,15.55Z"/><path class="cls-1" d="M21,15.37v.18a4.64,4.64,0,0,1-1.27-1.44l-.14-.22a5.86,5.86,0,0,0-1.66-2l-.05,0a20,20,0,0,1-2.75-3.7l-.05-.09V8c.08-.77,0-1.92-.38-2a2.58,2.58,0,0,0-.29,0C14,6,13.46,6.22,13,7.3a3.41,3.41,0,0,0,.48,3.33,4.83,4.83,0,0,1,.86,2.23l0,.28-.28.06a14.94,14.94,0,0,1-2.83.22c-1.59,0-2.22.73-2.26,1.21v.06a1.24,1.24,0,0,0,.27,1.1l.2.22-.2.21a2.4,2.4,0,0,0-.61,1.52,2.05,2.05,0,0,0,.51,1.32l.42.1-.25.36a1.86,1.86,0,0,0-.23,1.05,1.62,1.62,0,0,0,1,1.48l.24.09,0,.25c-.05.34-.09,1.27.34,1.61l.06.05c.6.48,1.12.9,4,.82a6.9,6.9,0,0,0,3-.54,4.18,4.18,0,0,1,1.57-.4l.82-.05V24l-.06.25-.73,0c-1.69.11-1.42.86-4.54.94s-3.63-.4-4.3-.94-.45-1.9-.45-1.9a1.91,1.91,0,0,1-1.19-1.72A2.25,2.25,0,0,1,9,19.36a2,2,0,0,1-.72-1.59A2.69,2.69,0,0,1,9,16a1.56,1.56,0,0,1-.34-1.39c0-.67.83-1.51,2.58-1.51A15.11,15.11,0,0,0,14,12.89a4.54,4.54,0,0,0-.8-2.07,3.73,3.73,0,0,1-.51-3.65c.56-1.24,1.23-1.65,2.09-1.48S15.42,8,15.42,8a20,20,0,0,0,2.68,3.63A6.75,6.75,0,0,1,20,13.94a5.12,5.12,0,0,0,1,1.18.32.32,0,0,0,0,.14Z"/><path class="cls-1" d="M21,15.15v.11a.32.32,0,0,1,0-.14Z"/><path class="cls-1" d="M21,14.92v.23l0,0A.36.36,0,0,1,21,14.92Z"/><path class="cls-1" d="M20.85,19H21c-.11.91-.25,1.92-.42,3h0c0,.33-.1.64-.15.91,0,.11,0,.21-.05.31l-.08.45c0,.08,0,.14,0,.19l-.21,0c0-.08,0-.16.05-.25.1-.41.23-1,.36-1.73,0-.19.07-.38.1-.59s.09-.6.13-.92.07-.54.11-.82c0-.06,0-.11,0-.16,0-.26.05-.51.08-.78Z"/><path class="cls-1" d="M21,23.56h0a1.37,1.37,0,0,1,0,.23v.1l-.18-.09c0-.1,0-.21.07-.33Z"/><path class="cls-1" d="M20.9,23.89l0,.16c0,.05,0,.08,0,.09a.31.31,0,0,1,0,.1,1.34,1.34,0,0,1-.24-.12v-.06c0-.08,0-.17.07-.26Z"/><path class="cls-1" d="M20.73,23h.17c0,.19-.08.35-.11.5h0l-.1-.07C20.68,23.26,20.71,23.12,20.73,23Z"/><path class="cls-1" d="M20.88,24.24h0a.31.31,0,0,1-.05.1l0,0a.35.35,0,0,1-.13.08h-.12l.08-.35A1.34,1.34,0,0,0,20.88,24.24Z"/><path class="cls-1" d="M20.88,18.63c0,.27-.05.52-.08.78C20.83,19.15,20.85,18.9,20.88,18.63Z"/><path class="cls-1" d="M20.81,24.37l0,0Z"/><path class="cls-1" d="M20.76,23.46h0c0,.12-.05.23-.07.33l-.12-.07c0-.09,0-.21.06-.34Z"/><path class="cls-1" d="M20.6,23.73l.12.07c0,.09,0,.18-.07.26v.06l-.1-.05C20.55,24,20.57,23.88,20.6,23.73Z"/><path class="cls-1" d="M20.63,24.46h0Z"/><path class="cls-1" d="M20.6,23.73c0,.15-.05.27-.06.34L20.43,24,20.35,24l.15-.66.16.09C20.63,23.52,20.62,23.64,20.6,23.73Z"/><path class="cls-1" d="M20.64,24.12l-.08.35-.13,0h-.19s0-.08,0-.12,0-.11.05-.21c.41,0,.22,0,.22,0a.73.73,0,0,0,0-.08Z"/><path class="cls-1" d="M20.52,24.15s.19,0-.22,0c0-.06,0-.14.05-.22l.08.05.11.06A.73.73,0,0,1,20.52,24.15Z"/><path class="cls-1" d="M20.56,24.47h-.13Z"/><path class="cls-1" d="M20.5,23.3h0l-.15.66-.11-.06v0c0-.05,0-.11,0-.19l.08-.45Z"/><path class="cls-1" d="M20.24,23.9l.11.06c0,.08,0,.16-.05.22l-.34,0L20,24v-.08l.21,0Z"/><path class="cls-1" d="M20.3,24.18c0,.1,0,.17-.05.21s0,.08,0,.12l-.32,0c0-.05,0-.11,0-.18s0-.06,0-.1v0Z"/><path class="cls-1" d="M20,23.88v0Z"/><path class="cls-1" d="M19.88,24.54l.07-.29s0,.07,0,.1,0,.13,0,.18Z"/></g></g></g></g></g></svg>